<?xml version="1.0" standalone="no"?>
<!DOCTYPE svg PUBLIC "-//W3C//DTD SVG 1.1//EN" "http://www.w3.org/Graphics/SVG/1.1/DTD/svg11.dtd" >
<svg>
<metadata>
Created by FontForge 20090622 at Wed Jul  5 03:16:08 2017
 By deploy user
Copyright (c) 2010 by Leftloft, published by TypeTogether. All rights reserved.
</metadata>
<defs>
<font id="LFTEtica-SemiBold" horiz-adv-x="600" >
  <font-face 
    font-family="LFT Etica SB"
    font-weight="600"
    font-stretch="normal"
    units-per-em="1000"
    panose-1="2 0 5 3 0 0 0 2 0 4"
    ascent="730"
    descent="-270"
    x-height="528"
    cap-height="720"
    bbox="-210 -282 2267.43 960"
    underline-thickness="50"
    underline-position="-50"
    unicode-range="U+0020-U+FB04"
  />
<missing-glyph horiz-adv-x="171" 
 />
    <glyph glyph-name="ft" unicode="ft" horiz-adv-x="653" 
d="M621 428h-96v-296q0 -43 34 -43q35 0 62 9l13 -91q-58 -20 -124 -20q-117 0 -117 118v323h-167v-428h-133v428h-66v79l66 15v55q0 73 36.5 114t111.5 41q49 0 88 -11l-7 -87q-24 7 -46 7q-50 0 -50 -59v-54h169l14 151h116v-151h96v-100z" />
    <glyph glyph-name="ff" unicode="ff" horiz-adv-x="632" 
d="M396 0v428h-170v-428h-133v428h-66v79l66 15v43q0 73 36.5 114t111.5 41q44 0 90 -11l-9 -87q-24 7 -46 7q-50 0 -50 -59v-42h170v49q0 73 36.5 114t111.5 41q50 0 88 -11l-7 -87q-25 7 -46 7q-50 0 -50 -59v-54h91v-100h-91v-428h-133z" />
    <glyph glyph-name="fi" unicode="fi" horiz-adv-x="601" 
d="M93 0v428h-66v79l66 15v55q0 73 36.5 114t111.5 41q49 0 88 -11l-7 -87q-24 7 -46 7q-50 0 -50 -59v-54h302v-528h-133v428h-169v-428h-133zM384 663q0 32 22.5 50t57.5 18q36 0 58 -18t22 -50q0 -31 -22 -48.5t-58 -17.5q-34 0 -57 17.5t-23 48.5z" />
    <glyph glyph-name="fl" unicode="fl" horiz-adv-x="599" 
d="M93 0v428h-66v79l66 15v55q0 73 36.5 114t111.5 41q49 0 88 -11l-7 -87q-24 7 -46 7q-50 0 -50 -59v-54h170v192h133v-720h-133v428h-170v-428h-133z" />
    <glyph glyph-name="ffi" unicode="ffi" horiz-adv-x="903" 
d="M395 0v428h-169v-428h-133v428h-66v79l66 15v43q0 73 36.5 114t111.5 41q44 0 90 -11l-9 -87q-24 7 -46 7q-50 0 -50 -59v-42h169v49q0 73 36.5 114t111.5 41q49 0 88 -11l-7 -87q-25 7 -46 7q-50 0 -50 -59v-54h302v-528h-133v428h-169v-428h-133zM686 663q0 32 22.5 50
t57.5 18q36 0 58 -18t22 -50q0 -31 -22 -48.5t-58 -17.5q-34 0 -57 17.5t-23 48.5z" />
    <glyph glyph-name="ffl" unicode="ffl" horiz-adv-x="899" 
d="M393 0v428h-167v-428h-133v428h-66v79l66 15v43q0 73 36.5 114t111.5 41q44 0 90 -11l-9 -87q-24 7 -46 7q-50 0 -50 -59v-42h167v49q0 73 36.5 114t111.5 41q49 0 88 -11l-7 -87q-24 7 -46 7q-50 0 -50 -59v-54h170v192h133v-720h-133v428h-170v-428h-133z" />
    <glyph glyph-name="tt" unicode="tt" horiz-adv-x="653" 
d="M622 428h-97v-296q0 -43 34 -43q35 0 62 9l13 -91q-58 -20 -124 -20q-117 0 -117 118v323h-167v-298q0 -41 38 -41q20 0 44 8l13 -90q-54 -20 -110 -20q-116 0 -116 118v323h-70v79l72 21l14 150h115v-150h169l14 151h116v-151h97v-100z" />
    <glyph glyph-name="fft" unicode="fft" horiz-adv-x="954" 
d="M921 428h-95v-296q0 -43 34 -43q35 0 62 9l13 -91q-58 -20 -124 -20q-117 0 -117 118v323h-166v-428h-133v428h-169v-428h-133v428h-66v79l66 15v43q0 73 36.5 114t111.5 41q44 0 90 -11l-9 -87q-24 7 -46 7q-50 0 -50 -59v-42h169v49q0 73 36.5 114t111.5 41
q49 0 88 -11l-7 -87q-25 7 -46 7q-50 0 -50 -59v-54h168l14 151h116v-151h95v-100z" />
    <glyph glyph-name=".notdef" horiz-adv-x="171" 
 />
    <glyph glyph-name=".notdef" horiz-adv-x="171" 
 />
    <glyph glyph-name=".null" horiz-adv-x="0" 
 />
    <glyph glyph-name="nonmarkingreturn" horiz-adv-x="333" 
 />
    <glyph glyph-name="space" unicode=" " horiz-adv-x="205" 
 />
    <glyph glyph-name="exclam" unicode="!" horiz-adv-x="319" 
d="M106 213l-12 270v237h135v-237l-13 -270h-110zM83 57q0 34 20 54t56 20q35 0 56 -19.5t21 -51.5q0 -33 -21 -53t-56 -20q-36 0 -56 19.5t-20 50.5z" />
    <glyph glyph-name="quotedbl" unicode="&#x22;" horiz-adv-x="379" 
d="M160 720v-279h-102v279h102zM321 720v-279h-102v279h102z" />
    <glyph glyph-name="numbersign" unicode="#" horiz-adv-x="699" 
d="M299 380l-39 -120h132l42 120h-135zM659 380h-139l-40 -120h121v-84h-149l-62 -168l-80 18l54 150h-133l-62 -168l-79 18l53 150h-100v84h129l41 120h-112v84h141l64 182l81 -18l-57 -164h133l65 179l80 -15l-58 -164h109v-84z" />
    <glyph glyph-name="dollar" unicode="$" horiz-adv-x="536" 
d="M214 -88v91q-60 9 -113 36.5t-87 62.5l62 79q92 -78 185 -78q48 0 77 20.5t29 59.5q0 43 -28 67.5t-113 45.5q-95 24 -141 71t-46 127q0 75 49 124t127 61v84h106v-85q104 -19 168 -88l-58 -71q-72 64 -159 64q-48 0 -77 -19t-29 -57q0 -40 32.5 -64t116.5 -49
q97 -29 140.5 -74t43.5 -125q0 -77 -48.5 -127.5t-129.5 -64.5v-91h-107z" />
    <glyph glyph-name="percent" unicode="%" horiz-adv-x="945" 
d="M643 167q0 -39 22.5 -62.5t59.5 -23.5q36 0 57.5 24t21.5 62t-21.5 62.5t-57.5 24.5q-38 0 -60 -24.5t-22 -62.5zM541 164q0 78 51 128.5t133 50.5q81 0 131.5 -50t50.5 -126t-51.5 -126t-130.5 -50q-85 0 -134.5 48t-49.5 125zM140 536q0 -39 22 -62.5t59 -23.5t58.5 24
t21.5 62t-21.5 62.5t-58.5 24.5t-59 -24t-22 -63zM38 533q0 78 50.5 128.5t132.5 50.5q81 0 132 -49.5t51 -126.5q0 -76 -52 -126.5t-131 -50.5q-84 0 -133.5 48t-49.5 126zM202 0l439 720h110l-441 -720h-108z" />
    <glyph glyph-name="ampersand" unicode="&#x26;" horiz-adv-x="739" 
d="M276 571q0 -42 59 -104q81 47 81 104q0 29 -18 46.5t-51 17.5t-52 -18t-19 -46zM312 92q78 0 137 71l-164 184q-94 -46 -94 -138q0 -50 33 -83.5t88 -33.5zM601 -10l-83 91q-51 -51 -103 -73.5t-122 -22.5q-101 0 -164 58.5t-63 153.5q0 143 154 221q-67 72 -67 148
q0 68 52.5 115t137.5 47q79 0 130.5 -41t51.5 -112q0 -103 -127 -174l78 -86l107 98l78 -79l-112 -101l145 -165z" />
    <glyph glyph-name="quotesingle" unicode="'" horiz-adv-x="218" 
d="M160 720v-279h-102v279h102z" />
    <glyph glyph-name="parenleft" unicode="(" horiz-adv-x="366" 
d="M225 738l91 -47q-70 -99 -101 -187.5t-31 -201.5q0 -107 31.5 -193t106.5 -188l-78 -53q-86 78 -137 191.5t-51 240.5q0 245 169 438z" />
    <glyph glyph-name="parenright" unicode=")" horiz-adv-x="366" 
d="M50 691l91 47q169 -193 169 -438q0 -127 -51 -240.5t-137 -191.5l-78 53q75 102 106.5 188t31.5 193q0 113 -31 201.5t-101 187.5z" />
    <glyph glyph-name="asterisk" unicode="*" horiz-adv-x="457" 
d="M315 394l-89 93l-90 -93l-50 36l68 102l-104 42l23 57l110 -25l14 115h58l15 -114l116 25l21 -58l-109 -42l65 -102z" />
    <glyph glyph-name="plus" unicode="+" 
d="M343 556v-220h218v-84h-218v-219h-87v219h-218v84h218v220h87z" />
    <glyph glyph-name="comma" unicode="," horiz-adv-x="250" 
d="M44 56q0 30 21.5 50.5t52.5 20.5q40 0 61 -27.5t21 -68.5q0 -63 -35.5 -112t-103.5 -73l-20 47q82 39 85 107q-15 -5 -26 -5q-26 0 -41 17t-15 44z" />
    <glyph glyph-name="hyphen" unicode="-" horiz-adv-x="328" 
d="M30 225v105h268v-105h-268z" />
    <glyph glyph-name="period" unicode="." horiz-adv-x="253" 
d="M50 57q0 34 20 54t56 20q35 0 56 -19.5t21 -51.5q0 -33 -21 -53t-56 -20q-36 0 -56 19.5t-20 50.5z" />
    <glyph glyph-name="slash" unicode="/" horiz-adv-x="403" 
d="M18 -92l240 831h109l-242 -831h-107z" />
    <glyph glyph-name="zero" unicode="0" horiz-adv-x="612" 
d="M181 352q0 -253 125 -253t125 255t-125 255t-125 -257zM50 352q0 181 66.5 274.5t191.5 93.5q123 0 188.5 -92.5t65.5 -268.5q0 -185 -66.5 -278.5t-192.5 -93.5q-124 0 -188.5 92t-64.5 273z" />
    <glyph glyph-name="one" unicode="1" horiz-adv-x="484" 
d="M209 100v448q-74 -40 -157 -50l-17 88q55 14 111 47.5t93 76.5h100v-610h130v-100h-407v100h147z" />
    <glyph glyph-name="two" unicode="2" horiz-adv-x="531" 
d="M36 0v80l245 296q35 43 50 73.5t15 64.5q0 42 -28.5 68t-72.5 26q-65 0 -168 -76l-57 81q116 107 247 107q88 0 148.5 -50t60.5 -139q0 -57 -18.5 -100.5t-63.5 -98.5l-185 -226h277v-106h-450z" />
    <glyph glyph-name="three" unicode="3" horiz-adv-x="541" 
d="M16 84l59 78q83 -68 171 -68q55 0 88.5 27.5t33.5 79.5q0 110 -131 111q-43 0 -63 -4v105q69 2 115 33.5t46 83.5q0 42 -26 62.5t-69 20.5q-71 0 -147 -46l-49 81q103 72 218 72q89 0 144 -46t55 -126q0 -60 -34.5 -105t-97.5 -64v-3q80 -8 121.5 -54.5t41.5 -121.5
q0 -99 -68 -156t-170 -57q-142 0 -238 97z" />
    <glyph glyph-name="four" unicode="4" horiz-adv-x="581" 
d="M154 260h197v332zM351 0v153h-321v96l279 461h167v-450h80v-107h-80v-153h-125z" />
    <glyph glyph-name="five" unicode="5" horiz-adv-x="542" 
d="M54 260l35 450h369l-7 -112h-261l-18 -189q50 44 130 44q91 0 142 -57t51 -164q0 -118 -69.5 -181.5t-177.5 -63.5q-129 0 -221 76l43 84q94 -51 164 -51q60 0 98 34t38 100q0 124 -106 124q-59 0 -99 -42l-5 -52h-106z" />
    <glyph glyph-name="six" unicode="6" horiz-adv-x="563" 
d="M47 310q0 198 70 304t200 106q88 0 175 -52l-39 -87q-63 36 -123 36q-41 0 -72 -19.5t-49.5 -54.5t-28.5 -77t-12 -93q76 74 163 74q88 0 139.5 -58t51.5 -156q0 -123 -63.5 -184.5t-167.5 -61.5q-244 0 -244 323zM290 89q49 0 79 33t30 100q0 121 -103 121
q-36 0 -69.5 -18.5t-55.5 -41.5q3 -102 32 -148t87 -46z" />
    <glyph glyph-name="seven" unicode="7" horiz-adv-x="476" 
d="M464 654l-256 -654h-130v13l232 586h-292v111h446v-56z" />
    <glyph glyph-name="eight" unicode="8" horiz-adv-x="556" 
d="M157 189q0 -47 30 -73.5t85 -26.5q52 0 83.5 29.5t31.5 76.5q0 26 -11.5 47.5t-33.5 38t-40 26t-44 20.5q-101 -52 -101 -138zM191 539q0 -64 99 -108q33 18 57.5 48.5t24.5 64.5q0 81 -92 81q-42 0 -65.5 -23.5t-23.5 -62.5zM35 179q0 128 138 197q-49 21 -79.5 62.5
t-30.5 98.5q0 82 59.5 132.5t159.5 50.5q94 0 152 -47t58 -123q0 -54 -31.5 -96.5t-79.5 -69.5q138 -67 138 -188q0 -98 -68 -153.5t-182 -55.5q-111 0 -172.5 50.5t-61.5 141.5z" />
    <glyph glyph-name="nine" unicode="9" horiz-adv-x="558" 
d="M509 408q0 -205 -69 -313t-192 -108q-112 0 -190 56l42 86q69 -40 135 -40q133 0 151 234q-70 -65 -160 -65t-141.5 61.5t-51.5 158.5q0 114 65 178t166 64q121 0 183 -82t62 -230zM264 615q-48 0 -79 -32.5t-31 -96.5q0 -63 29 -93.5t77 -30.5q72 0 124 60q0 91 -31 142
t-89 51z" />
    <glyph glyph-name="colon" unicode=":" horiz-adv-x="253" 
d="M50 434q0 34 20 54t56 20q35 0 56 -19.5t21 -51.5q0 -33 -21 -53t-56 -20q-36 0 -56 19.5t-20 50.5zM50 57q0 34 20 54t56 20q35 0 56 -19.5t21 -51.5q0 -33 -21 -53t-56 -20q-36 0 -56 19.5t-20 50.5z" />
    <glyph glyph-name="semicolon" unicode=";" horiz-adv-x="253" 
d="M47 56q0 30 21.5 50.5t52.5 20.5q40 0 61 -27.5t21 -68.5q0 -63 -35.5 -112t-103.5 -73l-20 47q82 39 85 107q-15 -5 -26 -5q-26 0 -41 17t-15 44zM49 434q0 34 20 54t56 20q35 0 56 -19.5t21 -51.5q0 -33 -21 -53t-56 -20q-36 0 -56 19.5t-20 50.5z" />
    <glyph glyph-name="less" unicode="&#x3c;" 
d="M554 44l-531 221v62l529 222l36 -86l-404 -167l406 -165z" />
    <glyph glyph-name="equal" unicode="=" 
d="M560 243v-85h-521v85h521zM560 424v-84h-521v84h521z" />
    <glyph glyph-name="greater" unicode="&#x3e;" 
d="M578 267l-530 -221l-36 86l404 166l-403 167l36 86l529 -222v-62z" />
    <glyph glyph-name="question" unicode="?" horiz-adv-x="547" 
d="M214 213v33q0 39 16 73.5t39 59.5l45.5 48t38.5 50t16 55q0 43 -25.5 65t-69.5 22q-48 0 -78 -29.5t-30 -84.5h-123q0 113 65 170t174 57q94 0 157.5 -48.5t63.5 -138.5q0 -42 -17.5 -79t-42.5 -64l-50 -52.5t-42.5 -55.5t-17.5 -61v-20h-119zM196 57q0 34 20.5 54
t56.5 20q34 0 55.5 -19.5t21.5 -51.5t-21.5 -52.5t-55.5 -20.5q-36 0 -56.5 19.5t-20.5 50.5z" />
    <glyph glyph-name="at" unicode="@" horiz-adv-x="989" 
d="M559 184l40 158q-24 15 -67 15q-75 0 -119 -56t-44 -135q0 -96 73 -96q41 0 72.5 33t44.5 81zM694 390l-58 -229q-21 -86 44 -86q48 0 85.5 36.5t55 88t17.5 105.5q0 130 -82 199.5t-219 69.5q-165 0 -270.5 -109t-105.5 -276q0 -150 94.5 -236.5t246.5 -86.5
q160 0 286 93l39 -60q-66 -51 -154.5 -78t-177.5 -27q-184 0 -302 106t-118 290q0 200 134 329.5t331 129.5q171 0 277 -93.5t106 -245.5q0 -134 -76.5 -221t-179.5 -87q-102 0 -107 78q-50 -77 -143 -77q-68 0 -101 44t-33 115q0 111 72 189.5t186 78.5q83 0 153 -40z" />
    <glyph glyph-name="A" unicode="A" horiz-adv-x="690" 
d="M275 720h139l259 -720h-148l-53 163h-254l-53 -163h-149zM255 279h179l-90 283z" />
    <glyph glyph-name="B" unicode="B" horiz-adv-x="652" 
d="M335 606h-124v-182h110q58 0 91 23.5t33 71.5q0 87 -110 87zM211 318v-201h145q58 0 89 27t31 76q0 98 -124 98h-141zM73 0v720h266q126 0 187 -43.5t61 -133.5q0 -57 -32 -102t-93 -59v-2q78 -11 116.5 -59.5t38.5 -106.5q0 -61 -22.5 -104t-65 -66.5t-94 -33.5
t-117.5 -10h-245z" />
    <glyph glyph-name="C" unicode="C" horiz-adv-x="680" 
d="M577 195l74 -91q-121 -117 -283 -117q-156 0 -237 102.5t-81 270.5q0 165 84.5 268.5t239.5 103.5q117 0 192.5 -65t81.5 -188h-139q-4 55 -35.5 91.5t-98.5 36.5q-83 0 -130 -64.5t-47 -181.5q0 -122 48.5 -185.5t135.5 -63.5q99 0 195 83z" />
    <glyph glyph-name="D" unicode="D" horiz-adv-x="723" 
d="M312 598h-101v-477h101q109 0 160.5 59t51.5 178q0 240 -212 240zM73 720h237q175 0 266.5 -92t91.5 -260q0 -192 -93 -280t-286 -88h-216v720z" />
    <glyph glyph-name="E" unicode="E" horiz-adv-x="606" 
d="M73 0v720h479v-122h-341v-173h310v-122h-310v-182h347v-121h-485z" />
    <glyph glyph-name="F" unicode="F" horiz-adv-x="569" 
d="M73 0v720h461v-122h-323v-184h285v-119h-285v-295h-138z" />
    <glyph glyph-name="G" unicode="G" horiz-adv-x="730" 
d="M408 269v115h260v-286q-101 -111 -278 -111q-92 0 -160 29.5t-106 82t-56 117.5t-18 144q0 170 84.5 271t247.5 101q141 0 208 -64.5t74 -170.5h-143q-3 50 -36.5 80t-102.5 30q-90 0 -138.5 -66.5t-48.5 -178.5q0 -252 203 -252q89 0 138 41v118h-128z" />
    <glyph glyph-name="H" unicode="H" horiz-adv-x="719" 
d="M73 0v720h138v-293h297v293h138v-720h-138v302h-297v-302h-138z" />
    <glyph glyph-name="I" unicode="I" horiz-adv-x="288" 
d="M75 0v720h138v-720h-138z" />
    <glyph glyph-name="J" unicode="J" horiz-adv-x="427" 
d="M357 720v-535q0 -198 -177 -198q-91 0 -155 27l17 108q45 -16 93 -16q47 0 65 21.5t18 78.5v514h139z" />
    <glyph glyph-name="K" unicode="K" horiz-adv-x="675" 
d="M73 0v720h138v-297h101l165 297h154l-200 -351l227 -369h-160l-188 309h-99v-309h-138z" />
    <glyph glyph-name="L" unicode="L" horiz-adv-x="559" 
d="M73 720h138v-598h313v-122h-451v720z" />
    <glyph glyph-name="M" unicode="M" horiz-adv-x="881" 
d="M832 0h-130l-47 486l-158 -486h-111l-158 487l-47 -487h-132l70 720h148l174 -529l178 529h142z" />
    <glyph glyph-name="N" unicode="N" horiz-adv-x="725" 
d="M73 0v720h122l320 -487v487h137v-720h-121l-322 481v-481h-136z" />
    <glyph glyph-name="O" unicode="O" horiz-adv-x="786" 
d="M195 364q0 -120 52 -185.5t146 -65.5q95 0 146.5 65t51.5 186q0 112 -52.5 177t-144.5 65q-94 0 -146.5 -65.5t-52.5 -176.5zM50 364q0 172 93.5 270t249.5 98q157 0 250 -98t93 -270q0 -181 -92.5 -279t-250.5 -98t-250.5 98.5t-92.5 278.5z" />
    <glyph glyph-name="P" unicode="P" horiz-adv-x="630" 
d="M323 601h-112v-237h106q66 0 100 31t34 88q0 118 -128 118zM73 0v720h261q123 0 188.5 -60.5t65.5 -170.5q0 -113 -66.5 -175.5t-197.5 -62.5h-113v-251h-138z" />
    <glyph glyph-name="Q" unicode="Q" horiz-adv-x="786" 
d="M688 -102l-255 91q-26 -2 -40 -2q-158 0 -250.5 98.5t-92.5 278.5q0 172 93.5 270t249.5 98q157 0 250 -98t93 -270q0 -106 -38.5 -184t-106.5 -120v-5l143 -45zM195 364q0 -120 52 -185.5t146 -65.5q95 0 146.5 65t51.5 186q0 112 -52.5 177t-144.5 65
q-94 0 -146.5 -65.5t-52.5 -176.5z" />
    <glyph glyph-name="R" unicode="R" horiz-adv-x="663" 
d="M73 720h259q129 0 196.5 -60t67.5 -165q0 -138 -115 -198l154 -297h-150l-133 265q-35 -5 -64 -5h-77v-260h-138v720zM326 601h-115v-230h109q135 0 135 118q0 112 -129 112z" />
    <glyph glyph-name="S" unicode="S" horiz-adv-x="611" 
d="M29 107l69 85q108 -90 213 -90q48 0 78.5 25.5t30.5 68.5q0 42 -31 67.5t-120 50.5q-114 32 -162.5 78.5t-48.5 130.5q0 102 69.5 155.5t180.5 53.5q145 0 246 -101l-67 -82q-80 71 -176 71q-50 0 -80.5 -21.5t-30.5 -61.5q0 -43 34 -64.5t133 -54.5q107 -35 152 -80.5
t45 -127.5q0 -104 -70 -163.5t-188 -59.5q-163 0 -277 120z" />
    <glyph glyph-name="T" unicode="T" horiz-adv-x="613" 
d="M238 0v598h-216v122h569v-122h-215v-598h-138z" />
    <glyph glyph-name="U" unicode="U" horiz-adv-x="711" 
d="M70 720h138v-442q0 -84 39 -126t109 -42q76 0 111.5 41.5t35.5 126.5v442h138v-448q0 -140 -73.5 -212t-212.5 -72q-137 0 -211 70t-74 214v448z" />
    <glyph glyph-name="V" unicode="V" horiz-adv-x="646" 
d="M241 0l-227 720h145l164 -559l167 559h142l-230 -720h-161z" />
    <glyph glyph-name="W" unicode="W" horiz-adv-x="939" 
d="M198 0l-183 720h141l128 -541l123 541h126l125 -541l124 541h142l-183 -720h-147l-124 507l-122 -507h-150z" />
    <glyph glyph-name="X" unicode="X" horiz-adv-x="647" 
d="M16 0l223 367l-215 353h153l147 -249l150 249h157l-227 -363l222 -357h-158l-147 244l-144 -244h-161z" />
    <glyph glyph-name="Y" unicode="Y" horiz-adv-x="639" 
d="M246 0v287l-236 433h151l156 -296l157 296h155l-244 -433v-287h-139z" />
    <glyph glyph-name="Z" unicode="Z" horiz-adv-x="625" 
d="M36 0v88l347 510h-327v122h533v-55l-378 -544h377v-121h-552z" />
    <glyph glyph-name="bracketleft" unicode="[" horiz-adv-x="354" 
d="M302 -125h-227v845h227v-99h-102v-648h102v-98z" />
    <glyph glyph-name="backslash" unicode="\" horiz-adv-x="401" 
d="M143 739l240 -831h-107l-242 831h109z" />
    <glyph glyph-name="bracketright" unicode="]" horiz-adv-x="354" 
d="M279 -125h-227v98h102v648h-102v99h227v-845z" />
    <glyph glyph-name="asciicircum" unicode="^" horiz-adv-x="706" 
d="M392 693l228 -241l-63 -53l-204 206l-205 -207l-64 59l227 236h81z" />
    <glyph glyph-name="underscore" unicode="_" horiz-adv-x="485" 
d="M-3 -218v92h491v-92h-491z" />
    <glyph glyph-name="grave" unicode="`" horiz-adv-x="500" 
d="M214 788l156 -143l-59 -66l-166 126z" />
    <glyph glyph-name="a" unicode="a" horiz-adv-x="554" 
d="M358 203v14q-25 5 -63 5q-121 0 -121 -78q0 -59 72 -59q49 0 80.5 37t31.5 81zM491 346v-346h-106l-14 71q-57 -84 -166 -84q-74 0 -118.5 40t-44.5 115q0 71 57.5 119t183.5 48q42 0 75 -4v39q0 90 -90 90q-44 0 -78 -12t-78 -38l-45 80q96 76 215 76q209 0 209 -194z
" />
    <glyph glyph-name="b" unicode="b" horiz-adv-x="623" 
d="M200 360v-201q43 -61 115 -61q118 0 118 164q0 168 -114 168q-66 0 -119 -70zM172 0h-105v720h133v-253q63 73 159 73q98 0 156.5 -71t58.5 -203q0 -133 -57 -205.5t-175 -72.5q-100 0 -159 77z" />
    <glyph glyph-name="c" unicode="c" horiz-adv-x="554" 
d="M466 146l49 -84q-91 -75 -218 -75q-114 0 -182.5 73.5t-68.5 202.5q0 126 71.5 201.5t188.5 75.5q101 0 156.5 -54t58.5 -157h-111q-5 51 -32 77t-70 26q-57 0 -89.5 -42t-32.5 -122q0 -78 33 -124t97 -46t150 48z" />
    <glyph glyph-name="d" unicode="d" horiz-adv-x="620" 
d="M437 0l-7 68q-59 -81 -164 -81q-108 0 -162.5 72.5t-54.5 202.5q0 131 61.5 204.5t160.5 73.5q87 0 152 -70v250h132v-720h-118zM422 158v209q-50 60 -116 60q-55 0 -86 -41t-31 -122q0 -165 120 -165q63 0 113 59z" />
    <glyph glyph-name="e" unicode="e" horiz-adv-x="571" 
d="M472 142l43 -87q-92 -68 -214 -68q-120 0 -187.5 70.5t-67.5 202.5q0 128 69.5 204t186.5 76q111 0 169 -64.5t58 -191.5q0 -47 -2 -65h-341q10 -122 131 -122q69 0 155 45zM187 315h215q0 125 -99 125q-58 0 -86 -40.5t-30 -84.5z" />
    <glyph glyph-name="f" unicode="f" horiz-adv-x="329" 
d="M93 0v428h-66v79l66 15v55q0 73 36.5 114t111.5 41q49 0 88 -11l-7 -87q-24 7 -46 7q-50 0 -50 -59v-54h91v-100h-91v-428h-133z" />
    <glyph glyph-name="g" unicode="g" horiz-adv-x="625" 
d="M555 528v-499q0 -132 -58.5 -185.5t-189.5 -53.5q-104 0 -191 33l21 97q96 -26 160 -26q72 0 101 31t29 105v49q-61 -76 -162 -76q-104 0 -160 66.5t-56 191.5q0 128 58 203.5t167 75.5q93 0 162 -80l9 68h110zM422 170v195q-17 23 -49 42.5t-68 19.5q-116 0 -116 -158
q0 -156 118 -156q63 0 115 57z" />
    <glyph glyph-name="h" unicode="h" horiz-adv-x="590" 
d="M67 720h133v-256q69 76 163 76q79 0 121.5 -49t42.5 -138v-353h-133v320q0 52 -17.5 79.5t-66.5 27.5q-58 0 -110 -59v-368h-133v720z" />
    <glyph glyph-name="i" unicode="i" horiz-adv-x="278" 
d="M62 663q0 33 22.5 51t56.5 18q36 0 58 -18t22 -51q0 -32 -22 -49.5t-58 -17.5q-34 0 -56.5 18t-22.5 49zM205 528v-528h-132v528h132z" />
    <glyph glyph-name="j" unicode="j" horiz-adv-x="278" 
d="M205 528v-578q0 -76 -34 -115t-110 -39q-47 0 -91 14l10 93q26 -6 47 -6q25 0 35.5 12.5t10.5 47.5v571h132zM60 663q0 33 22.5 51t57.5 18q36 0 58 -18t22 -51q0 -32 -22 -49.5t-58 -17.5q-34 0 -57 18t-23 49z" />
    <glyph glyph-name="k" unicode="k" horiz-adv-x="567" 
d="M200 720v-374h65l116 182h146l-157 -234l181 -294h-155l-140 236h-56v-236h-133v720h133z" />
    <glyph glyph-name="l" unicode="l" horiz-adv-x="273" 
d="M203 0h-133v720h133v-720z" />
    <glyph glyph-name="m" unicode="m" horiz-adv-x="855" 
d="M67 528h111l11 -69q69 81 160 81q95 0 128 -79q75 79 168 79q147 0 147 -174v-366h-133v340q0 43 -14.5 64.5t-50.5 21.5q-47 0 -98 -54v-372h-132v336q0 45 -13 67.5t-49 22.5q-52 0 -102 -56v-370h-133v528z" />
    <glyph glyph-name="n" unicode="n" horiz-adv-x="590" 
d="M67 528h111l11 -70q71 82 171 82q82 0 124.5 -49t42.5 -137v-354h-133v314q0 59 -20.5 86t-62.5 27q-61 0 -111 -59v-368h-133v528z" />
    <glyph glyph-name="o" unicode="o" horiz-adv-x="617" 
d="M186 264q0 -85 33 -125t89 -40q57 0 90 40t33 125q0 84 -33.5 125t-89.5 41t-89 -42t-33 -124zM46 261q0 133 73.5 206t190.5 73q116 0 188.5 -72t72.5 -204q0 -131 -74.5 -204t-193.5 -73q-120 0 -188.5 71.5t-68.5 202.5z" />
    <glyph glyph-name="p" unicode="p" horiz-adv-x="623" 
d="M200 362v-206q17 -21 48.5 -39t69.5 -18q115 0 115 163q0 167 -112 167q-67 0 -121 -67zM200 -200h-133v728h110l14 -69q72 81 172 81q98 0 154.5 -70.5t56.5 -203.5q0 -131 -56.5 -204.5t-164.5 -73.5q-93 0 -153 65v-253z" />
    <glyph glyph-name="q" unicode="q" horiz-adv-x="621" 
d="M421 -200v253q-60 -65 -150 -65q-111 0 -166.5 72t-55.5 202q0 131 62.5 204.5t164.5 73.5q89 0 160 -76l17 64h102v-728h-134zM422 157v210q-50 60 -116 60q-55 0 -86 -41t-31 -122q0 -165 120 -165q64 0 113 58z" />
    <glyph glyph-name="r" unicode="r" horiz-adv-x="371" 
d="M173 528l12 -76q20 39 51 63.5t66 24.5q24 0 52 -11l-10 -121q-24 7 -50 7q-28 0 -53.5 -20t-40.5 -45v-350h-133v528h106z" />
    <glyph glyph-name="s" unicode="s" horiz-adv-x="520" 
d="M31 79l59 80q89 -68 167 -68q35 0 54.5 14.5t19.5 39.5q0 27 -20.5 42t-84.5 31q-87 22 -124.5 58.5t-37.5 100.5q0 76 54.5 119.5t145.5 43.5q122 0 210 -80l-59 -77q-78 56 -145 56q-73 0 -73 -47q0 -27 23.5 -40t91.5 -33q88 -25 125.5 -59t37.5 -98q0 -83 -57 -129
t-154 -46q-137 0 -233 92z" />
    <glyph glyph-name="t" unicode="t" horiz-adv-x="355" 
d="M322 428h-95v-296q0 -43 34 -43q35 0 62 9l13 -91q-58 -20 -124 -20q-117 0 -117 118v323h-69v77l71 22l14 152h116v-151h95v-100z" />
    <glyph glyph-name="u" unicode="u" horiz-adv-x="585" 
d="M518 0h-109l-11 69q-72 -82 -167 -82q-168 0 -168 183v358h133v-326q0 -52 18 -77.5t61 -25.5q61 0 110 57v372h133v-528z" />
    <glyph glyph-name="v" unicode="v" horiz-adv-x="537" 
d="M16 528h139l116 -399l116 399h134l-174 -528h-155z" />
    <glyph glyph-name="w" unicode="w" horiz-adv-x="786" 
d="M632 528h132l-139 -528h-144l-90 345l-87 -345h-144l-138 528h132l84 -377l91 377h125l101 -377z" />
    <glyph glyph-name="x" unicode="x" horiz-adv-x="546" 
d="M15 0l178 265l-173 263h144l109 -177l110 177h141l-171 -263l177 -265h-143l-114 179l-115 -179h-143z" />
    <glyph glyph-name="y" unicode="y" horiz-adv-x="531" 
d="M382 528h133l-178 -507l-21.5 -61t-19.5 -49t-22.5 -43t-25.5 -30t-33 -24t-40.5 -11.5t-53.5 -5.5q-44 0 -89 12l10 94q37 -7 67 -7q32 0 51.5 14.5t34.5 59.5l5 15l-184 543h139l109 -390z" />
    <glyph glyph-name="z" unicode="z" horiz-adv-x="476" 
d="M41 0v83l229 344h-224v101h394v-59l-242 -369h241v-100h-398z" />
    <glyph glyph-name="braceleft" unicode="{" horiz-adv-x="402" 
d="M370 627h-37q-38 0 -51.5 -25t-13.5 -84v-119q0 -46 -18 -74t-63 -40q52 -10 66.5 -42t14.5 -100v-90q0 -48 13 -66.5t55 -18.5h34v-93h-46q-105 0 -143.5 34t-38.5 124v117q0 47 -15 67.5t-53 20.5h-39v93h34q45 0 59 24.5t14 91.5v83q0 105 41 147.5t146 42.5h41v-93z
" />
    <glyph glyph-name="bar" unicode="|" horiz-adv-x="500" 
d="M306 720v-920h-113v920h113z" />
    <glyph glyph-name="braceright" unicode="}" horiz-adv-x="402" 
d="M69 627h-37v93h41q105 0 146 -42.5t41 -147.5v-83q0 -67 14 -91.5t59 -24.5h34v-93h-39q-38 0 -53 -20.5t-15 -67.5v-117q0 -90 -38.5 -124t-143.5 -34h-46v93h34q42 0 55 18.5t13 66.5v90q0 68 14.5 100t66.5 42q-45 12 -63 40t-18 74v119q0 59 -13.5 84t-51.5 25z" />
    <glyph glyph-name="asciitilde" unicode="~" horiz-adv-x="780" 
d="M675 385l55 -96q-99 -77 -206 -77q-47 0 -134 30.5t-124 30.5q-62 0 -158 -59l-53 95q111 77 206 77q45 0 131.5 -30t124.5 -30q68 0 158 59z" />
    <glyph glyph-name="uni00A0" unicode="&#xa0;" horiz-adv-x="205" 
 />
    <glyph glyph-name="exclamdown" unicode="&#xa1;" horiz-adv-x="319" 
d="M94 43l12 270h110l13 -270v-237h-135v237zM83 469q0 31 20 50.5t56 19.5q35 0 56 -20t21 -53q0 -32 -21 -51.5t-56 -19.5q-36 0 -56 20t-20 54z" />
    <glyph glyph-name="cent" unicode="&#xa2;" horiz-adv-x="545" 
d="M479 235l38 -82q-69 -56 -152 -70v-101h-109v99q-95 15 -150.5 85.5t-55.5 185.5q0 111 56 182.5t151 86.5v98h108v-100q74 -14 115.5 -66t44.5 -137h-111q-9 101 -102 101q-58 0 -90 -40.5t-32 -120.5q0 -78 35 -125t99 -47q73 0 155 51z" />
    <glyph glyph-name="sterling" unicode="&#xa3;" horiz-adv-x="530" 
d="M278 228q0 -62 -53 -123h267v-105h-452v95l54 7q59 63 59 126q0 36 -22 88h-90v86h58q-38 74 -38 130q0 82 63 135t158 53q133 0 213 -89l-54 -74q-69 59 -141 59q-48 0 -76.5 -25.5t-28.5 -68.5t37 -120h155v-86h-129q20 -51 20 -88z" />
    <glyph glyph-name="currency" unicode="&#xa4;" horiz-adv-x="577" 
d="M401 337q0 49 -32.5 80.5t-80.5 31.5q-47 0 -80.5 -32t-33.5 -80q0 -50 32.5 -82t81.5 -32q48 0 80.5 33t32.5 81zM36 530l56 60l88 -91q50 33 108 33q59 0 105 -32l89 88l58 -58l-90 -90q35 -46 35 -103q0 -58 -34 -107l90 -88l-59 -58l-89 89q-49 -32 -105 -32
q-57 0 -107 32q-13 -12 -42.5 -42.5t-46.5 -46.5l-56 58l88 89q-33 48 -33 106q0 55 33 103z" />
    <glyph glyph-name="yen" unicode="&#xa5;" horiz-adv-x="592" 
d="M573 710l-184 -329h147v-85h-181v-66h181v-85h-181v-145h-123v145h-180v85h180v66h-180v85h146l-179 329h139l138 -276l143 276h134z" />
    <glyph glyph-name="brokenbar" unicode="&#xa6;" horiz-adv-x="500" 
d="M306 214v-414h-113v414h113zM306 720v-415h-113v415h113z" />
    <glyph glyph-name="section" unicode="&#xa7;" horiz-adv-x="524" 
d="M63 72l49 68q79 -58 156 -58q70 0 70 47q0 23 -27.5 39t-66.5 27.5t-78 26.5t-66.5 45t-27.5 74q0 45 27.5 77.5t76.5 46.5q-96 36 -96 118q0 67 49.5 108t132.5 41q131 0 204 -70l-49 -66q-70 48 -137 48q-33 0 -56 -13.5t-23 -39.5t19.5 -41t72.5 -33
q100 -35 136 -65.5t36 -82.5q0 -85 -99 -115q96 -43 96 -121q0 -67 -52 -106.5t-133 -39.5q-60 0 -118 22.5t-96 62.5zM248 427q-61 -18 -61 -60q0 -47 103 -76q59 26 59 64q0 46 -101 72z" />
    <glyph glyph-name="dieresis" unicode="&#xa8;" horiz-adv-x="500" 
d="M81 656q0 27 18.5 44.5t50.5 17.5q34 0 52 -17.5t18 -44.5t-19.5 -44t-50.5 -17q-33 0 -51 16.5t-18 44.5zM285 656q0 27 18.5 44.5t50.5 17.5q34 0 52 -17.5t18 -44.5t-19.5 -44t-50.5 -17q-33 0 -51 16.5t-18 44.5z" />
    <glyph glyph-name="copyright" unicode="&#xa9;" horiz-adv-x="810" 
d="M523 274l34 -47q-63 -63 -149 -63q-85 0 -128.5 53t-43.5 144q0 89 45.5 144t128.5 55q64 0 104 -34t41 -103h-69q-3 37 -20.5 56t-57.5 19q-47 0 -73 -36.5t-26 -99.5q0 -133 102 -133q56 0 112 45zM405 663q-129 0 -213.5 -85.5t-84.5 -217.5q0 -143 84.5 -223
t213.5 -80q121 0 211 88t90 215q0 135 -84 219t-217 84zM405 720q162 0 261 -98.5t99 -257.5q0 -156 -106 -260t-254 -104q-153 0 -256.5 95t-103.5 265q0 156 104 258t256 102z" />
    <glyph glyph-name="ordfeminine" unicode="&#xaa;" horiz-adv-x="483" 
d="M309 408v21q-28 4 -53 4q-103 0 -103 -60q0 -23 17.5 -36.5t46.5 -13.5q38 0 65 25.5t27 59.5zM405 517v-253h-82l-8 60q-17 -31 -51.5 -50.5t-73.5 -19.5q-58 0 -94.5 29.5t-36.5 83.5t42.5 88t136.5 34q31 0 71 -5v32q0 69 -80 69q-65 0 -124 -36l-26 62q74 48 157 48
q169 0 169 -142z" />
    <glyph glyph-name="guillemotleft" unicode="&#xab;" horiz-adv-x="483" 
d="M247 374l-97 -114l97 -112l-55 -50l-159 142v41l159 145zM457 374l-97 -114l97 -112l-55 -50l-159 142v41l159 145z" />
    <glyph glyph-name="logicalnot" unicode="&#xac;" 
d="M569 123h-87v191h-450v82h537v-273z" />
    <glyph glyph-name="uni00AD" unicode="&#xad;" horiz-adv-x="328" 
d="M30 225v105h268v-105h-268z" />
    <glyph glyph-name="registered" unicode="&#xae;" horiz-adv-x="422" 
d="M145 637h69q33 0 50 -16t17 -42q0 -34 -30 -49l41 -71h-41l-34 62q-5 -1 -17 -1h-20v-61h-35v178zM207 607h-27v-57h25q38 0 38 27q0 30 -36 30zM211 691q-61 0 -102 -40.5t-41 -103.5q0 -69 39 -107t104 -38q58 0 99.5 42t41.5 102q0 66 -39 105.5t-102 39.5zM212 728
q80 0 131 -50t51 -132q0 -77 -54 -129.5t-129 -52.5q-82 0 -132.5 48t-50.5 134q0 80 53 131t131 51z" />
    <glyph glyph-name="macron" unicode="&#xaf;" horiz-adv-x="500" 
d="M109 608v89h283v-89h-283z" />
    <glyph glyph-name="degree" unicode="&#xb0;" horiz-adv-x="323" 
d="M100 665q0 -30 17 -49t46 -19q27 0 44.5 19.5t17.5 48.5t-17 47.5t-45 18.5q-29 0 -46 -18t-17 -48zM40 664q0 51 36 86t87 35q50 0 85 -35t35 -86t-35 -85.5t-85 -34.5q-53 0 -88 34t-35 86z" />
    <glyph glyph-name="plusminus" unicode="&#xb1;" 
d="M560 84v-84h-520v84h216v170h-217v82h217v174h87v-174h217v-82h-217v-170h217z" />
    <glyph glyph-name="twosuperior" unicode="&#xb2;" horiz-adv-x="338" 
d="M27 400v62l125 122q20 19 27 27t15 21.5t8 26.5q0 36 -51 36q-43 0 -98 -39l-39 58q74 67 168 67q57 0 92.5 -28.5t35.5 -77.5q0 -58 -62 -113l-91 -81h154v-81h-284z" />
    <glyph glyph-name="threesuperior" unicode="&#xb3;" horiz-adv-x="342" 
d="M7 444l36 60q57 -35 105 -35q65 0 65 44q0 41 -72 41q-18 0 -39 -3v75q92 2 92 47q0 34 -53 34q-39 0 -89 -24l-25 58q65 40 144 40q61 0 94 -24t33 -70q0 -32 -20.5 -56t-55.5 -34q95 -9 95 -91q0 -55 -42.5 -84t-112.5 -29q-96 0 -155 51z" />
    <glyph glyph-name="acute" unicode="&#xb4;" horiz-adv-x="500" 
d="M132 645l156 143l69 -83l-166 -126z" />
    <glyph glyph-name="mu" unicode="&#xb5;" horiz-adv-x="588" 
d="M516 0h-117v64q-39 -71 -118 -71q-53 0 -87 37v-230h-132v728h132v-330q0 -106 89 -106q64 0 101 64v372h132v-528z" />
    <glyph glyph-name="paragraph" unicode="&#xb6;" horiz-adv-x="555" 
d="M482 720v-720h-89v650h-79v-650h-89v351q-87 8 -136.5 55.5t-49.5 126.5q0 83 58.5 135t154.5 52h230z" />
    <glyph glyph-name="periodcentered" unicode="&#xb7;" horiz-adv-x="299" 
d="M78 334q0 35 20 54.5t56 19.5q35 0 56.5 -19.5t21.5 -51.5t-21.5 -52t-56.5 -20q-36 0 -56 19.5t-20 49.5z" />
    <glyph glyph-name="cedilla" unicode="&#xb8;" horiz-adv-x="500" 
d="M156 -205l15 57q28 -10 57 -10q41 0 41 30q0 31 -59 31h-18l23 105h64l-12 -60q18 -2 30.5 -5.5t27 -11.5t22 -23t7.5 -37q0 -45 -30.5 -68.5t-80.5 -23.5q-52 0 -87 16z" />
    <glyph glyph-name="onesuperior" unicode="&#xb9;" horiz-adv-x="289" 
d="M232 400h-107v250q-47 -9 -91 -3l-8 64q79 18 123 63h83v-374z" />
    <glyph glyph-name="ordmasculine" unicode="&#xba;" horiz-adv-x="497" 
d="M154 455q0 -124 95 -124q43 0 69 30.5t26 93.5q0 64 -26 95.5t-69 31.5q-44 0 -69.5 -31t-25.5 -96zM53 457q0 96 55 149t141 53q85 0 140 -53t55 -149q0 -95 -55.5 -148.5t-139.5 -53.5q-90 0 -143 52.5t-53 149.5z" />
    <glyph glyph-name="guillemotright" unicode="&#xbb;" horiz-adv-x="485" 
d="M123 260l-97 114l55 52l159 -145v-41l-159 -142l-55 50zM335 260l-97 114l55 52l159 -145v-41l-159 -142l-55 50z" />
    <glyph glyph-name="onequarter" unicode="&#xbc;" horiz-adv-x="885" 
d="M147 0l441 720h103l-439 -720h-105zM254 350h-107v250q-47 -9 -91 -3l-8 64q79 18 123 63h83v-374zM677 302l-106 -159h106v159zM677 0v64h-192v78l159 232h131v-231h40v-79h-40v-64h-98z" />
    <glyph glyph-name="onehalf" unicode="&#xbd;" horiz-adv-x="885" 
d="M113 0l441 720h103l-439 -720h-105zM249 350h-107v250q-47 -9 -91 -3l-8 64q79 18 123 63h83v-374zM504 0v62l125 122q20 19 27 27t15 21.5t8 26.5q0 36 -51 36q-43 0 -98 -39l-39 58q74 67 168 67q57 0 92.5 -28.5t35.5 -77.5q0 -58 -62 -113l-91 -81h154v-81h-284z" />
    <glyph glyph-name="threequarters" unicode="&#xbe;" horiz-adv-x="885" 
d="M195 0l441 720h103l-439 -720h-105zM696 302l-106 -159h106v159zM696 0v64h-192v78l159 232h131v-231h40v-79h-40v-64h-98zM66 394l36 60q57 -35 105 -35q65 0 65 44q0 41 -72 41q-18 0 -39 -3v75q92 2 92 47q0 34 -53 34q-39 0 -89 -24l-25 58q65 40 144 40q61 0 94 -24
t33 -70q0 -32 -20.5 -56t-55.5 -34q95 -9 95 -91q0 -55 -42.5 -84t-112.5 -29q-96 0 -155 51z" />
    <glyph glyph-name="questiondown" unicode="&#xbf;" horiz-adv-x="547" 
d="M336 314v-33q0 -39 -16 -73.5t-39 -59.5l-45.5 -48t-38.5 -50t-16 -55q0 -43 25.5 -65t69.5 -22q48 0 78 29.5t30 84.5h123q0 -113 -65 -170t-174 -57q-94 0 -157.5 48.5t-63.5 138.5q0 42 17.5 79t42.5 64l50 52.5t42.5 55.5t17.5 61v20h119zM354 470q0 -34 -20.5 -54
t-56.5 -20q-34 0 -55.5 19.5t-21.5 51.5t21.5 52.5t55.5 20.5q36 0 56.5 -19.5t20.5 -50.5z" />
    <glyph glyph-name="Agrave" unicode="&#xc0;" horiz-adv-x="690" 
d="M275 720h139l259 -720h-148l-53 163h-254l-53 -163h-149zM255 279h179l-90 283zM283 934l178 -107l-45 -77l-187 87z" />
    <glyph glyph-name="Aacute" unicode="&#xc1;" horiz-adv-x="690" 
d="M275 720h139l259 -720h-148l-53 163h-254l-53 -163h-149zM255 279h179l-90 283zM221 827l178 107l54 -97l-187 -87z" />
    <glyph glyph-name="Acircumflex" unicode="&#xc2;" horiz-adv-x="690" 
d="M275 720h139l259 -720h-148l-53 163h-254l-53 -163h-149zM255 279h179l-90 283zM302 923h79l109 -113l-58 -49l-88 66l-87 -66l-60 50z" />
    <glyph glyph-name="Atilde" unicode="&#xc3;" horiz-adv-x="690" 
d="M275 720h139l259 -720h-148l-53 163h-254l-53 -163h-149zM255 279h179l-90 283zM442 900l62 -23q-21 -100 -94 -100q-25 0 -70 16.5t-56 16.5q-13 0 -22 -8t-19 -29l-63 24q32 100 93 100q26 0 69.5 -17t59.5 -17q14 0 22 7t18 30z" />
    <glyph glyph-name="Adieresis" unicode="&#xc4;" horiz-adv-x="690" 
d="M275 720h139l259 -720h-148l-53 163h-254l-53 -163h-149zM255 279h179l-90 283zM171 833q0 27 18.5 44.5t50.5 17.5q34 0 52 -17.5t18 -44.5t-19.5 -44t-50.5 -17q-33 0 -51 16.5t-18 44.5zM375 833q0 27 18.5 44.5t50.5 17.5q34 0 52 -17.5t18 -44.5t-19.5 -44
t-50.5 -17q-33 0 -51 16.5t-18 44.5z" />
    <glyph glyph-name="Aring" unicode="&#xc5;" horiz-adv-x="690" 
d="M235 797q0 47 31.5 76t79.5 29q46 0 77 -27.5t31 -73.5q0 -52 -40 -82l259 -719h-148l-53 163h-254l-53 -163h-149l258 717q-39 27 -39 80zM255 279h179l-90 283zM300 799q0 -42 46 -42q43 0 43 44q0 43 -43 43q-46 0 -46 -45z" />
    <glyph glyph-name="AE" unicode="&#xc6;" horiz-adv-x="1013" 
d="M480 0v183h-215l-93 -183h-156l366 720h577v-122h-341v-173h310v-122h-310v-182h347v-121h-485zM308 296h172v307h-17z" />
    <glyph glyph-name="Ccedilla" unicode="&#xc7;" horiz-adv-x="680" 
d="M279 -210l15 57q28 -10 57 -10q41 0 41 30q0 31 -59 31h-18l20 90q-140 11 -212.5 112t-72.5 260q0 165 84.5 268.5t239.5 103.5q117 0 192.5 -65t81.5 -188h-139q-4 55 -35.5 91.5t-98.5 36.5q-83 0 -130 -64.5t-47 -181.5q0 -122 48.5 -185.5t135.5 -63.5q106 0 201 83
l63 -93q-110 -104 -247 -114l-9 -45q18 -2 30.5 -5.5t27 -11.5t22 -23t7.5 -37q0 -45 -30.5 -68.5t-80.5 -23.5q-52 0 -87 16z" />
    <glyph glyph-name="Egrave" unicode="&#xc8;" horiz-adv-x="606" 
d="M73 0v720h479v-122h-341v-173h310v-122h-310v-182h347v-121h-485zM234 935l178 -107l-45 -77l-187 87z" />
    <glyph glyph-name="Eacute" unicode="&#xc9;" horiz-adv-x="606" 
d="M73 0v720h479v-122h-341v-173h310v-122h-310v-182h347v-121h-485zM197 828l178 107l54 -97l-187 -87z" />
    <glyph glyph-name="Ecircumflex" unicode="&#xca;" horiz-adv-x="606" 
d="M73 0v720h479v-122h-341v-173h310v-122h-310v-182h347v-121h-485zM274 924h79l109 -113l-58 -49l-88 66l-87 -66l-60 50z" />
    <glyph glyph-name="Edieresis" unicode="&#xcb;" horiz-adv-x="606" 
d="M73 0v720h479v-122h-341v-173h310v-122h-310v-182h347v-121h-485zM142 834q0 27 18.5 44.5t50.5 17.5q34 0 52 -17.5t18 -44.5t-19.5 -44t-50.5 -17q-33 0 -51 16.5t-18 44.5zM346 834q0 27 18.5 44.5t50.5 17.5q34 0 52 -17.5t18 -44.5t-19.5 -44t-50.5 -17
q-33 0 -51 16.5t-18 44.5z" />
    <glyph glyph-name="Igrave" unicode="&#xcc;" horiz-adv-x="288" 
d="M75 0v720h138v-720h-138zM77 934l178 -107l-45 -77l-187 87z" />
    <glyph glyph-name="Iacute" unicode="&#xcd;" horiz-adv-x="288" 
d="M75 0v720h138v-720h-138zM15 827l178 107l54 -97l-187 -87z" />
    <glyph glyph-name="Icircumflex" unicode="&#xce;" horiz-adv-x="288" 
d="M75 0v720h138v-720h-138zM98 923h79l109 -113l-58 -49l-88 66l-87 -66l-60 50z" />
    <glyph glyph-name="Idieresis" unicode="&#xcf;" horiz-adv-x="288" 
d="M75 0v720h138v-720h-138zM-32 833q0 27 18.5 44.5t50.5 17.5q34 0 52 -17.5t18 -44.5t-19.5 -44t-50.5 -17q-33 0 -51 16.5t-18 44.5zM172 833q0 27 18.5 44.5t50.5 17.5q34 0 52 -17.5t18 -44.5t-19.5 -44t-50.5 -17q-33 0 -51 16.5t-18 44.5z" />
    <glyph glyph-name="Eth" unicode="&#xd0;" horiz-adv-x="719" 
d="M5 306v111h74v303h235q177 0 269 -94t92 -268q0 -185 -94 -271.5t-287 -86.5h-215v306h-74zM319 594h-101v-177h162v-111h-162v-180h101q109 0 159.5 56.5t50.5 175.5q0 118 -51 177t-159 59z" />
    <glyph glyph-name="Ntilde" unicode="&#xd1;" horiz-adv-x="725" 
d="M73 0v720h122l320 -487v487h137v-720h-121l-322 481v-481h-136zM468 900l62 -23q-21 -100 -94 -100q-25 0 -70 16.5t-56 16.5q-13 0 -22 -8t-19 -29l-63 24q32 100 93 100q26 0 69.5 -17t59.5 -17q14 0 22 7t18 30z" />
    <glyph glyph-name="Ograve" unicode="&#xd2;" horiz-adv-x="774" 
d="M195 364q0 -120 52 -185.5t146 -65.5q95 0 146.5 65t51.5 186q0 112 -52.5 177t-144.5 65q-94 0 -146.5 -65.5t-52.5 -176.5zM50 364q0 172 93.5 270t249.5 98q157 0 250 -98t93 -270q0 -181 -92.5 -279t-250.5 -98t-250.5 98.5t-92.5 278.5zM328 934l178 -107l-45 -77
l-187 87z" />
    <glyph glyph-name="Oacute" unicode="&#xd3;" horiz-adv-x="774" 
d="M195 364q0 -120 52 -185.5t146 -65.5q95 0 146.5 65t51.5 186q0 112 -52.5 177t-144.5 65q-94 0 -146.5 -65.5t-52.5 -176.5zM50 364q0 172 93.5 270t249.5 98q157 0 250 -98t93 -270q0 -181 -92.5 -279t-250.5 -98t-250.5 98.5t-92.5 278.5zM266 827l178 107l54 -97
l-187 -87z" />
    <glyph glyph-name="Ocircumflex" unicode="&#xd4;" horiz-adv-x="774" 
d="M195 364q0 -120 52 -185.5t146 -65.5q95 0 146.5 65t51.5 186q0 112 -52.5 177t-144.5 65q-94 0 -146.5 -65.5t-52.5 -176.5zM50 364q0 172 93.5 270t249.5 98q157 0 250 -98t93 -270q0 -181 -92.5 -279t-250.5 -98t-250.5 98.5t-92.5 278.5zM350 923h79l109 -113
l-58 -49l-88 66l-87 -66l-60 50z" />
    <glyph glyph-name="Otilde" unicode="&#xd5;" horiz-adv-x="774" 
d="M195 364q0 -120 52 -185.5t146 -65.5q95 0 146.5 65t51.5 186q0 112 -52.5 177t-144.5 65q-94 0 -146.5 -65.5t-52.5 -176.5zM50 364q0 172 93.5 270t249.5 98q157 0 250 -98t93 -270q0 -181 -92.5 -279t-250.5 -98t-250.5 98.5t-92.5 278.5zM497 900l62 -23
q-21 -100 -94 -100q-25 0 -70 16.5t-56 16.5q-13 0 -22 -8t-19 -29l-63 24q32 100 93 100q26 0 69.5 -17t59.5 -17q14 0 22 7t18 30z" />
    <glyph glyph-name="Odieresis" unicode="&#xd6;" horiz-adv-x="774" 
d="M195 364q0 -120 52 -185.5t146 -65.5q95 0 146.5 65t51.5 186q0 112 -52.5 177t-144.5 65q-94 0 -146.5 -65.5t-52.5 -176.5zM50 364q0 172 93.5 270t249.5 98q157 0 250 -98t93 -270q0 -181 -92.5 -279t-250.5 -98t-250.5 98.5t-92.5 278.5zM219 833q0 27 18.5 44.5
t50.5 17.5q34 0 52 -17.5t18 -44.5t-19.5 -44t-50.5 -17q-33 0 -51 16.5t-18 44.5zM423 833q0 27 18.5 44.5t50.5 17.5q34 0 52 -17.5t18 -44.5t-19.5 -44t-50.5 -17q-33 0 -51 16.5t-18 44.5z" />
    <glyph glyph-name="multiply" unicode="&#xd7;" 
d="M517 444l-155 -154l155 -155l-61 -61l-155 156l-154 -156l-64 64l155 155l-155 154l61 61l154 -155l155 155z" />
    <glyph glyph-name="Oslash" unicode="&#xd8;" horiz-adv-x="774" 
d="M50 364q0 172 93.5 270t249.5 98q23 0 46 -3l18 58h118l-26 -86q89 -40 138 -127t49 -210q0 -181 -92.5 -279t-250.5 -98q-21 0 -61 4l-21 -71h-117l31 103q-83 42 -129 129t-46 212zM591 364q0 143 -82 206l-139 -456q7 -1 23 -1q95 0 146.5 65t51.5 186zM195 364
q0 -143 71 -206l136 448h-8q-94 0 -146.5 -65.5t-52.5 -176.5z" />
    <glyph glyph-name="Ugrave" unicode="&#xd9;" horiz-adv-x="711" 
d="M70 720h138v-442q0 -84 39 -126t109 -42q76 0 111.5 41.5t35.5 126.5v442h138v-448q0 -140 -73.5 -212t-212.5 -72q-137 0 -211 70t-74 214v448zM289 934l178 -107l-45 -77l-187 87z" />
    <glyph glyph-name="Uacute" unicode="&#xda;" horiz-adv-x="711" 
d="M70 720h138v-442q0 -84 39 -126t109 -42q76 0 111.5 41.5t35.5 126.5v442h138v-448q0 -140 -73.5 -212t-212.5 -72q-137 0 -211 70t-74 214v448zM253 827l178 107l54 -97l-187 -87z" />
    <glyph glyph-name="Ucircumflex" unicode="&#xdb;" horiz-adv-x="711" 
d="M70 720h138v-442q0 -84 39 -126t109 -42q76 0 111.5 41.5t35.5 126.5v442h138v-448q0 -140 -73.5 -212t-212.5 -72q-137 0 -211 70t-74 214v448zM322 923h79l109 -113l-58 -49l-88 66l-87 -66l-60 50z" />
    <glyph glyph-name="Udieresis" unicode="&#xdc;" horiz-adv-x="711" 
d="M70 720h138v-442q0 -84 39 -126t109 -42q76 0 111.5 41.5t35.5 126.5v442h138v-448q0 -140 -73.5 -212t-212.5 -72q-137 0 -211 70t-74 214v448zM193 833q0 27 18.5 44.5t50.5 17.5q34 0 52 -17.5t18 -44.5t-19.5 -44t-50.5 -17q-33 0 -51 16.5t-18 44.5zM397 833
q0 27 18.5 44.5t50.5 17.5q34 0 52 -17.5t18 -44.5t-19.5 -44t-50.5 -17q-33 0 -51 16.5t-18 44.5z" />
    <glyph glyph-name="Yacute" unicode="&#xdd;" horiz-adv-x="639" 
d="M246 0v287l-236 433h151l156 -296l157 296h155l-244 -433v-287h-139zM225 827l178 107l54 -97l-187 -87z" />
    <glyph glyph-name="Thorn" unicode="&#xde;" horiz-adv-x="618" 
d="M60 0v720h139v-104h122q118 0 185.5 -55.5t67.5 -171.5q0 -121 -70 -181.5t-193 -60.5h-112v-147h-139zM310 496h-111v-236h105q135 0 135 119q0 117 -129 117z" />
    <glyph glyph-name="germandbls" unicode="&#xdf;" horiz-adv-x="622" 
d="M93 0v430h-69v78l69 13v19q0 102 66 147.5t165 45.5q102 0 157 -46.5t55 -138.5q0 -65 -35 -110.5t-95 -59.5q176 -31 176 -192q0 -93 -55.5 -145.5t-142.5 -52.5q-78 0 -129 40l27 88q32 -20 78 -20q40 0 65.5 26t25.5 76q0 59 -41 88.5t-120 36.5v100q119 10 119 114
q0 99 -93 99q-47 0 -69 -27t-22 -84v-525h-132z" />
    <glyph glyph-name="agrave" unicode="&#xe0;" horiz-adv-x="554" 
d="M358 203v14q-25 5 -63 5q-121 0 -121 -78q0 -59 72 -59q49 0 80.5 37t31.5 81zM491 346v-346h-106l-14 71q-57 -84 -166 -84q-74 0 -118.5 40t-44.5 115q0 71 57.5 119t183.5 48q42 0 75 -4v39q0 90 -90 90q-44 0 -78 -12t-78 -38l-45 80q96 76 215 76q209 0 209 -194z
M215 788l156 -143l-59 -66l-166 126z" />
    <glyph glyph-name="aacute" unicode="&#xe1;" horiz-adv-x="554" 
d="M358 203v14q-25 5 -63 5q-121 0 -121 -78q0 -59 72 -59q49 0 80.5 37t31.5 81zM491 346v-346h-106l-14 71q-57 -84 -166 -84q-74 0 -118.5 40t-44.5 115q0 71 57.5 119t183.5 48q42 0 75 -4v39q0 90 -90 90q-44 0 -78 -12t-78 -38l-45 80q96 76 215 76q209 0 209 -194z
M168 645l156 143l69 -83l-166 -126z" />
    <glyph glyph-name="acircumflex" unicode="&#xe2;" horiz-adv-x="554" 
d="M358 203v14q-25 5 -63 5q-121 0 -121 -78q0 -59 72 -59q49 0 80.5 37t31.5 81zM491 346v-346h-106l-14 71q-57 -84 -166 -84q-74 0 -118.5 40t-44.5 115q0 71 57.5 119t183.5 48q42 0 75 -4v39q0 90 -90 90q-44 0 -78 -12t-78 -38l-45 80q96 76 215 76q209 0 209 -194z
M232 761h79l111 -144l-58 -41l-91 89l-91 -89l-61 40z" />
    <glyph glyph-name="atilde" unicode="&#xe3;" horiz-adv-x="554" 
d="M358 203v14q-25 5 -63 5q-121 0 -121 -78q0 -59 72 -59q49 0 80.5 37t31.5 81zM491 346v-346h-106l-14 71q-57 -84 -166 -84q-74 0 -118.5 40t-44.5 115q0 71 57.5 119t183.5 48q42 0 75 -4v39q0 90 -90 90q-44 0 -78 -12t-78 -38l-45 80q96 76 215 76q209 0 209 -194z
M369 717l62 -23q-21 -100 -94 -100q-25 0 -70 16.5t-56 16.5q-13 0 -22 -8t-19 -29l-63 24q32 100 93 100q26 0 69.5 -17t59.5 -17q14 0 22 7t18 30z" />
    <glyph glyph-name="adieresis" unicode="&#xe4;" horiz-adv-x="554" 
d="M358 203v14q-25 5 -63 5q-121 0 -121 -78q0 -59 72 -59q49 0 80.5 37t31.5 81zM491 346v-346h-106l-14 71q-57 -84 -166 -84q-74 0 -118.5 40t-44.5 115q0 71 57.5 119t183.5 48q42 0 75 -4v39q0 90 -90 90q-44 0 -78 -12t-78 -38l-45 80q96 76 215 76q209 0 209 -194z
M101 656q0 27 18.5 44.5t50.5 17.5q34 0 52 -17.5t18 -44.5t-19.5 -44t-50.5 -17q-33 0 -51 16.5t-18 44.5zM305 656q0 27 18.5 44.5t50.5 17.5q34 0 52 -17.5t18 -44.5t-19.5 -44t-50.5 -17q-33 0 -51 16.5t-18 44.5z" />
    <glyph glyph-name="aring" unicode="&#xe5;" horiz-adv-x="554" 
d="M358 203v14q-25 5 -63 5q-121 0 -121 -78q0 -59 72 -59q49 0 80.5 37t31.5 81zM491 346v-346h-106l-14 71q-57 -84 -166 -84q-74 0 -118.5 40t-44.5 115q0 71 57.5 119t183.5 48q42 0 75 -4v39q0 90 -90 90q-44 0 -78 -12t-78 -38l-45 80q96 76 215 76q209 0 209 -194z
M226 668q0 -39 42 -39q40 0 40 41q0 39 -40 39q-42 0 -42 -41zM166 666q0 44 29 70.5t73 26.5q43 0 71.5 -25.5t28.5 -67.5q0 -43 -28.5 -69t-71.5 -26q-46 0 -74 24t-28 67z" />
    <glyph glyph-name="ae" unicode="&#xe6;" horiz-adv-x="883" 
d="M784 142l43 -87q-92 -68 -214 -68q-128 0 -194 77q-72 -77 -189 -77q-88 0 -138 40t-50 118q0 72 54 119t172 47q45 0 90 -7v40q0 94 -96 94q-82 0 -159 -47l-36 83q43 30 100 48t111 18q59 0 97.5 -17.5t64.5 -61.5q60 79 184 79q104 0 160.5 -64t56.5 -190
q0 -46 -2 -64h-341q10 -125 131 -125q69 0 155 45zM499 309h215q0 131 -99 131q-59 0 -87.5 -42.5t-28.5 -88.5zM250 86q39 0 72.5 17t52.5 40q-13 31 -15 74q-24 6 -56 6q-129 0 -129 -73q0 -64 75 -64z" />
    <glyph glyph-name="ccedilla" unicode="&#xe7;" horiz-adv-x="554" 
d="M201 -205l15 57q28 -10 57 -10q41 0 41 30q0 31 -59 31h-18l19 87q-97 12 -153.5 84t-56.5 189q0 126 71.5 201.5t188.5 75.5q101 0 156.5 -54t58.5 -157h-111q-5 51 -32 77t-70 26q-57 0 -89.5 -42t-32.5 -122q0 -78 33 -124t97 -46t150 48l49 -84q-80 -67 -195 -74
l-8 -40q18 -2 30.5 -5.5t27 -11.5t22 -23t7.5 -37q0 -45 -30.5 -68.5t-80.5 -23.5q-52 0 -87 16z" />
    <glyph glyph-name="egrave" unicode="&#xe8;" horiz-adv-x="549" 
d="M472 142l43 -87q-92 -68 -214 -68q-120 0 -187.5 70.5t-67.5 202.5q0 128 69.5 204t186.5 76q111 0 169 -64.5t58 -191.5q0 -47 -2 -65h-341q10 -122 131 -122q69 0 155 45zM187 315h215q0 125 -99 125q-58 0 -86 -40.5t-30 -84.5zM233 788l156 -143l-59 -66l-166 126z
" />
    <glyph glyph-name="eacute" unicode="&#xe9;" horiz-adv-x="549" 
d="M472 142l43 -87q-92 -68 -214 -68q-120 0 -187.5 70.5t-67.5 202.5q0 128 69.5 204t186.5 76q111 0 169 -64.5t58 -191.5q0 -47 -2 -65h-341q10 -122 131 -122q69 0 155 45zM187 315h215q0 125 -99 125q-58 0 -86 -40.5t-30 -84.5zM176 645l156 143l69 -83l-166 -126z
" />
    <glyph glyph-name="ecircumflex" unicode="&#xea;" horiz-adv-x="549" 
d="M472 142l43 -87q-92 -68 -214 -68q-120 0 -187.5 70.5t-67.5 202.5q0 128 69.5 204t186.5 76q111 0 169 -64.5t58 -191.5q0 -47 -2 -65h-341q10 -122 131 -122q69 0 155 45zM187 315h215q0 125 -99 125q-58 0 -86 -40.5t-30 -84.5zM252 761h79l111 -144l-58 -41l-91 89
l-91 -89l-61 40z" />
    <glyph glyph-name="edieresis" unicode="&#xeb;" horiz-adv-x="549" 
d="M472 142l43 -87q-92 -68 -214 -68q-120 0 -187.5 70.5t-67.5 202.5q0 128 69.5 204t186.5 76q111 0 169 -64.5t58 -191.5q0 -47 -2 -65h-341q10 -122 131 -122q69 0 155 45zM187 315h215q0 125 -99 125q-58 0 -86 -40.5t-30 -84.5zM116 656q0 27 18.5 44.5t50.5 17.5
q34 0 52 -17.5t18 -44.5t-19.5 -44t-50.5 -17q-33 0 -51 16.5t-18 44.5zM320 656q0 27 18.5 44.5t50.5 17.5q34 0 52 -17.5t18 -44.5t-19.5 -44t-50.5 -17q-33 0 -51 16.5t-18 44.5z" />
    <glyph glyph-name="igrave" unicode="&#xec;" horiz-adv-x="258" 
d="M84 788l156 -143l-59 -66l-166 126zM205 528v-528h-132v528h132z" />
    <glyph glyph-name="iacute" unicode="&#xed;" horiz-adv-x="258" 
d="M12 645l156 143l69 -83l-166 -126zM205 528v-528h-132v528h132z" />
    <glyph glyph-name="icircumflex" unicode="&#xee;" horiz-adv-x="258" 
d="M205 528v-528h-132v528h132zM89 761h79l111 -144l-58 -41l-91 89l-91 -89l-61 40z" />
    <glyph glyph-name="idieresis" unicode="&#xef;" horiz-adv-x="258" 
d="M-39 656q0 27 18.5 44.5t50.5 17.5q34 0 52 -17.5t18 -44.5t-19.5 -44t-50.5 -17q-33 0 -51 16.5t-18 44.5zM165 656q0 27 18.5 44.5t50.5 17.5q34 0 52 -17.5t18 -44.5t-19.5 -44t-50.5 -17q-33 0 -51 16.5t-18 44.5zM205 528v-528h-132v528h132z" />
    <glyph glyph-name="eth" unicode="&#xf0;" horiz-adv-x="566" 
d="M259 482l-56 75l54 38q-51 27 -122 42l30 86q107 -13 186 -61l84 59l56 -74l-66 -47q96 -110 96 -300q0 -147 -63.5 -230t-185.5 -83q-101 0 -164 59.5t-63 168.5q0 102 53.5 165.5t144.5 63.5q88 0 156 -70q-10 99 -65 161zM278 90q121 0 119 190q-52 60 -121 60
q-47 0 -76.5 -33t-29.5 -94q0 -62 29.5 -92.5t78.5 -30.5z" />
    <glyph glyph-name="ntilde" unicode="&#xf1;" horiz-adv-x="566" 
d="M67 528h111l11 -70q71 82 171 82q82 0 124.5 -49t42.5 -137v-354h-133v314q0 59 -20.5 86t-62.5 27q-61 0 -111 -59v-368h-133v528zM401 717l62 -23q-21 -100 -94 -100q-25 0 -70 16.5t-56 16.5q-13 0 -22 -8t-19 -29l-63 24q32 100 93 100q26 0 69.5 -17t59.5 -17
q14 0 22 7t18 30z" />
    <glyph glyph-name="ograve" unicode="&#xf2;" horiz-adv-x="594" 
d="M186 264q0 -85 33 -125t89 -40q57 0 90 40t33 125q0 84 -33.5 125t-89.5 41t-89 -42t-33 -124zM46 261q0 133 73.5 206t190.5 73q116 0 188.5 -72t72.5 -204q0 -131 -74.5 -204t-193.5 -73q-120 0 -188.5 71.5t-68.5 202.5zM256 788l156 -143l-59 -66l-166 126z" />
    <glyph glyph-name="oacute" unicode="&#xf3;" horiz-adv-x="594" 
d="M186 264q0 -85 33 -125t89 -40q57 0 90 40t33 125q0 84 -33.5 125t-89.5 41t-89 -42t-33 -124zM46 261q0 133 73.5 206t190.5 73q116 0 188.5 -72t72.5 -204q0 -131 -74.5 -204t-193.5 -73q-120 0 -188.5 71.5t-68.5 202.5zM188 645l156 143l69 -83l-166 -126z" />
    <glyph glyph-name="ocircumflex" unicode="&#xf4;" horiz-adv-x="594" 
d="M186 264q0 -85 33 -125t89 -40q57 0 90 40t33 125q0 84 -33.5 125t-89.5 41t-89 -42t-33 -124zM46 261q0 133 73.5 206t190.5 73q116 0 188.5 -72t72.5 -204q0 -131 -74.5 -204t-193.5 -73q-120 0 -188.5 71.5t-68.5 202.5zM270 761h79l111 -144l-58 -41l-91 89l-91 -89
l-61 40z" />
    <glyph glyph-name="otilde" unicode="&#xf5;" horiz-adv-x="594" 
d="M186 264q0 -85 33 -125t89 -40q57 0 90 40t33 125q0 84 -33.5 125t-89.5 41t-89 -42t-33 -124zM46 261q0 133 73.5 206t190.5 73q116 0 188.5 -72t72.5 -204q0 -131 -74.5 -204t-193.5 -73q-120 0 -188.5 71.5t-68.5 202.5zM408 717l62 -23q-21 -100 -94 -100
q-25 0 -70 16.5t-56 16.5q-13 0 -22 -8t-19 -29l-63 24q32 100 93 100q26 0 69.5 -17t59.5 -17q14 0 22 7t18 30z" />
    <glyph glyph-name="odieresis" unicode="&#xf6;" horiz-adv-x="594" 
d="M186 264q0 -85 33 -125t89 -40q57 0 90 40t33 125q0 84 -33.5 125t-89.5 41t-89 -42t-33 -124zM46 261q0 133 73.5 206t190.5 73q116 0 188.5 -72t72.5 -204q0 -131 -74.5 -204t-193.5 -73q-120 0 -188.5 71.5t-68.5 202.5zM134 656q0 27 18.5 44.5t50.5 17.5
q34 0 52 -17.5t18 -44.5t-19.5 -44t-50.5 -17q-33 0 -51 16.5t-18 44.5zM338 656q0 27 18.5 44.5t50.5 17.5q34 0 52 -17.5t18 -44.5t-19.5 -44t-50.5 -17q-33 0 -51 16.5t-18 44.5z" />
    <glyph glyph-name="divide" unicode="&#xf7;" 
d="M300 526q23 0 39.5 -17t16.5 -41q0 -23 -16 -39.5t-40 -16.5t-41 16.5t-17 39.5t17 40.5t41 17.5zM40 252v84h520v-84h-520zM299 180q24 0 40.5 -17t16.5 -41q0 -23 -16.5 -40t-41.5 -17q-22 0 -39.5 17.5t-17.5 39.5q0 23 17.5 40.5t40.5 17.5z" />
    <glyph glyph-name="oslash" unicode="&#xf8;" horiz-adv-x="597" 
d="M46 261q0 133 73.5 206t190.5 73q12 0 36 -2l17 55h99l-25 -81q63 -31 98.5 -94.5t35.5 -153.5q0 -131 -74.5 -204t-193.5 -73q-21 0 -30 1l-20 -64h-98l27 86q-136 62 -136 251zM186 264q0 -85 35 -128l91 294h-4q-56 0 -89 -42t-33 -124zM431 264q0 82 -33 124
l-91 -289h1q57 0 90 40t33 125z" />
    <glyph glyph-name="ugrave" unicode="&#xf9;" horiz-adv-x="585" 
d="M518 0h-109l-11 69q-72 -82 -167 -82q-168 0 -168 183v358h133v-326q0 -52 18 -77.5t61 -25.5q61 0 110 57v372h133v-528zM239 788l156 -143l-59 -66l-166 126z" />
    <glyph glyph-name="uacute" unicode="&#xfa;" horiz-adv-x="585" 
d="M518 0h-109l-11 69q-72 -82 -167 -82q-168 0 -168 183v358h133v-326q0 -52 18 -77.5t61 -25.5q61 0 110 57v372h133v-528zM192 645l156 143l69 -83l-166 -126z" />
    <glyph glyph-name="ucircumflex" unicode="&#xfb;" horiz-adv-x="585" 
d="M518 0h-109l-11 69q-72 -82 -167 -82q-168 0 -168 183v358h133v-326q0 -52 18 -77.5t61 -25.5q61 0 110 57v372h133v-528zM256 761h79l111 -144l-58 -41l-91 89l-91 -89l-61 40z" />
    <glyph glyph-name="udieresis" unicode="&#xfc;" horiz-adv-x="585" 
d="M518 0h-109l-11 69q-72 -82 -167 -82q-168 0 -168 183v358h133v-326q0 -52 18 -77.5t61 -25.5q61 0 110 57v372h133v-528zM119 656q0 27 18.5 44.5t50.5 17.5q34 0 52 -17.5t18 -44.5t-19.5 -44t-50.5 -17q-33 0 -51 16.5t-18 44.5zM323 656q0 27 18.5 44.5t50.5 17.5
q34 0 52 -17.5t18 -44.5t-19.5 -44t-50.5 -17q-33 0 -51 16.5t-18 44.5z" />
    <glyph glyph-name="yacute" unicode="&#xfd;" horiz-adv-x="531" 
d="M382 528h133l-178 -507l-21.5 -61t-19.5 -49t-22.5 -43t-25.5 -30t-33 -24t-40.5 -11.5t-53.5 -5.5q-44 0 -89 12l10 94q37 -7 67 -7q32 0 51.5 14.5t34.5 59.5l5 15l-184 543h139l109 -390zM169 645l156 143l69 -83l-166 -126z" />
    <glyph glyph-name="thorn" unicode="&#xfe;" horiz-adv-x="601" 
d="M200 361v-202q44 -60 112 -60q121 0 121 162q0 169 -115 169q-58 0 -118 -69zM200 -200h-133v920h130v-262q70 82 172 82q94 0 148.5 -71t54.5 -203t-55.5 -205t-163.5 -73q-93 0 -153 65v-253z" />
    <glyph glyph-name="ydieresis" unicode="&#xff;" horiz-adv-x="531" 
d="M382 528h133l-178 -507l-21.5 -61t-19.5 -49t-22.5 -43t-25.5 -30t-33 -24t-40.5 -11.5t-53.5 -5.5q-44 0 -89 12l10 94q37 -7 67 -7q32 0 51.5 14.5t34.5 59.5l5 15l-184 543h139l109 -390zM96 656q0 27 18.5 44.5t50.5 17.5q34 0 52 -17.5t18 -44.5t-19.5 -44
t-50.5 -17q-33 0 -51 16.5t-18 44.5zM300 656q0 27 18.5 44.5t50.5 17.5q34 0 52 -17.5t18 -44.5t-19.5 -44t-50.5 -17q-33 0 -51 16.5t-18 44.5z" />
    <glyph glyph-name="Amacron" unicode="&#x100;" horiz-adv-x="690" 
d="M275 720h139l259 -720h-148l-53 163h-254l-53 -163h-149zM255 279h179l-90 283zM201 784v89h283v-89h-283z" />
    <glyph glyph-name="amacron" unicode="&#x101;" horiz-adv-x="554" 
d="M358 203v14q-25 5 -63 5q-121 0 -121 -78q0 -59 72 -59q49 0 80.5 37t31.5 81zM491 346v-346h-106l-14 71q-57 -84 -166 -84q-74 0 -118.5 40t-44.5 115q0 71 57.5 119t183.5 48q42 0 75 -4v39q0 90 -90 90q-44 0 -78 -12t-78 -38l-45 80q96 76 215 76q209 0 209 -194z
M127 608v89h283v-89h-283z" />
    <glyph glyph-name="Abreve" unicode="&#x102;" horiz-adv-x="690" 
d="M275 720h139l259 -720h-148l-53 163h-254l-53 -163h-149zM255 279h179l-90 283zM342 843q39 0 56 16.5t21 46.5l80 -13q-7 -64 -45 -95.5t-112 -31.5q-75 0 -112 30t-47 97l83 14q6 -32 22.5 -48t53.5 -16z" />
    <glyph glyph-name="abreve" unicode="&#x103;" horiz-adv-x="554" 
d="M358 203v14q-25 5 -63 5q-121 0 -121 -78q0 -59 72 -59q49 0 80.5 37t31.5 81zM491 346v-346h-106l-14 71q-57 -84 -166 -84q-74 0 -118.5 40t-44.5 115q0 71 57.5 119t183.5 48q42 0 75 -4v39q0 90 -90 90q-44 0 -78 -12t-78 -38l-45 80q96 76 215 76q209 0 209 -194z
M278 668q67 0 77 70l80 -13q-12 -134 -157 -134q-74 0 -111.5 32t-47.5 102l81 14q9 -37 25.5 -54t52.5 -17z" />
    <glyph glyph-name="Aogonek" unicode="&#x104;" horiz-adv-x="690" 
d="M275 720h139l259 -720q-96 -65 -96 -117q0 -32 29 -32q27 0 55 12l19 -64q-51 -30 -110 -30q-97 0 -97 79q0 76 87 152h-35l-53 163h-254l-53 -163h-149zM255 279h179l-90 283z" />
    <glyph glyph-name="aogonek" unicode="&#x105;" horiz-adv-x="554" 
d="M491 346v-346q-81 -73 -81 -117q0 -32 29 -32q27 0 55 12l19 -64q-51 -30 -110 -30q-97 0 -97 79q0 71 79 152l-14 71q-57 -84 -166 -84q-74 0 -118.5 40t-44.5 115q0 71 57.5 119t183.5 48q42 0 75 -4v39q0 90 -90 90q-44 0 -78 -12t-78 -38l-45 80q96 76 215 76
q209 0 209 -194zM358 203v14q-25 5 -63 5q-121 0 -121 -78q0 -59 72 -59q49 0 80.5 37t31.5 81z" />
    <glyph glyph-name="Cacute" unicode="&#x106;" horiz-adv-x="680" 
d="M577 195l74 -91q-121 -117 -283 -117q-156 0 -237 102.5t-81 270.5q0 165 84.5 268.5t239.5 103.5q117 0 192.5 -65t81.5 -188h-139q-4 55 -35.5 91.5t-98.5 36.5q-83 0 -130 -64.5t-47 -181.5q0 -122 48.5 -185.5t135.5 -63.5q99 0 195 83zM247 827l178 107l54 -97
l-187 -87z" />
    <glyph glyph-name="cacute" unicode="&#x107;" horiz-adv-x="554" 
d="M466 146l49 -84q-91 -75 -218 -75q-114 0 -182.5 73.5t-68.5 202.5q0 126 71.5 201.5t188.5 75.5q101 0 156.5 -54t58.5 -157h-111q-5 51 -32 77t-70 26q-57 0 -89.5 -42t-32.5 -122q0 -78 33 -124t97 -46t150 48zM188 645l156 143l69 -83l-166 -126z" />
    <glyph glyph-name="Ccircumflex" unicode="&#x108;" horiz-adv-x="680" 
d="M577 195l74 -91q-121 -117 -283 -117q-156 0 -237 102.5t-81 270.5q0 165 84.5 268.5t239.5 103.5q117 0 192.5 -65t81.5 -188h-139q-4 55 -35.5 91.5t-98.5 36.5q-83 0 -130 -64.5t-47 -181.5q0 -122 48.5 -185.5t135.5 -63.5q99 0 195 83zM331 923h79l109 -113l-58 -49
l-88 66l-87 -66l-60 50z" />
    <glyph glyph-name="ccircumflex" unicode="&#x109;" horiz-adv-x="554" 
d="M466 146l49 -84q-91 -75 -218 -75q-114 0 -182.5 73.5t-68.5 202.5q0 126 71.5 201.5t188.5 75.5q101 0 156.5 -54t58.5 -157h-111q-5 51 -32 77t-70 26q-57 0 -89.5 -42t-32.5 -122q0 -78 33 -124t97 -46t150 48zM260 761h79l111 -144l-58 -41l-91 89l-91 -89l-61 40z
" />
    <glyph glyph-name="Cdotaccent" unicode="&#x10a;" horiz-adv-x="680" 
d="M577 195l74 -91q-121 -117 -283 -117q-156 0 -237 102.5t-81 270.5q0 165 84.5 268.5t239.5 103.5q117 0 192.5 -65t81.5 -188h-139q-4 55 -35.5 91.5t-98.5 36.5q-83 0 -130 -64.5t-47 -181.5q0 -122 48.5 -185.5t135.5 -63.5q99 0 195 83zM285 837q0 32 22.5 50
t57.5 18t57 -18t22 -50t-22 -49.5t-57 -17.5q-34 0 -57 18t-23 49z" />
    <glyph glyph-name="cdotaccent" unicode="&#x10b;" horiz-adv-x="554" 
d="M466 146l49 -84q-91 -75 -218 -75q-114 0 -182.5 73.5t-68.5 202.5q0 126 71.5 201.5t188.5 75.5q101 0 156.5 -54t58.5 -157h-111q-5 51 -32 77t-70 26q-57 0 -89.5 -42t-32.5 -122q0 -78 33 -124t97 -46t150 48zM222 663q0 32 22.5 50t57.5 18t57 -18t22 -50
q0 -31 -22 -48.5t-57 -17.5q-34 0 -57 17.5t-23 48.5z" />
    <glyph glyph-name="Ccaron" unicode="&#x10c;" horiz-adv-x="680" 
d="M577 195l74 -91q-121 -117 -283 -117q-156 0 -237 102.5t-81 270.5q0 165 84.5 268.5t239.5 103.5q117 0 192.5 -65t81.5 -188h-139q-4 55 -35.5 91.5t-98.5 36.5q-83 0 -130 -64.5t-47 -181.5q0 -122 48.5 -185.5t135.5 -63.5q99 0 195 83zM407 761h-79l-105 112l60 50
l87 -66l88 66l58 -49z" />
    <glyph glyph-name="ccaron" unicode="&#x10d;" horiz-adv-x="554" 
d="M466 146l49 -84q-91 -75 -218 -75q-114 0 -182.5 73.5t-68.5 202.5q0 126 71.5 201.5t188.5 75.5q101 0 156.5 -54t58.5 -157h-111q-5 51 -32 77t-70 26q-57 0 -89.5 -42t-32.5 -122q0 -78 33 -124t97 -46t150 48zM339 581h-79l-108 142l59 44l90 -90l91 89l58 -41z" />
    <glyph glyph-name="Dcaron" unicode="&#x10e;" horiz-adv-x="723" 
d="M312 598h-101v-477h101q109 0 160.5 59t51.5 178q0 240 -212 240zM73 720h237q175 0 266.5 -92t91.5 -260q0 -192 -93 -280t-286 -88h-216v720zM339 761h-79l-105 112l60 50l87 -66l88 66l58 -49z" />
    <glyph glyph-name="dcaron" unicode="&#x10f;" horiz-adv-x="673" 
d="M437 0l-7 68q-59 -81 -164 -81q-108 0 -162.5 72.5t-54.5 202.5q0 131 61.5 204.5t160.5 73.5q87 0 152 -70v250h132v-720h-118zM422 158v209q-50 60 -116 60q-55 0 -86 -41t-31 -122q0 -165 120 -165q63 0 113 59zM594 522l31 198h121l-54 -198h-98z" />
    <glyph glyph-name="Dcroat" unicode="&#x110;" horiz-adv-x="719" 
d="M5 306v111h74v303h235q177 0 269 -94t92 -268q0 -185 -94 -271.5t-287 -86.5h-215v306h-74zM319 594h-101v-177h162v-111h-162v-180h101q109 0 159.5 56.5t50.5 175.5q0 118 -51 177t-159 59z" />
    <glyph glyph-name="dcroat" unicode="&#x111;" horiz-adv-x="596" 
d="M261 558v93h162v69h132v-69h56v-93h-56v-558h-118l-7 68q-61 -81 -164 -81q-106 0 -161.5 68.5t-55.5 193.5t60 192.5t154 67.5q95 0 160 -70v119h-162zM422 157v177q-52 62 -122 62q-111 0 -111 -145q0 -67 28 -109.5t92 -42.5t113 58z" />
    <glyph glyph-name="Emacron" unicode="&#x112;" horiz-adv-x="606" 
d="M73 0v720h479v-122h-341v-173h310v-122h-310v-182h347v-121h-485zM175 785v89h283v-89h-283z" />
    <glyph glyph-name="emacron" unicode="&#x113;" horiz-adv-x="551" 
d="M472 142l43 -87q-92 -68 -214 -68q-120 0 -187.5 70.5t-67.5 202.5q0 128 69.5 204t186.5 76q111 0 169 -64.5t58 -191.5q0 -47 -2 -65h-341q10 -122 131 -122q69 0 155 45zM187 315h215q0 125 -99 125q-58 0 -86 -40.5t-30 -84.5zM156 608v89h283v-89h-283z" />
    <glyph glyph-name="Ebreve" unicode="&#x114;" horiz-adv-x="606" 
d="M73 0v720h479v-122h-341v-173h310v-122h-310v-182h347v-121h-485zM315 844q39 0 56 16.5t21 46.5l80 -13q-7 -64 -45 -95.5t-112 -31.5q-75 0 -112 30t-47 97l83 14q6 -32 22.5 -48t53.5 -16z" />
    <glyph glyph-name="ebreve" unicode="&#x115;" horiz-adv-x="549" 
d="M472 142l43 -87q-92 -68 -214 -68q-120 0 -187.5 70.5t-67.5 202.5q0 128 69.5 204t186.5 76q111 0 169 -64.5t58 -191.5q0 -47 -2 -65h-341q10 -122 131 -122q69 0 155 45zM187 315h215q0 125 -99 125q-58 0 -86 -40.5t-30 -84.5zM304 668q67 0 77 70l80 -13
q-12 -134 -157 -134q-74 0 -111.5 32t-47.5 102l81 14q9 -37 25.5 -54t52.5 -17z" />
    <glyph glyph-name="Edotaccent" unicode="&#x116;" horiz-adv-x="606" 
d="M73 0v720h479v-122h-341v-173h310v-122h-310v-182h347v-121h-485zM242 838q0 32 22.5 50t57.5 18t57 -18t22 -50t-22 -49.5t-57 -17.5q-34 0 -57 18t-23 49z" />
    <glyph glyph-name="edotaccent" unicode="&#x117;" horiz-adv-x="549" 
d="M472 142l43 -87q-92 -68 -214 -68q-120 0 -187.5 70.5t-67.5 202.5q0 128 69.5 204t186.5 76q111 0 169 -64.5t58 -191.5q0 -47 -2 -65h-341q10 -122 131 -122q69 0 155 45zM187 315h215q0 125 -99 125q-58 0 -86 -40.5t-30 -84.5zM228 663q0 32 22.5 50t57.5 18t57 -18
t22 -50q0 -31 -22 -48.5t-57 -17.5q-34 0 -57 17.5t-23 48.5z" />
    <glyph glyph-name="Eogonek" unicode="&#x118;" horiz-adv-x="606" 
d="M73 0v720h479v-122h-341v-175h310v-115h-310v-187h347v-121h-29q-79 -75 -79 -117q0 -32 29 -32q27 0 55 12l19 -64q-51 -30 -110 -30q-97 0 -97 79q0 76 87 152h-360z" />
    <glyph glyph-name="eogonek" unicode="&#x119;" horiz-adv-x="549" 
d="M472 142l43 -87q-15 -11 -45.5 -29t-44.5 -29q-35 -25 -58.5 -57.5t-23.5 -56.5q0 -32 29 -32q27 0 55 12l19 -64q-51 -30 -110 -30q-97 0 -97 79q0 69 73 139h-11q-120 0 -187.5 70.5t-67.5 202.5q0 128 69.5 204t186.5 76q111 0 169 -63.5t58 -190.5q0 -49 -2 -67h-341
q10 -122 131 -122q69 0 155 45zM187 315h215q-2 125 -99 125q-58 0 -86 -40.5t-30 -84.5z" />
    <glyph glyph-name="Ecaron" unicode="&#x11a;" horiz-adv-x="606" 
d="M73 0v720h479v-122h-341v-173h310v-122h-310v-182h347v-121h-485zM360 762h-79l-105 112l60 50l87 -66l88 66l58 -49z" />
    <glyph glyph-name="ecaron" unicode="&#x11b;" horiz-adv-x="549" 
d="M472 142l43 -87q-92 -68 -214 -68q-120 0 -187.5 70.5t-67.5 202.5q0 128 69.5 204t186.5 76q111 0 169 -64.5t58 -191.5q0 -47 -2 -65h-341q10 -122 131 -122q69 0 155 45zM187 315h215q0 125 -99 125q-58 0 -86 -40.5t-30 -84.5zM343 581h-79l-108 142l59 44l90 -90
l91 89l58 -41z" />
    <glyph glyph-name="Gcircumflex" unicode="&#x11c;" horiz-adv-x="730" 
d="M408 269v115h260v-286q-101 -111 -278 -111q-92 0 -160 29.5t-106 82t-56 117.5t-18 144q0 170 84.5 271t247.5 101q141 0 208 -64.5t74 -170.5h-143q-3 50 -36.5 80t-102.5 30q-90 0 -138.5 -66.5t-48.5 -178.5q0 -252 203 -252q89 0 138 41v118h-128zM342 923h79
l109 -113l-58 -49l-88 66l-87 -66l-60 50z" />
    <glyph glyph-name="gcircumflex" unicode="&#x11d;" horiz-adv-x="625" 
d="M555 528v-499q0 -132 -58.5 -185.5t-189.5 -53.5q-104 0 -191 33l21 97q96 -26 160 -26q72 0 101 31t29 105v49q-61 -76 -162 -76q-104 0 -160 66.5t-56 191.5q0 128 58 203.5t167 75.5q93 0 162 -80l9 68h110zM422 170v195q-17 23 -49 42.5t-68 19.5q-116 0 -116 -158
q0 -156 118 -156q63 0 115 57zM268 761h79l111 -144l-58 -41l-91 89l-91 -89l-61 40z" />
    <glyph glyph-name="Gbreve" unicode="&#x11e;" horiz-adv-x="730" 
d="M408 269v115h260v-286q-101 -111 -278 -111q-92 0 -160 29.5t-106 82t-56 117.5t-18 144q0 170 84.5 271t247.5 101q141 0 208 -64.5t74 -170.5h-143q-3 50 -36.5 80t-102.5 30q-90 0 -138.5 -66.5t-48.5 -178.5q0 -252 203 -252q89 0 138 41v118h-128zM379 843
q39 0 56 16.5t21 46.5l80 -13q-7 -64 -45 -95.5t-112 -31.5q-75 0 -112 30t-47 97l83 14q6 -32 22.5 -48t53.5 -16z" />
    <glyph glyph-name="gbreve" unicode="&#x11f;" horiz-adv-x="625" 
d="M555 528v-499q0 -132 -58.5 -185.5t-189.5 -53.5q-104 0 -191 33l21 97q96 -26 160 -26q72 0 101 31t29 105v49q-61 -76 -162 -76q-104 0 -160 66.5t-56 191.5q0 128 58 203.5t167 75.5q93 0 162 -80l9 68h110zM422 170v195q-17 23 -49 42.5t-68 19.5q-116 0 -116 -158
q0 -156 118 -156q63 0 115 57zM298 668q67 0 77 70l80 -13q-12 -134 -157 -134q-74 0 -111.5 32t-47.5 102l81 14q9 -37 25.5 -54t52.5 -17z" />
    <glyph glyph-name="Gdotaccent" unicode="&#x120;" horiz-adv-x="730" 
d="M408 269v115h260v-286q-101 -111 -278 -111q-92 0 -160 29.5t-106 82t-56 117.5t-18 144q0 170 84.5 271t247.5 101q141 0 208 -64.5t74 -170.5h-143q-3 50 -36.5 80t-102.5 30q-90 0 -138.5 -66.5t-48.5 -178.5q0 -252 203 -252q89 0 138 41v118h-128zM307 837
q0 32 22.5 50t57.5 18t57 -18t22 -50t-22 -49.5t-57 -17.5q-34 0 -57 18t-23 49z" />
    <glyph glyph-name="gdotaccent" unicode="&#x121;" horiz-adv-x="625" 
d="M555 528v-499q0 -132 -58.5 -185.5t-189.5 -53.5q-104 0 -191 33l21 97q96 -26 160 -26q72 0 101 31t29 105v49q-61 -76 -162 -76q-104 0 -160 66.5t-56 191.5q0 128 58 203.5t167 75.5q93 0 162 -80l9 68h110zM422 170v195q-17 23 -49 42.5t-68 19.5q-116 0 -116 -158
q0 -156 118 -156q63 0 115 57zM218 663q0 32 22.5 50t57.5 18t57 -18t22 -50q0 -31 -22 -48.5t-57 -17.5q-34 0 -57 17.5t-23 48.5z" />
    <glyph glyph-name="Gcommaaccent" unicode="&#x122;" horiz-adv-x="730" 
d="M408 269v115h260v-286q-101 -111 -278 -111q-92 0 -160 29.5t-106 82t-56 117.5t-18 144q0 170 84.5 271t247.5 101q141 0 208 -64.5t74 -170.5h-143q-3 50 -36.5 80t-102.5 30q-90 0 -138.5 -66.5t-48.5 -178.5q0 -252 203 -252q89 0 138 41v118h-128zM292 -233l40 176
l110 -27l-62 -173z" />
    <glyph glyph-name="gcommaaccent" unicode="&#x123;" horiz-adv-x="625" 
d="M555 528v-499q0 -132 -58.5 -185.5t-189.5 -53.5q-104 0 -191 33l21 97q96 -26 160 -26q72 0 101 31t29 105v49q-61 -76 -162 -76q-104 0 -160 66.5t-56 191.5q0 128 58 203.5t167 75.5q93 0 162 -80l9 68h110zM422 170v195q-17 23 -49 42.5t-68 19.5q-116 0 -116 -158
q0 -156 118 -156q63 0 115 57zM385 757l-40 -176l-110 27l62 173z" />
    <glyph glyph-name="Hcircumflex" unicode="&#x124;" horiz-adv-x="707" 
d="M73 0v720h138v-293h297v293h138v-720h-138v302h-297v-302h-138zM325 923h79l109 -113l-58 -49l-88 66l-87 -66l-60 50z" />
    <glyph glyph-name="hcircumflex" unicode="&#x125;" horiz-adv-x="590" 
d="M67 720h133v-256q69 76 163 76q79 0 121.5 -49t42.5 -138v-353h-133v320q0 52 -17.5 79.5t-66.5 27.5q-58 0 -110 -59v-368h-133v720zM90 911h79l109 -113l-58 -49l-88 66l-87 -66l-60 50z" />
    <glyph glyph-name="Hbar" unicode="&#x126;" horiz-adv-x="719" 
d="M14 514v103h59v103h138v-103h297v103h138v-103h63v-103h-63v-514h-138v302h-297v-302h-138v514h-59zM211 427h297v87h-297v-87z" />
    <glyph glyph-name="hbar" unicode="&#x127;" horiz-adv-x="590" 
d="M11 558v93h56v69h133v-69h161v-93h-161v-134q69 76 163 76q79 0 121.5 -49t42.5 -138v-313h-133v280q0 52 -17.5 79.5t-66.5 27.5q-58 0 -110 -59v-328h-133v558h-56z" />
    <glyph glyph-name="Itilde" unicode="&#x128;" horiz-adv-x="288" 
d="M75 0v720h138v-720h-138zM240 900l62 -23q-21 -100 -94 -100q-25 0 -70 16.5t-56 16.5q-13 0 -22 -8t-19 -29l-63 24q32 100 93 100q26 0 69.5 -17t59.5 -17q14 0 22 7t18 30z" />
    <glyph glyph-name="itilde" unicode="&#x129;" horiz-adv-x="258" 
d="M227 717l62 -23q-21 -100 -94 -100q-25 0 -70 16.5t-56 16.5q-13 0 -22 -8t-19 -29l-63 24q32 100 93 100q26 0 69.5 -17t59.5 -17q14 0 22 7t18 30zM205 528v-528h-132v528h132z" />
    <glyph glyph-name="Imacron" unicode="&#x12a;" horiz-adv-x="288" 
d="M75 0v720h138v-720h-138zM-5 784v89h283v-89h-283z" />
    <glyph glyph-name="imacron" unicode="&#x12b;" horiz-adv-x="258" 
d="M-16 608v89h283v-89h-283zM205 528v-528h-132v528h132z" />
    <glyph glyph-name="Ibreve" unicode="&#x12c;" horiz-adv-x="288" 
d="M75 0v720h138v-720h-138zM148 843q39 0 56 16.5t21 46.5l80 -13q-7 -64 -45 -95.5t-112 -31.5q-75 0 -112 30t-47 97l83 14q6 -32 22.5 -48t53.5 -16z" />
    <glyph glyph-name="ibreve" unicode="&#x12d;" horiz-adv-x="258" 
d="M131 668q67 0 77 70l80 -13q-12 -134 -157 -134q-74 0 -111.5 32t-47.5 102l81 14q9 -37 25.5 -54t52.5 -17zM205 528v-528h-132v528h132z" />
    <glyph glyph-name="Iogonek" unicode="&#x12e;" horiz-adv-x="288" 
d="M75 0v720h138v-720q-96 -65 -96 -117q0 -32 29 -32q27 0 55 12l19 -64q-51 -30 -110 -30q-97 0 -97 79q0 81 94 152h-32z" />
    <glyph glyph-name="iogonek" unicode="&#x12f;" horiz-adv-x="278" 
d="M205 528v-528q-90 -74 -90 -117q0 -32 29 -32q27 0 55 12l19 -64q-51 -30 -110 -30q-97 0 -97 79q0 75 89 152h-27v528h132zM62 663q0 33 22.5 51t56.5 18q36 0 58 -18t22 -51q0 -32 -22 -49.5t-58 -17.5q-34 0 -56.5 18t-22.5 49z" />
    <glyph glyph-name="Idotaccent" unicode="&#x130;" horiz-adv-x="288" 
d="M75 0v720h138v-720h-138zM69 837q0 32 22.5 50t57.5 18t57 -18t22 -50t-22 -49.5t-57 -17.5q-34 0 -57 18t-23 49z" />
    <glyph glyph-name="dotlessi" unicode="&#x131;" horiz-adv-x="278" 
d="M205 528v-528h-132v528h132z" />
    <glyph glyph-name="IJ" unicode="&#x132;" horiz-adv-x="706" 
d="M73 0v720h138v-720h-138zM636 720v-535q0 -198 -177 -198q-91 0 -155 27l17 108q45 -16 93 -16q47 0 65 21.5t18 78.5v514h139z" />
    <glyph glyph-name="ij" unicode="&#x133;" horiz-adv-x="542" 
d="M62 663q0 33 22.5 51t56.5 18q36 0 58 -18t22 -51q0 -32 -22 -49.5t-58 -17.5q-34 0 -56.5 18t-22.5 49zM205 528v-528h-132v528h132zM469 528v-578q0 -76 -34 -115t-110 -39q-47 0 -91 14l10 93q26 -6 47 -6q25 0 35.5 12.5t10.5 47.5v571h132zM324 663q0 33 22.5 51
t57.5 18q36 0 58 -18t22 -51q0 -32 -22 -49.5t-58 -17.5q-34 0 -57 18t-23 49z" />
    <glyph glyph-name="Jcircumflex" unicode="&#x134;" horiz-adv-x="427" 
d="M357 720v-535q0 -198 -177 -198q-91 0 -155 27l17 108q45 -16 93 -16q47 0 65 21.5t18 78.5v514h139zM240 923h79l109 -113l-58 -49l-88 66l-87 -66l-60 50z" />
    <glyph glyph-name="jcircumflex" unicode="&#x135;" horiz-adv-x="261" 
d="M196 528v-578q0 -76 -34 -115t-110 -39q-49 0 -87 12l8 94q22 -5 43 -5q26 0 37 12.5t11 47.5v571h132zM87 761h79l111 -144l-58 -41l-91 89l-91 -89l-61 40z" />
    <glyph glyph-name="Kcommaaccent" unicode="&#x136;" horiz-adv-x="675" 
d="M73 0v720h138v-297h101l165 297h154l-200 -351l227 -369h-160l-188 309h-99v-309h-138zM247 -233l40 176l110 -27l-62 -173z" />
    <glyph glyph-name="kcommaaccent" unicode="&#x137;" horiz-adv-x="547" 
d="M200 720v-374h65l116 182h146l-157 -234l181 -294h-155l-140 236h-56v-236h-133v720h133zM195 -233l40 176l110 -27l-62 -173z" />
    <glyph glyph-name="kgreenlandic" unicode="&#x138;" horiz-adv-x="547" 
d="M200 528v-192h48l139 192h140l-171 -242l197 -286h-149l-164 233h-40v-233h-133v528h133z" />
    <glyph glyph-name="Lacute" unicode="&#x139;" horiz-adv-x="559" 
d="M73 720h138v-598h313v-122h-451v720zM22 827l178 107l54 -97l-187 -87z" />
    <glyph glyph-name="lacute" unicode="&#x13a;" horiz-adv-x="273" 
d="M203 0h-133v720h133v-720zM15 827l178 107l54 -97l-187 -87z" />
    <glyph glyph-name="Lcommaaccent" unicode="&#x13b;" horiz-adv-x="559" 
d="M73 720h138v-598h313v-122h-451v720zM193 -233l40 176l110 -27l-62 -173z" />
    <glyph glyph-name="lcommaaccent" unicode="&#x13c;" horiz-adv-x="273" 
d="M203 0h-133v720h133v-720zM32 -233l40 176l110 -27l-62 -173z" />
    <glyph glyph-name="Lcaron" unicode="&#x13d;" horiz-adv-x="559" 
d="M73 720h138v-598h313v-122h-451v720zM293 522l31 198h121l-54 -198h-98z" />
    <glyph glyph-name="lcaron" unicode="&#x13e;" horiz-adv-x="318" 
d="M203 0h-133v720h133v-720zM239 522l31 198h121l-54 -198h-98z" />
    <glyph glyph-name="Ldot" unicode="&#x13f;" horiz-adv-x="559" 
d="M73 720h138v-598h313v-122h-451v720zM341 374q0 32 22.5 50t57.5 18t57 -18t22 -50q0 -31 -22 -48.5t-57 -17.5q-34 0 -57 17.5t-23 48.5z" />
    <glyph glyph-name="ldot" unicode="&#x140;" horiz-adv-x="392" 
d="M203 0h-133v720h133v-720zM254 368q0 32 22.5 50t57.5 18t57 -18t22 -50q0 -31 -22 -48.5t-57 -17.5q-34 0 -57 17.5t-23 48.5z" />
    <glyph glyph-name="Lslash" unicode="&#x141;" horiz-adv-x="559" 
d="M73 720h138v-276l33 12l148 58v-115l-146 -57l-35 -12v-208h313v-122h-451v282l-20 -7l-64 -25v116l65 25l19 6v323z" />
    <glyph glyph-name="lslash" unicode="&#x142;" horiz-adv-x="299" 
d="M218 0h-133v281l-76 -35v122l70 31l6 2v319h133v-272l75 33v-121l-68 -31l-7 -3v-326z" />
    <glyph glyph-name="Nacute" unicode="&#x143;" horiz-adv-x="725" 
d="M73 0v720h122l320 -487v487h137v-720h-121l-322 481v-481h-136zM266 827l178 107l54 -97l-187 -87z" />
    <glyph glyph-name="nacute" unicode="&#x144;" horiz-adv-x="566" 
d="M67 528h111l11 -70q71 82 171 82q82 0 124.5 -49t42.5 -137v-354h-133v314q0 59 -20.5 86t-62.5 27q-61 0 -111 -59v-368h-133v528zM203 645l156 143l69 -83l-166 -126z" />
    <glyph glyph-name="Ncommaaccent" unicode="&#x145;" horiz-adv-x="725" 
d="M73 0v720h122l320 -487v487h137v-720h-121l-322 481v-481h-136zM276 -233l40 176l110 -27l-62 -173z" />
    <glyph glyph-name="ncommaaccent" unicode="&#x146;" horiz-adv-x="566" 
d="M67 528h111l11 -70q71 82 171 82q82 0 124.5 -49t42.5 -137v-354h-133v314q0 59 -20.5 86t-62.5 27q-61 0 -111 -59v-368h-133v528zM200 -233l40 176l110 -27l-62 -173z" />
    <glyph glyph-name="Ncaron" unicode="&#x147;" horiz-adv-x="725" 
d="M73 0v720h122l320 -487v487h137v-720h-121l-322 481v-481h-136zM407 761h-79l-105 112l60 50l87 -66l88 66l58 -49z" />
    <glyph glyph-name="ncaron" unicode="&#x148;" horiz-adv-x="566" 
d="M67 528h111l11 -70q71 82 171 82q82 0 124.5 -49t42.5 -137v-354h-133v314q0 59 -20.5 86t-62.5 27q-61 0 -111 -59v-368h-133v528zM328 581h-79l-108 142l59 44l90 -90l91 89l58 -41z" />
    <glyph glyph-name="napostrophe" unicode="&#x149;" horiz-adv-x="604" 
d="M106 528h111l11 -70q71 82 171 82q82 0 124.5 -49t42.5 -137v-354h-133v314q0 59 -20.5 86t-62.5 27q-61 0 -111 -59v-368h-133v528zM1 652q0 22 16 36.5t41 14.5q31 0 46.5 -19.5t15.5 -49.5q0 -96 -100 -128l-16 38q53 22 55 67q-7 -4 -16 -4q-19 0 -30.5 13t-11.5 32z
" />
    <glyph glyph-name="Eng" unicode="&#x14a;" horiz-adv-x="707" 
d="M64 0v720h121l322 -496v496h136v-760q0 -77 -40.5 -120.5t-124.5 -43.5q-78 0 -124 19l9 87q36 -12 77 -12q69 0 69 81v48l-309 465v-484h-136z" />
    <glyph glyph-name="eng" unicode="&#x14b;" horiz-adv-x="565" 
d="M67 528h111l11 -70q71 82 171 82q82 0 125 -49t43 -137v-405q0 -75 -34 -114t-110 -39q-52 0 -90 12l9 95q19 -6 46 -6q25 0 35 12.5t10 48.5v356q0 59 -20.5 86t-62.5 27q-61 0 -111 -59v-368h-133v528z" />
    <glyph glyph-name="Omacron" unicode="&#x14c;" horiz-adv-x="774" 
d="M195 364q0 -120 52 -185.5t146 -65.5q95 0 146.5 65t51.5 186q0 112 -52.5 177t-144.5 65q-94 0 -146.5 -65.5t-52.5 -176.5zM50 364q0 172 93.5 270t249.5 98q157 0 250 -98t93 -270q0 -181 -92.5 -279t-250.5 -98t-250.5 98.5t-92.5 278.5zM246 784v89h283v-89h-283z
" />
    <glyph glyph-name="omacron" unicode="&#x14d;" horiz-adv-x="597" 
d="M186 264q0 -85 33 -125t89 -40q57 0 90 40t33 125q0 84 -33.5 125t-89.5 41t-89 -42t-33 -124zM46 261q0 133 73.5 206t190.5 73q116 0 188.5 -72t72.5 -204q0 -131 -74.5 -204t-193.5 -73q-120 0 -188.5 71.5t-68.5 202.5zM164 608v89h283v-89h-283z" />
    <glyph glyph-name="Obreve" unicode="&#x14e;" horiz-adv-x="774" 
d="M195 364q0 -120 52 -185.5t146 -65.5q95 0 146.5 65t51.5 186q0 112 -52.5 177t-144.5 65q-94 0 -146.5 -65.5t-52.5 -176.5zM50 364q0 172 93.5 270t249.5 98q157 0 250 -98t93 -270q0 -181 -92.5 -279t-250.5 -98t-250.5 98.5t-92.5 278.5zM387 843q39 0 56 16.5
t21 46.5l80 -13q-7 -64 -45 -95.5t-112 -31.5q-75 0 -112 30t-47 97l83 14q6 -32 22.5 -48t53.5 -16z" />
    <glyph glyph-name="obreve" unicode="&#x14f;" horiz-adv-x="594" 
d="M186 264q0 -85 33 -125t89 -40q57 0 90 40t33 125q0 84 -33.5 125t-89.5 41t-89 -42t-33 -124zM46 261q0 133 73.5 206t190.5 73q116 0 188.5 -72t72.5 -204q0 -131 -74.5 -204t-193.5 -73q-120 0 -188.5 71.5t-68.5 202.5zM308 668q67 0 77 70l80 -13
q-12 -134 -157 -134q-74 0 -111.5 32t-47.5 102l81 14q9 -37 25.5 -54t52.5 -17z" />
    <glyph glyph-name="Ohungarumlaut" unicode="&#x150;" horiz-adv-x="774" 
d="M195 364q0 -120 52 -185.5t146 -65.5q95 0 146.5 65t51.5 186q0 112 -52.5 177t-144.5 65q-94 0 -146.5 -65.5t-52.5 -176.5zM50 364q0 172 93.5 270t249.5 98q157 0 250 -98t93 -270q0 -181 -92.5 -279t-250.5 -98t-250.5 98.5t-92.5 278.5zM356 960l81 -63l-132 -146
l-65 51zM524 945l76 -68l-132 -127l-61 56z" />
    <glyph glyph-name="ohungarumlaut" unicode="&#x151;" horiz-adv-x="594" 
d="M186 264q0 -85 33 -125t89 -40q57 0 90 40t33 125q0 84 -33.5 125t-89.5 41t-89 -42t-33 -124zM46 261q0 133 73.5 206t190.5 73q116 0 188.5 -72t72.5 -204q0 -131 -74.5 -204t-193.5 -73q-120 0 -188.5 71.5t-68.5 202.5zM268 780l82 -49l-112 -150l-68 41zM423 767
l81 -50l-112 -136l-66 41z" />
    <glyph glyph-name="OE" unicode="&#x152;" horiz-adv-x="1120" 
d="M599 0v113q-30 -60 -92.5 -92.5t-142.5 -32.5q-142 0 -228 96.5t-86 280.5q0 177 89.5 272.5t235.5 95.5q75 0 135 -32.5t89 -89.5v109h468v-122h-342v-173h311v-122h-311v-181h347v-122h-473zM195 365q0 -120 52 -185.5t146 -65.5q90 0 143 62.5t53 187.5
q0 120 -52.5 181t-143.5 61q-93 0 -145.5 -65t-52.5 -176z" />
    <glyph glyph-name="oe" unicode="&#x153;" horiz-adv-x="948" 
d="M46 261q0 132 72 205.5t183 73.5q136 0 193 -119q22 51 71.5 85t118.5 34q107 0 164.5 -64t57.5 -190q0 -52 -3 -66h-340q14 -123 132 -123q74 0 155 46l45 -90q-91 -66 -210 -66q-143 0 -195 111q-62 -111 -200 -111q-111 0 -177.5 72t-66.5 202zM186 264q0 -85 33 -126
t89 -41t89.5 41t33.5 126t-33.5 126.5t-89.5 41.5q-55 0 -88.5 -42.5t-33.5 -125.5zM564 309h215q-2 131 -100 131q-40 0 -67.5 -24t-37 -51.5t-10.5 -55.5z" />
    <glyph glyph-name="Racute" unicode="&#x154;" horiz-adv-x="663" 
d="M73 720h259q129 0 196.5 -60t67.5 -165q0 -138 -115 -198l154 -297h-150l-133 265q-35 -5 -64 -5h-77v-260h-138v720zM326 601h-115v-230h109q135 0 135 118q0 112 -129 112zM183 827l178 107l54 -97l-187 -87z" />
    <glyph glyph-name="racute" unicode="&#x155;" horiz-adv-x="371" 
d="M173 528l12 -76q20 39 51 63.5t66 24.5q24 0 52 -11l-10 -121q-24 7 -50 7q-28 0 -53.5 -20t-40.5 -45v-350h-133v528h106zM113 645l156 143l69 -83l-166 -126z" />
    <glyph glyph-name="Rcommaaccent" unicode="&#x156;" horiz-adv-x="663" 
d="M73 720h259q129 0 196.5 -60t67.5 -165q0 -138 -115 -198l154 -297h-150l-133 265q-35 -5 -64 -5h-77v-260h-138v720zM326 601h-115v-230h109q135 0 135 118q0 112 -129 112zM242 -233l40 176l110 -27l-62 -173z" />
    <glyph glyph-name="rcommaaccent" unicode="&#x157;" horiz-adv-x="371" 
d="M173 528l12 -76q20 39 51 63.5t66 24.5q24 0 52 -11l-10 -121q-24 7 -50 7q-28 0 -53.5 -20t-40.5 -45v-350h-133v528h106zM29 -233l40 176l110 -27l-62 -173z" />
    <glyph glyph-name="Rcaron" unicode="&#x158;" horiz-adv-x="663" 
d="M73 720h259q129 0 196.5 -60t67.5 -165q0 -138 -115 -198l154 -297h-150l-133 265q-35 -5 -64 -5h-77v-260h-138v720zM326 601h-115v-230h109q135 0 135 118q0 112 -129 112zM331 761h-79l-105 112l60 50l87 -66l88 66l58 -49z" />
    <glyph glyph-name="rcaron" unicode="&#x159;" horiz-adv-x="371" 
d="M173 528l12 -76q20 39 51 63.5t66 24.5q24 0 52 -11l-10 -121q-24 7 -50 7q-28 0 -53.5 -20t-40.5 -45v-350h-133v528h106zM244 581h-79l-108 142l59 44l90 -90l91 89l58 -41z" />
    <glyph glyph-name="Sacute" unicode="&#x15a;" horiz-adv-x="611" 
d="M29 107l69 85q108 -90 213 -90q48 0 78.5 25.5t30.5 68.5q0 42 -31 67.5t-120 50.5q-114 32 -162.5 78.5t-48.5 130.5q0 102 69.5 155.5t180.5 53.5q145 0 246 -101l-67 -82q-80 71 -176 71q-50 0 -80.5 -21.5t-30.5 -61.5q0 -43 34 -64.5t133 -54.5q107 -35 152 -80.5
t45 -127.5q0 -104 -70 -163.5t-188 -59.5q-163 0 -277 120zM195 827l178 107l54 -97l-187 -87z" />
    <glyph glyph-name="sacute" unicode="&#x15b;" horiz-adv-x="520" 
d="M31 79l59 80q89 -68 167 -68q35 0 54.5 14.5t19.5 39.5q0 27 -20.5 42t-84.5 31q-87 22 -124.5 58.5t-37.5 100.5q0 76 54.5 119.5t145.5 43.5q122 0 210 -80l-59 -77q-78 56 -145 56q-73 0 -73 -47q0 -27 23.5 -40t91.5 -33q88 -25 125.5 -59t37.5 -98q0 -83 -57 -129
t-154 -46q-137 0 -233 92zM161 645l156 143l69 -83l-166 -126z" />
    <glyph glyph-name="Scircumflex" unicode="&#x15c;" horiz-adv-x="611" 
d="M29 107l69 85q108 -90 213 -90q48 0 78.5 25.5t30.5 68.5q0 42 -31 67.5t-120 50.5q-114 32 -162.5 78.5t-48.5 130.5q0 102 69.5 155.5t180.5 53.5q145 0 246 -101l-67 -82q-80 71 -176 71q-50 0 -80.5 -21.5t-30.5 -61.5q0 -43 34 -64.5t133 -54.5q107 -35 152 -80.5
t45 -127.5q0 -104 -70 -163.5t-188 -59.5q-163 0 -277 120zM272 923h79l109 -113l-58 -49l-88 66l-87 -66l-60 50z" />
    <glyph glyph-name="scircumflex" unicode="&#x15d;" horiz-adv-x="520" 
d="M31 79l59 80q89 -68 167 -68q35 0 54.5 14.5t19.5 39.5q0 27 -20.5 42t-84.5 31q-87 22 -124.5 58.5t-37.5 100.5q0 76 54.5 119.5t145.5 43.5q122 0 210 -80l-59 -77q-78 56 -145 56q-73 0 -73 -47q0 -27 23.5 -40t91.5 -33q88 -25 125.5 -59t37.5 -98q0 -83 -57 -129
t-154 -46q-137 0 -233 92zM225 761h79l111 -144l-58 -41l-91 89l-91 -89l-61 40z" />
    <glyph glyph-name="Scedilla" unicode="&#x15e;" horiz-adv-x="611" 
d="M215 -205l15 57q28 -10 57 -10q41 0 41 30q0 31 -59 31h-18l19 86q-141 12 -241 118l69 85q108 -90 213 -90q48 0 78.5 25.5t30.5 68.5q0 42 -31 67.5t-120 50.5q-114 32 -162.5 78.5t-48.5 130.5q0 102 69.5 155.5t180.5 53.5q145 0 246 -101l-67 -82q-80 71 -176 71
q-50 0 -80.5 -21.5t-30.5 -61.5q0 -43 34 -64.5t133 -54.5q107 -35 152 -80.5t45 -127.5q0 -97 -61.5 -155.5t-168.5 -66.5l-8 -40q18 -2 30.5 -5.5t27 -11.5t22 -23t7.5 -37q0 -45 -30.5 -68.5t-80.5 -23.5q-52 0 -87 16z" />
    <glyph glyph-name="scedilla" unicode="&#x15f;" horiz-adv-x="520" 
d="M156 -205l15 57q28 -10 57 -10q41 0 41 30q0 31 -59 31h-18l19 88q-106 16 -180 88l56 76q38 -29 84.5 -47t84.5 -18q35 0 55 15t20 40q0 27 -21 42t-84 31q-89 23 -129 58.5t-40 98.5q0 76 56 120.5t151 44.5q120 0 210 -82l-56 -73q-75 54 -146 54q-73 0 -73 -47
q0 -27 23 -40.5t90 -32.5q88 -25 125.5 -59t37.5 -98q0 -80 -54 -126t-146 -49l-8 -39q18 -2 30.5 -5.5t27 -11.5t22 -23t7.5 -37q0 -45 -30.5 -68.5t-80.5 -23.5q-52 0 -87 16z" />
    <glyph glyph-name="Scaron" unicode="&#x160;" horiz-adv-x="611" 
d="M29 107l69 85q108 -90 213 -90q48 0 78.5 25.5t30.5 68.5q0 42 -31 67.5t-120 50.5q-114 32 -162.5 78.5t-48.5 130.5q0 102 69.5 155.5t180.5 53.5q145 0 246 -101l-67 -82q-80 71 -176 71q-50 0 -80.5 -21.5t-30.5 -61.5q0 -43 34 -64.5t133 -54.5q107 -35 152 -80.5
t45 -127.5q0 -104 -70 -163.5t-188 -59.5q-163 0 -277 120zM344 761h-79l-105 112l60 50l87 -66l88 66l58 -49z" />
    <glyph glyph-name="scaron" unicode="&#x161;" horiz-adv-x="520" 
d="M31 79l59 80q89 -68 167 -68q35 0 54.5 14.5t19.5 39.5q0 27 -20.5 42t-84.5 31q-87 22 -124.5 58.5t-37.5 100.5q0 76 54.5 119.5t145.5 43.5q122 0 210 -80l-59 -77q-78 56 -145 56q-73 0 -73 -47q0 -27 23.5 -40t91.5 -33q88 -25 125.5 -59t37.5 -98q0 -83 -57 -129
t-154 -46q-137 0 -233 92zM303 581h-79l-108 142l59 44l90 -90l91 89l58 -41z" />
    <glyph glyph-name="uni0162" unicode="&#x162;" horiz-adv-x="613" 
d="M238 0v598h-216v122h569v-122h-215v-598h-42l-10 -52q18 -2 30.5 -5.5t27 -11.5t22 -23t7.5 -37q0 -45 -30.5 -68.5t-80.5 -23.5q-52 0 -87 16l15 57q28 -10 57 -10q41 0 41 30q0 31 -59 31h-18l21 97h-32z" />
    <glyph glyph-name="uni0163" unicode="&#x163;" horiz-adv-x="355" 
d="M104 -205l15 57q28 -10 57 -10q41 0 41 30q0 31 -59 31h-18l20 92q-65 22 -65 110v323h-69v77l71 22l14 152h116v-151h84v-100h-84v-296q0 -43 34 -43q35 0 62 9l13 -91q-48 -16 -113 -20l-8 -39q18 -2 30.5 -5.5t27 -11.5t22 -23t7.5 -37q0 -45 -30.5 -68.5t-80.5 -23.5
q-52 0 -87 16z" />
    <glyph glyph-name="Tcaron" unicode="&#x164;" horiz-adv-x="613" 
d="M238 0v598h-216v122h569v-122h-215v-598h-138zM339 761h-79l-105 112l60 50l87 -66l88 66l58 -49z" />
    <glyph glyph-name="tcaron" unicode="&#x165;" horiz-adv-x="355" 
d="M322 428h-95v-296q0 -43 34 -43q35 0 62 9l13 -91q-58 -20 -124 -20q-117 0 -117 118v323h-69v77l71 22l14 152h116v-151h95v-100zM274 583l31 198h121l-54 -198h-98z" />
    <glyph glyph-name="Tbar" unicode="&#x166;" horiz-adv-x="613" 
d="M115 296v108h123v194h-216v122h569v-122h-215v-194h119v-108h-119v-296h-138v296h-123z" />
    <glyph glyph-name="tbar" unicode="&#x167;" horiz-adv-x="355" 
d="M311 428h-84v-89h84v-90h-84v-117q0 -43 34 -43q35 0 62 9l13 -91q-58 -20 -124 -20q-117 0 -117 118v144h-69v90h69v89h-69v77l71 22l14 152h116v-151h84v-100z" />
    <glyph glyph-name="Utilde" unicode="&#x168;" horiz-adv-x="711" 
d="M70 720h138v-442q0 -84 39 -126t109 -42q76 0 111.5 41.5t35.5 126.5v442h138v-448q0 -140 -73.5 -212t-212.5 -72q-137 0 -211 70t-74 214v448zM458 900l62 -23q-21 -100 -94 -100q-25 0 -70 16.5t-56 16.5q-13 0 -22 -8t-19 -29l-63 24q32 100 93 100q26 0 69.5 -17
t59.5 -17q14 0 22 7t18 30z" />
    <glyph glyph-name="utilde" unicode="&#x169;" horiz-adv-x="585" 
d="M518 0h-109l-11 69q-72 -82 -167 -82q-168 0 -168 183v358h133v-326q0 -52 18 -77.5t61 -25.5q61 0 110 57v372h133v-528zM381 717l62 -23q-21 -100 -94 -100q-25 0 -70 16.5t-56 16.5q-13 0 -22 -8t-19 -29l-63 24q32 100 93 100q26 0 69.5 -17t59.5 -17q14 0 22 7
t18 30z" />
    <glyph glyph-name="Umacron" unicode="&#x16a;" horiz-adv-x="711" 
d="M70 720h138v-442q0 -84 39 -126t109 -42q76 0 111.5 41.5t35.5 126.5v442h138v-448q0 -140 -73.5 -212t-212.5 -72q-137 0 -211 70t-74 214v448zM217 784v89h283v-89h-283z" />
    <glyph glyph-name="umacron" unicode="&#x16b;" horiz-adv-x="585" 
d="M518 0h-109l-11 69q-72 -82 -167 -82q-168 0 -168 183v358h133v-326q0 -52 18 -77.5t61 -25.5q61 0 110 57v372h133v-528zM150 608v89h283v-89h-283z" />
    <glyph glyph-name="Ubreve" unicode="&#x16c;" horiz-adv-x="711" 
d="M70 720h138v-442q0 -84 39 -126t109 -42q76 0 111.5 41.5t35.5 126.5v442h138v-448q0 -140 -73.5 -212t-212.5 -72q-137 0 -211 70t-74 214v448zM360 843q39 0 56 16.5t21 46.5l80 -13q-7 -64 -45 -95.5t-112 -31.5q-75 0 -112 30t-47 97l83 14q6 -32 22.5 -48t53.5 -16z
" />
    <glyph glyph-name="ubreve" unicode="&#x16d;" horiz-adv-x="585" 
d="M518 0h-109l-11 69q-72 -82 -167 -82q-168 0 -168 183v358h133v-326q0 -52 18 -77.5t61 -25.5q61 0 110 57v372h133v-528zM296 668q67 0 77 70l80 -13q-12 -134 -157 -134q-74 0 -111.5 32t-47.5 102l81 14q9 -37 25.5 -54t52.5 -17z" />
    <glyph glyph-name="Uring" unicode="&#x16e;" horiz-adv-x="711" 
d="M70 720h138v-442q0 -84 39 -126t109 -42q76 0 111.5 41.5t35.5 126.5v442h138v-448q0 -140 -73.5 -212t-212.5 -72q-137 0 -211 70t-74 214v448zM320 835q0 -39 42 -39q40 0 40 41q0 39 -40 39q-42 0 -42 -41zM260 833q0 44 29 70.5t73 26.5q43 0 71.5 -25.5t28.5 -67.5
q0 -43 -28.5 -69t-71.5 -26q-46 0 -74 24t-28 67z" />
    <glyph glyph-name="uring" unicode="&#x16f;" horiz-adv-x="585" 
d="M518 0h-109l-11 69q-72 -82 -167 -82q-168 0 -168 183v358h133v-326q0 -52 18 -77.5t61 -25.5q61 0 110 57v372h133v-528zM256 668q0 -39 42 -39q40 0 40 41q0 39 -40 39q-42 0 -42 -41zM196 666q0 44 29 70.5t73 26.5q43 0 71.5 -25.5t28.5 -67.5q0 -43 -28.5 -69
t-71.5 -26q-46 0 -74 24t-28 67z" />
    <glyph glyph-name="Uhungarumlaut" unicode="&#x170;" horiz-adv-x="711" 
d="M70 720h138v-442q0 -84 39 -126t109 -42q76 0 111.5 41.5t35.5 126.5v442h138v-448q0 -140 -73.5 -212t-212.5 -72q-137 0 -211 70t-74 214v448zM326 960l81 -63l-132 -146l-65 51zM494 945l76 -68l-132 -127l-61 56z" />
    <glyph glyph-name="uhungarumlaut" unicode="&#x171;" horiz-adv-x="585" 
d="M518 0h-109l-11 69q-72 -82 -167 -82q-168 0 -168 183v358h133v-326q0 -52 18 -77.5t61 -25.5q61 0 110 57v372h133v-528zM249 780l82 -49l-112 -150l-68 41zM404 767l81 -50l-112 -136l-66 41z" />
    <glyph glyph-name="Uogonek" unicode="&#x172;" horiz-adv-x="711" 
d="M70 720h138v-442q0 -84 39 -126t109 -42q76 0 111.5 41.5t35.5 126.5v442h138v-448q0 -98 -36.5 -156.5t-109.5 -105.5q-44 -29 -69 -64.5t-25 -62.5q0 -32 29 -32q27 0 55 12l19 -64q-51 -30 -110 -30q-97 0 -97 79q0 71 74 140h-16q-137 0 -211 70t-74 214v448z" />
    <glyph glyph-name="uogonek" unicode="&#x173;" horiz-adv-x="585" 
d="M518 0q-86 -70 -86 -117q0 -32 29 -32q27 0 55 12l19 -64q-51 -30 -110 -30q-97 0 -97 79q0 73 81 152l-11 69q-72 -82 -167 -82q-168 0 -168 183v358h133v-326q0 -52 18 -77.5t61 -25.5q61 0 110 57v372h133v-528z" />
    <glyph glyph-name="Wcircumflex" unicode="&#x174;" horiz-adv-x="939" 
d="M198 0l-183 720h141l128 -541l123 541h126l125 -541l124 541h142l-183 -720h-147l-124 507l-122 -507h-150zM423 923h79l109 -113l-58 -49l-88 66l-87 -66l-60 50z" />
    <glyph glyph-name="wcircumflex" unicode="&#x175;" horiz-adv-x="786" 
d="M632 528h132l-139 -528h-144l-90 345l-87 -345h-144l-138 528h132l84 -377l91 377h125l101 -377zM352 761h79l111 -144l-58 -41l-91 89l-91 -89l-61 40z" />
    <glyph glyph-name="Ycircumflex" unicode="&#x176;" horiz-adv-x="639" 
d="M246 0v287l-236 433h151l156 -296l157 296h155l-244 -433v-287h-139zM279 923h79l109 -113l-58 -49l-88 66l-87 -66l-60 50z" />
    <glyph glyph-name="ycircumflex" unicode="&#x177;" horiz-adv-x="531" 
d="M382 528h133l-178 -507l-21.5 -61t-19.5 -49t-22.5 -43t-25.5 -30t-33 -24t-40.5 -11.5t-53.5 -5.5q-44 0 -89 12l10 94q37 -7 67 -7q32 0 51.5 14.5t34.5 59.5l5 15l-184 543h139l109 -390zM228 761h79l111 -144l-58 -41l-91 89l-91 -89l-61 40z" />
    <glyph glyph-name="Ydieresis" unicode="&#x178;" horiz-adv-x="639" 
d="M246 0v287l-236 433h151l156 -296l157 296h155l-244 -433v-287h-139zM149 833q0 27 18.5 44.5t50.5 17.5q34 0 52 -17.5t18 -44.5t-19.5 -44t-50.5 -17q-33 0 -51 16.5t-18 44.5zM353 833q0 27 18.5 44.5t50.5 17.5q34 0 52 -17.5t18 -44.5t-19.5 -44t-50.5 -17
q-33 0 -51 16.5t-18 44.5z" />
    <glyph glyph-name="Zacute" unicode="&#x179;" horiz-adv-x="625" 
d="M36 0v88l347 510h-327v122h533v-55l-378 -544h377v-121h-552zM223 827l178 107l54 -97l-187 -87z" />
    <glyph glyph-name="zacute" unicode="&#x17a;" horiz-adv-x="476" 
d="M41 0v83l229 344h-224v101h394v-59l-242 -369h241v-100h-398zM143 645l156 143l69 -83l-166 -126z" />
    <glyph glyph-name="Zdotaccent" unicode="&#x17b;" horiz-adv-x="625" 
d="M36 0v88l347 510h-327v122h533v-55l-378 -544h377v-121h-552zM240 837q0 32 22.5 50t57.5 18t57 -18t22 -50t-22 -49.5t-57 -17.5q-34 0 -57 18t-23 49z" />
    <glyph glyph-name="zdotaccent" unicode="&#x17c;" horiz-adv-x="476" 
d="M41 0v83l229 344h-224v101h394v-59l-242 -369h241v-100h-398zM167 663q0 32 22.5 50t57.5 18t57 -18t22 -50q0 -31 -22 -48.5t-57 -17.5q-34 0 -57 17.5t-23 48.5z" />
    <glyph glyph-name="Zcaron" unicode="&#x17d;" horiz-adv-x="625" 
d="M36 0v88l347 510h-327v122h533v-55l-378 -544h377v-121h-552zM365 761h-79l-105 112l60 50l87 -66l88 66l58 -49z" />
    <glyph glyph-name="zcaron" unicode="&#x17e;" horiz-adv-x="476" 
d="M41 0v83l229 344h-224v101h394v-59l-242 -369h241v-100h-398zM288 581h-79l-108 142l59 44l90 -90l91 89l58 -41z" />
    <glyph glyph-name="longs" unicode="&#x17f;" horiz-adv-x="309" 
d="M83 0v431h-66v76l66 15v55q0 73 36.5 114t111.5 41q49 0 88 -11l-7 -87q-24 7 -46 7q-50 0 -50 -59v-582h-133z" />
    <glyph glyph-name="florin" unicode="&#x192;" horiz-adv-x="455" 
d="M-33 -105h39q28 0 42.5 14t23.5 55l76 358h-80v89h99l24 124q19 93 51.5 134t115.5 41h79v-98h-56q-33 0 -46 -19t-23 -69l-22 -113h91v-89h-108l-66 -310q-11 -52 -18 -79.5t-20.5 -58t-30 -43.5t-43 -22t-64.5 -9h-64v95z" />
    <glyph glyph-name="Scommaaccent" unicode="&#x218;" horiz-adv-x="611" 
d="M29 107l69 85q108 -90 213 -90q48 0 78.5 25.5t30.5 68.5q0 42 -31 67.5t-120 50.5q-114 32 -162.5 78.5t-48.5 130.5q0 102 69.5 155.5t180.5 53.5q145 0 246 -101l-67 -82q-80 71 -176 71q-50 0 -80.5 -21.5t-30.5 -61.5q0 -43 34 -64.5t133 -54.5q107 -35 152 -80.5
t45 -127.5q0 -104 -70 -163.5t-188 -59.5q-163 0 -277 120zM215 -233l40 176l110 -27l-62 -173z" />
    <glyph glyph-name="scommaaccent" unicode="&#x219;" horiz-adv-x="520" 
d="M31 79l59 80q89 -68 167 -68q35 0 54.5 14.5t19.5 39.5q0 27 -20.5 42t-84.5 31q-87 22 -124.5 58.5t-37.5 100.5q0 76 54.5 119.5t145.5 43.5q122 0 210 -80l-59 -77q-78 56 -145 56q-73 0 -73 -47q0 -27 23.5 -40t91.5 -33q88 -25 125.5 -59t37.5 -98q0 -83 -57 -129
t-154 -46q-137 0 -233 92zM163 -233l40 176l110 -27l-62 -173z" />
    <glyph glyph-name="uni021A" unicode="&#x21a;" horiz-adv-x="613" 
d="M238 0v598h-216v122h569v-122h-215v-598h-138zM206 -233l40 176l110 -27l-62 -173z" />
    <glyph glyph-name="uni021B" unicode="&#x21b;" horiz-adv-x="355" 
d="M322 428h-95v-296q0 -43 34 -43q35 0 62 9l13 -91q-58 -20 -124 -20q-117 0 -117 118v323h-69v77l71 22l14 152h116v-151h95v-100zM109 -233l40 176l110 -27l-62 -173z" />
    <glyph glyph-name="dotlessj" unicode="&#x237;" horiz-adv-x="260" 
d="M196 528v-578q0 -76 -34 -115t-110 -39q-49 0 -87 12l8 94q22 -5 43 -5q26 0 37 12.5t11 47.5v571h132z" />
    <glyph glyph-name="apostrophe" unicode="&#x2bc;" horiz-adv-x="500" 
d="M169 678q0 24 15.5 39t39.5 15q31 0 46.5 -21t15.5 -52q0 -46 -21 -76t-72 -48l-18 33q52 23 54 69q-5 -3 -16 -3q-19 0 -31.5 12.5t-12.5 31.5z" />
    <glyph glyph-name="circumflex" unicode="&#x2c6;" horiz-adv-x="500" 
d="M211 761h79l111 -144l-58 -41l-91 89l-91 -89l-61 40z" />
    <glyph glyph-name="caron" unicode="&#x2c7;" horiz-adv-x="500" 
d="M290 581h-79l-108 142l59 44l90 -90l91 89l58 -41z" />
    <glyph glyph-name="uni02C9" unicode="&#x2c9;" horiz-adv-x="500" 
d="M109 608v89h283v-89h-283z" />
    <glyph glyph-name="breve" unicode="&#x2d8;" horiz-adv-x="500" 
d="M250 668q67 0 77 70l80 -13q-12 -134 -157 -134q-74 0 -111.5 32t-47.5 102l81 14q9 -37 25.5 -54t52.5 -17z" />
    <glyph glyph-name="dotaccent" unicode="&#x2d9;" horiz-adv-x="500" 
d="M170 663q0 32 22.5 50t57.5 18t57 -18t22 -50q0 -31 -22 -48.5t-57 -17.5q-34 0 -57 17.5t-23 48.5z" />
    <glyph glyph-name="ring" unicode="&#x2da;" horiz-adv-x="500" 
d="M209 668q0 -39 42 -39q40 0 40 41q0 39 -40 39q-42 0 -42 -41zM149 666q0 44 29 70.5t73 26.5q43 0 71.5 -25.5t28.5 -67.5q0 -43 -28.5 -69t-71.5 -26q-46 0 -74 24t-28 67z" />
    <glyph glyph-name="ogonek" unicode="&#x2db;" horiz-adv-x="500" 
d="M250 15l77 -6v-9q-79 -75 -79 -117q0 -32 29 -32q27 0 55 12l19 -64q-51 -30 -110 -30q-97 0 -97 79q0 83 106 167z" />
    <glyph glyph-name="tilde" unicode="&#x2dc;" horiz-adv-x="500" 
d="M352 717l62 -23q-21 -100 -94 -100q-25 0 -70 16.5t-56 16.5q-13 0 -22 -8t-19 -29l-63 24q32 100 93 100q26 0 69.5 -17t59.5 -17q14 0 22 7t18 30z" />
    <glyph glyph-name="hungarumlaut" unicode="&#x2dd;" horiz-adv-x="500" 
d="M163 780l82 -49l-112 -150l-68 41zM318 767l81 -50l-112 -136l-66 41z" />
    <glyph glyph-name="uni0394" unicode="&#x394;" horiz-adv-x="704" 
d="M267 720h168l250 -720h-667zM192 112h311l-152 470z" />
    <glyph glyph-name="uni03A9" unicode="&#x3a9;" horiz-adv-x="825" 
d="M466 0v133q147 77 147 254q0 103 -52 161t-145 58t-146 -60t-53 -160q0 -170 132 -253v-133h-284v119h155v8q-62 35 -105.5 105t-43.5 164q0 157 94.5 247t250.5 90q157 0 250.5 -84.5t93.5 -238.5q0 -105 -49.5 -179.5t-117.5 -104.5v-7h158v-119h-285z" />
    <glyph glyph-name="uni03BC" unicode="&#x3bc;" horiz-adv-x="588" 
d="M516 0h-117v64q-39 -71 -118 -71q-53 0 -87 37v-230h-132v728h132v-330q0 -106 89 -106q64 0 101 64v372h132v-528z" />
    <glyph glyph-name="pi" unicode="&#x3c0;" horiz-adv-x="722" 
d="M672 528v-101h-79v-427h-131v427h-194v-427h-132v427h-86v101h622z" />
    <glyph glyph-name="Wgrave" unicode="&#x1e80;" horiz-adv-x="939" 
d="M198 0l-183 720h141l128 -541l123 541h126l125 -541l124 541h142l-183 -720h-147l-124 507l-122 -507h-150zM401 934l178 -107l-45 -77l-187 87z" />
    <glyph glyph-name="wgrave" unicode="&#x1e81;" horiz-adv-x="786" 
d="M632 528h132l-139 -528h-144l-90 345l-87 -345h-144l-138 528h132l84 -377l91 377h125l101 -377zM340 788l156 -143l-59 -66l-166 126z" />
    <glyph glyph-name="Wacute" unicode="&#x1e82;" horiz-adv-x="939" 
d="M198 0l-183 720h141l128 -541l123 541h126l125 -541l124 541h142l-183 -720h-147l-124 507l-122 -507h-150zM339 827l178 107l54 -97l-187 -87z" />
    <glyph glyph-name="wacute" unicode="&#x1e83;" horiz-adv-x="786" 
d="M632 528h132l-139 -528h-144l-90 345l-87 -345h-144l-138 528h132l84 -377l91 377h125l101 -377zM269 645l156 143l69 -83l-166 -126z" />
    <glyph glyph-name="Wdieresis" unicode="&#x1e84;" horiz-adv-x="939" 
d="M198 0l-183 720h141l128 -541l123 541h126l125 -541l124 541h142l-183 -720h-147l-124 507l-122 -507h-150zM301 833q0 27 18.5 44.5t50.5 17.5q34 0 52 -17.5t18 -44.5t-19.5 -44t-50.5 -17q-33 0 -51 16.5t-18 44.5zM505 833q0 27 18.5 44.5t50.5 17.5q34 0 52 -17.5
t18 -44.5t-19.5 -44t-50.5 -17q-33 0 -51 16.5t-18 44.5z" />
    <glyph glyph-name="wdieresis" unicode="&#x1e85;" horiz-adv-x="786" 
d="M632 528h132l-139 -528h-144l-90 345l-87 -345h-144l-138 528h132l84 -377l91 377h125l101 -377zM221 656q0 27 18.5 44.5t50.5 17.5q34 0 52 -17.5t18 -44.5t-19.5 -44t-50.5 -17q-33 0 -51 16.5t-18 44.5zM425 656q0 27 18.5 44.5t50.5 17.5q34 0 52 -17.5t18 -44.5
t-19.5 -44t-50.5 -17q-33 0 -51 16.5t-18 44.5z" />
    <glyph glyph-name="Ygrave" unicode="&#x1ef2;" horiz-adv-x="639" 
d="M246 0v287l-236 433h151l156 -296l157 296h155l-244 -433v-287h-139zM251 934l178 -107l-45 -77l-187 87z" />
    <glyph glyph-name="ygrave" unicode="&#x1ef3;" horiz-adv-x="531" 
d="M382 528h133l-178 -507l-21.5 -61t-19.5 -49t-22.5 -43t-25.5 -30t-33 -24t-40.5 -11.5t-53.5 -5.5q-44 0 -89 12l10 94q37 -7 67 -7q32 0 51.5 14.5t34.5 59.5l5 15l-184 543h139l109 -390zM195 788l156 -143l-59 -66l-166 126z" />
    <glyph glyph-name="endash" unicode="&#x2013;" horiz-adv-x="500" 
d="M0 226v85h500v-85h-500z" />
    <glyph glyph-name="emdash" unicode="&#x2014;" horiz-adv-x="1000" 
d="M0 225v86h1000v-86h-1000z" />
    <glyph glyph-name="quoteleft" unicode="&#x2018;" horiz-adv-x="206" 
d="M176 574q0 -27 -19.5 -44.5t-49.5 -17.5q-38 0 -57 23.5t-19 60.5q0 115 122 154l19 -45q-64 -27 -66 -81q8 4 19 4q23 0 37 -15.5t14 -38.5z" />
    <glyph glyph-name="quoteright" unicode="&#x2019;" horiz-adv-x="206" 
d="M30 661q0 27 19.5 44.5t49.5 17.5q38 0 57 -23.5t19 -60.5q0 -115 -122 -154l-19 45q64 27 66 81q-8 -4 -19 -4q-23 0 -37 15.5t-14 38.5z" />
    <glyph glyph-name="quotesinglbase" unicode="&#x201a;" horiz-adv-x="206" 
d="M34 42q0 27 19.5 44.5t49.5 17.5q38 0 57 -23.5t19 -60.5q0 -115 -122 -154l-19 45q64 27 66 81q-8 -4 -19 -4q-23 0 -37 15.5t-14 38.5z" />
    <glyph glyph-name="quotedblleft" unicode="&#x201c;" horiz-adv-x="382" 
d="M352 574q0 -27 -19.5 -44.5t-49.5 -17.5q-38 0 -57 23.5t-19 60.5q0 115 122 154l19 -45q-64 -27 -66 -81q8 4 19 4q23 0 37 -15.5t14 -38.5zM176 574q0 -27 -19.5 -44.5t-49.5 -17.5q-38 0 -57 23.5t-19 60.5q0 115 122 154l19 -45q-64 -27 -66 -81q8 4 19 4
q23 0 37 -15.5t14 -38.5z" />
    <glyph glyph-name="quotedblright" unicode="&#x201d;" horiz-adv-x="382" 
d="M30 661q0 27 19.5 44.5t49.5 17.5q38 0 57 -23.5t19 -60.5q0 -115 -122 -154l-19 45q64 27 66 81q-8 -4 -19 -4q-23 0 -37 15.5t-14 38.5zM206 661q0 27 19.5 44.5t49.5 17.5q38 0 57 -23.5t19 -60.5q0 -115 -122 -154l-19 45q64 27 66 81q-8 -4 -19 -4q-23 0 -37 15.5
t-14 38.5z" />
    <glyph glyph-name="quotedblbase" unicode="&#x201e;" horiz-adv-x="381" 
d="M34 42q0 27 19.5 44.5t49.5 17.5q38 0 57 -23.5t19 -60.5q0 -115 -122 -154l-19 45q64 27 66 81q-8 -4 -19 -4q-23 0 -37 15.5t-14 38.5zM209 42q0 27 19.5 44.5t49.5 17.5q38 0 57 -23.5t19 -60.5q0 -115 -122 -154l-19 45q64 27 66 81q-8 -4 -19 -4q-23 0 -37 15.5
t-14 38.5z" />
    <glyph glyph-name="dagger" unicode="&#x2020;" horiz-adv-x="502" 
d="M310 -105h-119v518h-153v106h153v201h119v-201h154v-106h-154v-518z" />
    <glyph glyph-name="daggerdbl" unicode="&#x2021;" horiz-adv-x="502" 
d="M311 -105h-120v197h-153v107h153v214h-153v106h153v201h120v-201h152v-106h-152v-214h152v-107h-152v-197z" />
    <glyph glyph-name="bullet" unicode="&#x2022;" horiz-adv-x="500" 
d="M120 312q0 56 38.5 94t93.5 38q53 0 92.5 -38.5t39.5 -93.5t-39 -94t-94 -39q-56 0 -93.5 39t-37.5 94z" />
    <glyph glyph-name="ellipsis" unicode="&#x2026;" horiz-adv-x="870" 
d="M77 57q0 34 20 54t56 20q35 0 56 -19.5t21 -51.5q0 -33 -21 -53t-56 -20q-36 0 -56 19.5t-20 50.5zM640 57q0 34 20 54t56 20q35 0 56 -19.5t21 -51.5q0 -33 -21 -53t-56 -20q-36 0 -56 19.5t-20 50.5zM357 57q0 34 20 54t56 20q35 0 56 -19.5t21 -51.5q0 -33 -21 -53
t-56 -20q-36 0 -56 19.5t-20 50.5z" />
    <glyph glyph-name="perthousand" unicode="&#x2030;" horiz-adv-x="1208" 
d="M541 164q0 77 49.5 128t125.5 51q90 0 139 -61q57 61 143 61q76 0 124 -47.5t48 -128.5q0 -75 -50.5 -125.5t-123.5 -50.5q-96 0 -143 62q-54 -62 -139 -62q-77 0 -125 48t-48 125zM38 533q0 78 50.5 128.5t132.5 50.5q81 0 132 -49.5t51 -126.5q0 -76 -52 -126.5
t-131 -50.5q-84 0 -133.5 48t-49.5 126zM202 0l439 720h110l-441 -720h-108zM140 536q0 -39 22 -62.5t59 -23.5t58.5 24t21.5 62t-21.5 62.5t-58.5 24.5t-59 -24t-22 -63zM643 167q0 -39 22.5 -62.5t59.5 -23.5q36 0 57.5 24t21.5 62t-21.5 62.5t-57.5 24.5q-38 0 -60 -24.5
t-22 -62.5zM907 167q0 -39 22 -62.5t59 -23.5q36 0 57.5 24t21.5 62t-21.5 62.5t-57.5 24.5q-37 0 -59 -24.5t-22 -62.5z" />
    <glyph glyph-name="guilsinglleft" unicode="&#x2039;" horiz-adv-x="273" 
d="M247 374l-97 -114l97 -112l-55 -50l-159 142v41l159 145z" />
    <glyph glyph-name="guilsinglright" unicode="&#x203a;" horiz-adv-x="273" 
d="M123 260l-97 114l55 52l159 -145v-41l-159 -142l-55 50z" />
    <glyph glyph-name="fraction" unicode="&#x2044;" horiz-adv-x="133" 
d="M-210 0l441 720h103l-439 -720h-105z" />
    <glyph glyph-name="zerosuperior" unicode="&#x2070;" horiz-adv-x="386" 
d="M24 587q0 89 45 141.5t125 52.5q79 0 123.5 -52t44.5 -140q0 -91 -45.5 -143.5t-126.5 -52.5q-78 0 -122 50.5t-44 143.5zM131 587q0 -108 61 -108q62 0 62 107q0 109 -60 109q-63 0 -63 -108z" />
    <glyph glyph-name="foursuperior" unicode="&#x2074;" horiz-adv-x="381" 
d="M219 702l-106 -159h106v159zM219 400v64h-192v78l159 232h131v-231h40v-79h-40v-64h-98z" />
    <glyph glyph-name="fivesuperior" unicode="&#x2075;" horiz-adv-x="344" 
d="M38 533l18 241h233l-5 -80h-151l-7 -76q34 21 78 21q57 0 85 -30t28 -83q0 -63 -43 -98t-112 -35q-88 0 -148 47l32 58q53 -29 103 -29q70 0 70 55q0 46 -51 46q-27 0 -49 -16l-2 -21h-79z" />
    <glyph glyph-name="sixsuperior" unicode="&#x2076;" horiz-adv-x="365" 
d="M34 567q0 97 44.5 155.5t132.5 58.5q62 0 112 -26l-25 -64q-37 19 -76 19q-47 0 -67 -28.5t-22 -80.5q40 35 94 35q55 0 84 -31t29 -80q0 -65 -43 -98.5t-108 -33.5q-155 0 -155 174zM196 566q-30 0 -60 -26q2 -78 55 -78q52 0 52 54q0 50 -47 50z" />
    <glyph glyph-name="sevensuperior" unicode="&#x2077;" horiz-adv-x="326" 
d="M310 716l-138 -316h-106v9l130 281h-176v84h290v-58z" />
    <glyph glyph-name="eightsuperior" unicode="&#x2078;" horiz-adv-x="360" 
d="M112 504q0 -23 18 -35t47 -12q59 0 59 47q0 22 -20 35t-55 23q-15 -8 -24 -14.5t-17 -18t-8 -25.5zM136 683q0 -30 56 -51q40 25 40 54q0 35 -49 35q-47 0 -47 -38zM24 497q0 65 80 100q-64 26 -64 84q0 45 38 72.5t101 27.5q67 0 104 -24t37 -67q0 -56 -62 -86
q77 -34 77 -98q0 -54 -43.5 -83.5t-114.5 -29.5t-112 27.5t-41 76.5z" />
    <glyph glyph-name="ninesuperior" unicode="&#x2079;" horiz-adv-x="362" 
d="M332 607q0 -97 -45 -155.5t-133 -58.5q-61 0 -111 26l23 67q40 -20 78 -20q46 0 66 27.5t24 81.5q-40 -39 -96 -39q-54 0 -83.5 32t-29.5 81q0 65 43 98.5t108 33.5q156 0 156 -174zM172 607q35 0 60 25q0 81 -56 81q-26 0 -40 -14.5t-14 -40.5q0 -51 50 -51z" />
    <glyph glyph-name="zeroinferior" unicode="&#x2080;" horiz-adv-x="386" 
d="M24 91q0 89 45 141.5t125 52.5q79 0 123.5 -52t44.5 -140q0 -91 -45.5 -143.5t-126.5 -52.5q-78 0 -122 50.5t-44 143.5zM131 91q0 -108 61 -108q62 0 62 107q0 109 -60 109q-63 0 -63 -108z" />
    <glyph glyph-name="oneinferior" unicode="&#x2081;" horiz-adv-x="289" 
d="M232 -96h-107v250q-47 -9 -91 -3l-8 64q79 18 123 63h83v-374z" />
    <glyph glyph-name="twoinferior" unicode="&#x2082;" horiz-adv-x="338" 
d="M27 -96v62l125 122q20 19 27 27t15 21.5t8 26.5q0 36 -51 36q-43 0 -98 -39l-39 58q74 67 168 67q57 0 92.5 -28.5t35.5 -77.5q0 -58 -62 -113l-91 -81h154v-81h-284z" />
    <glyph glyph-name="threeinferior" unicode="&#x2083;" horiz-adv-x="342" 
d="M7 -52l36 60q57 -35 105 -35q65 0 65 44q0 41 -72 41q-18 0 -39 -3v75q92 2 92 47q0 34 -53 34q-39 0 -89 -24l-25 58q65 40 144 40q61 0 94 -24t33 -70q0 -32 -20.5 -56t-55.5 -34q95 -9 95 -91q0 -55 -42.5 -84t-112.5 -29q-96 0 -155 51z" />
    <glyph glyph-name="fourinferior" unicode="&#x2084;" horiz-adv-x="381" 
d="M219 206l-106 -159h106v159zM219 -96v64h-192v78l159 232h131v-231h40v-79h-40v-64h-98z" />
    <glyph glyph-name="fiveinferior" unicode="&#x2085;" horiz-adv-x="344" 
d="M38 37l18 241h233l-5 -80h-151l-7 -76q34 21 78 21q57 0 85 -30t28 -83q0 -63 -43 -98t-112 -35q-88 0 -148 47l32 58q53 -29 103 -29q70 0 70 55q0 46 -51 46q-27 0 -49 -16l-2 -21h-79z" />
    <glyph glyph-name="sixinferior" unicode="&#x2086;" horiz-adv-x="365" 
d="M34 71q0 97 44.5 155.5t132.5 58.5q62 0 112 -26l-25 -64q-37 19 -76 19q-47 0 -67 -28.5t-22 -80.5q40 35 94 35q55 0 84 -31t29 -80q0 -65 -43 -98.5t-108 -33.5q-155 0 -155 174zM196 70q-30 0 -60 -26q2 -78 55 -78q52 0 52 54q0 50 -47 50z" />
    <glyph glyph-name="seveninferior" unicode="&#x2087;" horiz-adv-x="326" 
d="M310 220l-138 -316h-106v9l130 281h-176v84h290v-58z" />
    <glyph glyph-name="eightinferior" unicode="&#x2088;" horiz-adv-x="360" 
d="M112 8q0 -23 18 -35t47 -12q59 0 59 47q0 22 -20 35t-55 23q-15 -8 -24 -14.5t-17 -18t-8 -25.5zM136 187q0 -30 56 -51q40 25 40 54q0 35 -49 35q-47 0 -47 -38zM24 1q0 65 80 100q-64 26 -64 84q0 45 38 72.5t101 27.5q67 0 104 -24t37 -67q0 -56 -62 -86
q77 -34 77 -98q0 -54 -43.5 -83.5t-114.5 -29.5t-112 27.5t-41 76.5z" />
    <glyph glyph-name="nineinferior" unicode="&#x2089;" horiz-adv-x="362" 
d="M332 111q0 -97 -45 -155.5t-133 -58.5q-61 0 -111 26l23 67q40 -20 78 -20q46 0 66 27.5t24 81.5q-40 -39 -96 -39q-54 0 -83.5 32t-29.5 81q0 65 43 98.5t108 33.5q156 0 156 -174zM172 111q35 0 60 25q0 81 -56 81q-26 0 -40 -14.5t-14 -40.5q0 -51 50 -51z" />
    <glyph glyph-name="Euro" unicode="&#x20ac;" horiz-adv-x="616" 
d="M0 386l6 77h69q25 112 100.5 184.5t187.5 72.5q144 0 231 -109l-64 -67q-31 34 -75 54.5t-89 20.5q-63 0 -105 -42t-60 -114h289l-6 -77h-294q-1 -13 -1 -33q0 -10 2 -36h287l-7 -77h-267q16 -68 59.5 -105.5t104.5 -37.5q92 0 170 68l58 -75q-110 -103 -247 -103
q-108 0 -180.5 70.5t-92.5 182.5h-88l7 77h71q-2 26 -2 35q0 21 1 34h-65z" />
    <glyph glyph-name="trademark" unicode="&#x2122;" horiz-adv-x="636" 
d="M598 455h-56l-17 175l-62 -175h-44l-60 175l-18 -175h-57l29 265h67l63 -181l62 181h63zM114 455v210h-85v55h229v-55h-85v-210h-59z" />
    <glyph glyph-name="Omega" unicode="&#x2126;" horiz-adv-x="825" 
d="M466 0v133q147 77 147 254q0 103 -52 161t-145 58t-146 -60t-53 -160q0 -170 132 -253v-133h-284v119h155v8q-62 35 -105.5 105t-43.5 164q0 157 94.5 247t250.5 90q157 0 250.5 -84.5t93.5 -238.5q0 -105 -49.5 -179.5t-117.5 -104.5v-7h158v-119h-285z" />
    <glyph glyph-name="onethird" unicode="&#x2153;" horiz-adv-x="885" 
d="M117 0l441 720h103l-439 -720h-105zM239 350h-107v250q-47 -9 -91 -3l-8 64q79 18 123 63h83v-374zM506 44l36 60q57 -35 105 -35q65 0 65 44q0 41 -72 41q-18 0 -39 -3v75q92 2 92 47q0 34 -53 34q-39 0 -89 -24l-25 58q65 40 144 40q61 0 94 -24t33 -70
q0 -32 -20.5 -56t-55.5 -34q95 -9 95 -91q0 -55 -42.5 -84t-112.5 -29q-97 0 -155 51z" />
    <glyph glyph-name="twothirds" unicode="&#x2154;" horiz-adv-x="885" 
d="M186 0l441 720h103l-439 -720h-105zM46 350v62l125 122q20 19 27 27t15 21.5t8 26.5q0 36 -51 36q-43 0 -98 -39l-39 58q74 67 168 67q57 0 92.5 -28.5t35.5 -77.5q0 -58 -62 -113l-91 -81h154v-81h-284zM557 44l36 60q57 -35 105 -35q65 0 65 44q0 41 -72 41
q-18 0 -39 -3v75q92 2 92 47q0 34 -53 34q-39 0 -89 -24l-25 58q65 40 144 40q61 0 94 -24t33 -70q0 -32 -20.5 -56t-55.5 -34q95 -9 95 -91q0 -55 -42.5 -84t-112.5 -29q-97 0 -155 51z" />
    <glyph glyph-name="oneeighth" unicode="&#x215b;" horiz-adv-x="885" 
d="M133 0l441 720h103l-439 -720h-105zM253 350h-107v250q-47 -9 -91 -3l-8 64q79 18 123 63h83v-374zM590 104q0 -23 18 -35t47 -12q59 0 59 47q0 22 -20 35t-55 23q-15 -8 -24 -14.5t-17 -18t-8 -25.5zM614 283q0 -30 56 -51q40 25 40 54q0 35 -49 35q-47 0 -47 -38z
M502 97q0 65 80 100q-64 26 -64 84q0 45 38 72.5t101 27.5q67 0 104 -24t37 -67q0 -56 -62 -86q77 -34 77 -98q0 -54 -43.5 -83.5t-114.5 -29.5t-112 27.5t-41 76.5z" />
    <glyph glyph-name="threeeighths" unicode="&#x215c;" horiz-adv-x="885" 
d="M163 0l441 720h103l-439 -720h-105zM608 104q0 -23 18 -35t47 -12q59 0 59 47q0 22 -20 35t-55 23q-15 -8 -24 -14.5t-17 -18t-8 -25.5zM632 283q0 -30 56 -51q40 25 40 54q0 35 -49 35q-47 0 -47 -38zM520 97q0 65 80 100q-64 26 -64 84q0 45 38 72.5t101 27.5
q67 0 104 -24t37 -67q0 -56 -62 -86q77 -34 77 -98q0 -54 -43.5 -83.5t-114.5 -29.5t-112 27.5t-41 76.5zM40 394l36 60q57 -35 105 -35q65 0 65 44q0 41 -72 41q-18 0 -39 -3v75q92 2 92 47q0 34 -53 34q-39 0 -89 -24l-25 58q65 40 144 40q61 0 94 -24t33 -70
q0 -32 -20.5 -56t-55.5 -34q95 -9 95 -91q0 -55 -42.5 -84t-112.5 -29q-97 0 -155 51z" />
    <glyph glyph-name="fiveeighths" unicode="&#x215d;" horiz-adv-x="885" 
d="M166 0l441 720h103l-439 -720h-105zM71 483l18 241h233l-5 -80h-151l-7 -76q34 21 78 21q57 0 85 -30t28 -83q0 -63 -43 -98t-112 -35q-88 0 -148 47l32 58q53 -29 103 -29q70 0 70 55q0 46 -51 46q-27 0 -49 -16l-2 -21h-79zM618 104q0 -23 18 -35t47 -12q59 0 59 47
q0 22 -20 35t-55 23q-15 -8 -24 -14.5t-17 -18t-8 -25.5zM642 283q0 -30 56 -51q40 25 40 54q0 35 -49 35q-47 0 -47 -38zM530 97q0 65 80 100q-64 26 -64 84q0 45 38 72.5t101 27.5q67 0 104 -24t37 -67q0 -56 -62 -86q77 -34 77 -98q0 -54 -43.5 -83.5t-114.5 -29.5
t-112 27.5t-41 76.5z" />
    <glyph glyph-name="seveneighths" unicode="&#x215e;" horiz-adv-x="885" 
d="M132 0l441 720h103l-439 -720h-105zM602 104q0 -23 18 -35t47 -12q59 0 59 47q0 22 -20 35t-55 23q-15 -8 -24 -14.5t-17 -18t-8 -25.5zM626 283q0 -30 56 -51q40 25 40 54q0 35 -49 35q-47 0 -47 -38zM514 97q0 65 80 100q-64 26 -64 84q0 45 38 72.5t101 27.5
q67 0 104 -24t37 -67q0 -56 -62 -86q77 -34 77 -98q0 -54 -43.5 -83.5t-114.5 -29.5t-112 27.5t-41 76.5zM344 666l-138 -316h-106v9l130 281h-176v84h290v-58z" />
    <glyph glyph-name="arrowleft" unicode="&#x2190;" horiz-adv-x="500" 
d="M500 311v-99h-329l93 -92l-65 -60l-199 201v1l197 201l66 -60l-92 -92h329z" />
    <glyph glyph-name="arrowright" unicode="&#x2192;" horiz-adv-x="500" 
d="M0 212v99h329l-92 92l66 60l197 -201v-1l-199 -201l-65 60l93 92h-329z" />
    <glyph glyph-name="arrowdown" unicode="&#x2193;" horiz-adv-x="500" 
d="M201 511h98v-336l92 93l60 -58l-200 -199l-203 198l60 58l93 -91v335z" />
    <glyph glyph-name="partialdiff" unicode="&#x2202;" horiz-adv-x="606" 
d="M244 -13q-89 0 -143.5 53.5t-54.5 148.5q0 112 60.5 186.5t165.5 74.5q50 0 91.5 -27.5t53.5 -74.5q6 62 6 84q0 169 -125 169q-70 0 -133 -32l-34 80q86 52 189 52q108 0 164.5 -69t56.5 -203q0 -63 -8.5 -122.5t-30.5 -118.5t-54.5 -102.5t-85 -71t-118.5 -27.5z
M262 87q59 0 93.5 45t34.5 101q0 58 -26 89t-72 31q-60 0 -90.5 -46.5t-30.5 -108.5q0 -54 24.5 -82.5t66.5 -28.5z" />
    <glyph glyph-name="Delta" unicode="&#x2206;" horiz-adv-x="704" 
d="M267 720h168l250 -720h-667zM192 112h311l-152 470z" />
    <glyph glyph-name="product" unicode="&#x220f;" horiz-adv-x="733" 
d="M80 -140v860h573v-860h-138v743h-297v-743h-138z" />
    <glyph glyph-name="summation" unicode="&#x2211;" horiz-adv-x="597" 
d="M543 601h-322l187 -284l-189 -317h352v-119h-560v52l233 384l-233 351v52h532v-119z" />
    <glyph glyph-name="minus" unicode="&#x2212;" 
d="M560 336v-84h-520v84h520z" />
    <glyph glyph-name="uni2215" unicode="&#x2215;" horiz-adv-x="133" 
d="M-210 0l441 720h103l-439 -720h-105z" />
    <glyph glyph-name="uni2219" unicode="&#x2219;" horiz-adv-x="299" 
d="M78 334q0 35 20 54.5t56 19.5q35 0 56.5 -19.5t21.5 -51.5t-21.5 -52t-56.5 -20q-36 0 -56 19.5t-20 49.5z" />
    <glyph glyph-name="radical" unicode="&#x221a;" horiz-adv-x="753" 
d="M38 232v95h222l117 -341l281 838h118l-336 -990h-124l-146 398h-132z" />
    <glyph glyph-name="infinity" unicode="&#x221e;" horiz-adv-x="784" 
d="M733 314q0 -76 -42.5 -122.5t-104.5 -46.5q-33 0 -61 8t-54.5 27.5t-38 30t-37.5 36.5q-47 -50 -90.5 -76t-94.5 -26q-72 0 -115.5 41.5t-43.5 114.5t45 119t120 46q55 0 96.5 -27t83.5 -80q52 55 93 81.5t95 26.5q72 0 110.5 -44t38.5 -109zM642 306q0 83 -75 83
q-30 0 -56 -19.5t-65 -64.5q72 -83 125 -83q35 0 53 24.5t18 59.5zM344 304q-63 84 -120 84q-40 0 -61 -24t-21 -60q0 -38 21 -60.5t61 -22.5q27 0 59.5 22.5t60.5 60.5z" />
    <glyph glyph-name="integral" unicode="&#x222b;" horiz-adv-x="357" 
d="M-8 -102h62q35 0 52.5 20.5t17.5 70.5v627q0 174 158 174h75v-97h-55q-29 1 -41.5 -17.5t-12.5 -57.5v-638q0 -180 -183 -180h-73v98z" />
    <glyph glyph-name="approxequal" unicode="&#x2248;" horiz-adv-x="743" 
d="M649 266l55 -96q-99 -77 -206 -77q-46 0 -133 30.5t-125 30.5q-62 0 -158 -59l-53 95q111 77 206 77q45 0 131.5 -30t124.5 -30q68 0 158 59zM651 471l55 -96q-99 -77 -206 -77q-46 0 -133 30.5t-125 30.5q-62 0 -158 -59l-53 95q111 77 206 77q45 0 131.5 -30t124.5 -30
q68 0 158 59z" />
    <glyph glyph-name="notequal" unicode="&#x2260;" 
d="M560 243v-85h-282l-96 -158h-105l96 158h-134v85h186l60 97h-246v84h297l61 99h103l-61 -99h121v-84h-172l-59 -97h231z" />
    <glyph glyph-name="lessequal" unicode="&#x2264;" 
d="M560 85v-85h-520v85h520zM524 126l-484 212v62l482 212l36 -84l-362 -158l364 -157z" />
    <glyph glyph-name="greaterequal" unicode="&#x2265;" 
d="M40 0v85h520v-85h-520zM560 338l-484 -212l-36 87l364 157l-362 158l36 84l482 -212v-62z" />
    <glyph glyph-name="triangle" unicode="&#x25b3;" horiz-adv-x="425" 
d="M335 320l-185 -117v231z" />
    <glyph glyph-name="lozenge" unicode="&#x25ca;" horiz-adv-x="625" 
d="M262 0l-193 352l193 348h93l202 -346l-202 -354h-93zM310 589l-128 -238l128 -240l133 240z" />
    <glyph glyph-name="circle" unicode="&#x25cb;" horiz-adv-x="610" 
d="M305 119q-85 0 -145 60t-60 145t60 145t145 60t145 -60t60 -145t-60 -145t-145 -60z" />
    <glyph glyph-name="onefifth" unicode="&#xf500;" horiz-adv-x="885" 
d="M127 0l441 720h103l-439 -720h-105zM258 350h-107v250q-47 -9 -91 -3l-8 64q79 18 123 63h83v-374zM527 133l18 241h233l-5 -80h-151l-7 -76q34 21 78 21q57 0 85 -30t28 -83q0 -63 -43 -98t-112 -35q-88 0 -148 47l32 58q53 -29 103 -29q70 0 70 55q0 46 -51 46
q-27 0 -49 -16l-2 -21h-79z" />
    <glyph glyph-name="twofifths" unicode="&#xf501;" horiz-adv-x="885" 
d="M181 0l441 720h103l-439 -720h-105zM49 350v62l125 122q20 19 27 27t15 21.5t8 26.5q0 36 -51 36q-43 0 -98 -39l-39 58q74 67 168 67q57 0 92.5 -28.5t35.5 -77.5q0 -58 -62 -113l-91 -81h154v-81h-284zM566 133l18 241h233l-5 -80h-151l-7 -76q34 21 78 21q57 0 85 -30
t28 -83q0 -63 -43 -98t-112 -35q-88 0 -148 47l32 58q53 -29 103 -29q70 0 70 55q0 46 -51 46q-27 0 -49 -16l-2 -21h-79z" />
    <glyph glyph-name="threefifths" unicode="&#xf502;" horiz-adv-x="885" 
d="M176 0l441 720h103l-439 -720h-105zM565 133l18 241h233l-5 -80h-151l-7 -76q34 21 78 21q57 0 85 -30t28 -83q0 -63 -43 -98t-112 -35q-88 0 -148 47l32 58q53 -29 103 -29q70 0 70 55q0 46 -51 46q-27 0 -49 -16l-2 -21h-79zM61 394l36 60q57 -35 105 -35q65 0 65 44
q0 41 -72 41q-18 0 -39 -3v75q92 2 92 47q0 34 -53 34q-39 0 -89 -24l-25 58q65 40 144 40q61 0 94 -24t33 -70q0 -32 -20.5 -56t-55.5 -34q95 -9 95 -91q0 -55 -42.5 -84t-112.5 -29q-96 0 -155 51z" />
    <glyph glyph-name="fourfifths" unicode="&#xf503;" horiz-adv-x="885" 
d="M177 0l441 720h103l-439 -720h-105zM564 133l18 241h233l-5 -80h-151l-7 -76q34 21 78 21q57 0 85 -30t28 -83q0 -63 -43 -98t-112 -35q-88 0 -148 47l32 58q53 -29 103 -29q70 0 70 55q0 46 -51 46q-27 0 -49 -16l-2 -21h-79zM219 652l-106 -159h106v159zM219 350v64
h-192v78l159 232h131v-231h40v-79h-40v-64h-98z" />
    <glyph glyph-name="onesixth" unicode="&#xf504;" horiz-adv-x="885" 
d="M135 0l441 720h103l-439 -720h-105zM257 350h-107v250q-47 -9 -91 -3l-8 64q79 18 123 63h83v-374zM497 167q0 97 44.5 155.5t132.5 58.5q62 0 112 -26l-25 -64q-37 19 -76 19q-47 0 -67 -28.5t-22 -80.5q40 35 94 35q55 0 84 -31t29 -80q0 -65 -43 -98.5t-108 -33.5
q-155 0 -155 174zM659 166q-30 0 -60 -26q2 -78 55 -78q52 0 52 54q0 50 -47 50z" />
    <glyph glyph-name="fivesixths" unicode="&#xf505;" horiz-adv-x="885" 
d="M166 0l441 720h103l-439 -720h-105zM515 167q0 97 44.5 155.5t132.5 58.5q62 0 112 -26l-25 -64q-37 19 -76 19q-47 0 -67 -28.5t-22 -80.5q40 35 94 35q55 0 84 -31t29 -80q0 -65 -43 -98.5t-108 -33.5q-155 0 -155 174zM677 166q-30 0 -60 -26q2 -78 55 -78q52 0 52 54
q0 50 -47 50zM76 483l18 241h233l-5 -80h-151l-7 -76q34 21 78 21q57 0 85 -30t28 -83q0 -63 -43 -98t-112 -35q-88 0 -148 47l32 58q53 -29 103 -29q70 0 70 55q0 46 -51 46q-27 0 -49 -16l-2 -21h-79z" />
    <glyph glyph-name="oneseventh" unicode="&#xf506;" horiz-adv-x="885" 
d="M113 0l441 720h103l-439 -720h-105zM233 350h-107v250q-47 -9 -91 -3l-8 64q79 18 123 63h83v-374zM822 316l-138 -316h-106v9l130 281h-176v84h290v-58z" />
    <glyph glyph-name="twosevenths" unicode="&#xf507;" horiz-adv-x="885" 
d="M179 0l441 720h103l-439 -720h-105zM45 350v62l125 122q20 19 27 27t15 21.5t8 26.5q0 36 -51 36q-43 0 -98 -39l-39 58q74 67 168 67q57 0 92.5 -28.5t35.5 -77.5q0 -58 -62 -113l-91 -81h154v-81h-284zM853 316l-138 -316h-106v9l130 281h-176v84h290v-58z" />
    <glyph glyph-name="threesevenths" unicode="&#xf508;" horiz-adv-x="885" 
d="M145 0l441 720h103l-439 -720h-105zM835 316l-138 -316h-106v9l130 281h-176v84h290v-58zM29 394l36 60q57 -35 105 -35q65 0 65 44q0 41 -72 41q-18 0 -39 -3v75q92 2 92 47q0 34 -53 34q-39 0 -89 -24l-25 58q65 40 144 40q61 0 94 -24t33 -70q0 -32 -20.5 -56
t-55.5 -34q95 -9 95 -91q0 -55 -42.5 -84t-112.5 -29q-96 0 -155 51z" />
    <glyph glyph-name="foursevenths" unicode="&#xf509;" horiz-adv-x="885" 
d="M158 0l441 720h103l-439 -720h-105zM211 652l-106 -159h106v159zM211 350v64h-192v78l159 232h131v-231h40v-79h-40v-64h-98zM845 316l-138 -316h-106v9l130 281h-176v84h290v-58z" />
    <glyph glyph-name="fivesevenths" unicode="&#xf50a;" horiz-adv-x="885" 
d="M144 0l441 720h103l-439 -720h-105zM61 483l18 241h233l-5 -80h-151l-7 -76q34 21 78 21q57 0 85 -30t28 -83q0 -63 -43 -98t-112 -35q-88 0 -148 47l32 58q53 -29 103 -29q70 0 70 55q0 46 -51 46q-27 0 -49 -16l-2 -21h-79zM833 316l-138 -316h-106v9l130 281h-176v84
h290v-58z" />
    <glyph glyph-name="sixsevenths" unicode="&#xf50b;" horiz-adv-x="885" 
d="M151 0l441 720h103l-439 -720h-105zM36 517q0 97 44.5 155.5t132.5 58.5q62 0 112 -26l-25 -64q-37 19 -76 19q-47 0 -67 -28.5t-22 -80.5q40 35 94 35q55 0 84 -31t29 -80q0 -65 -43 -98.5t-108 -33.5q-155 0 -155 174zM198 516q-30 0 -60 -26q2 -78 55 -78q52 0 52 54
q0 50 -47 50zM849 316l-138 -316h-106v9l130 281h-176v84h290v-58z" />
    <glyph glyph-name="oneninth" unicode="&#xf50c;" horiz-adv-x="885" 
d="M136 0l441 720h103l-439 -720h-105zM250 350h-107v250q-47 -9 -91 -3l-8 64q79 18 123 63h83v-374zM833 207q0 -97 -45 -155.5t-133 -58.5q-61 0 -111 26l23 67q40 -20 78 -20q46 0 66 27.5t24 81.5q-41 -39 -96 -39q-54 0 -83.5 32t-29.5 81q0 65 43 98.5t108 33.5
q156 0 156 -174zM673 207q35 0 60 25q0 81 -56 81q-26 0 -40 -14.5t-14 -40.5q0 -51 50 -51z" />
    <glyph glyph-name="twoninths" unicode="&#xf50d;" horiz-adv-x="885" 
d="M194 0l441 720h103l-439 -720h-105zM52 350v62l125 122q20 19 27 27t15 21.5t8 26.5q0 36 -51 36q-43 0 -98 -39l-39 58q74 67 168 67q57 0 92.5 -28.5t35.5 -77.5q0 -58 -62 -113l-91 -81h154v-81h-284zM855 207q0 -97 -45 -155.5t-133 -58.5q-61 0 -111 26l23 67
q40 -20 78 -20q46 0 66 27.5t24 81.5q-41 -39 -96 -39q-54 0 -83.5 32t-29.5 81q0 65 43 98.5t108 33.5q156 0 156 -174zM695 207q35 0 60 25q0 81 -56 81q-26 0 -40 -14.5t-14 -40.5q0 -51 50 -51z" />
    <glyph glyph-name="fourninths" unicode="&#xf50e;" horiz-adv-x="885" 
d="M189 0l441 720h103l-439 -720h-105zM229 652l-106 -159h106v159zM229 350v64h-192v78l159 232h131v-231h40v-79h-40v-64h-98zM853 207q0 -97 -45 -155.5t-133 -58.5q-61 0 -111 26l23 67q40 -20 78 -20q46 0 66 27.5t24 81.5q-41 -39 -96 -39q-54 0 -83.5 32t-29.5 81
q0 65 43 98.5t108 33.5q156 0 156 -174zM693 207q35 0 60 25q0 81 -56 81q-26 0 -40 -14.5t-14 -40.5q0 -51 50 -51z" />
    <glyph glyph-name="fiveninths" unicode="&#xf50f;" horiz-adv-x="885" 
d="M154 0l441 720h103l-439 -720h-105zM64 483l18 241h233l-5 -80h-151l-7 -76q34 21 78 21q57 0 85 -30t28 -83q0 -63 -43 -98t-112 -35q-88 0 -148 47l32 58q53 -29 103 -29q70 0 70 55q0 46 -51 46q-27 0 -49 -16l-2 -21h-79zM824 207q0 -97 -45 -155.5t-133 -58.5
q-61 0 -111 26l23 67q40 -20 78 -20q46 0 66 27.5t24 81.5q-40 -39 -96 -39q-54 0 -83.5 32t-29.5 81q0 65 43 98.5t108 33.5q156 0 156 -174zM664 207q35 0 60 25q0 81 -56 81q-26 0 -40 -14.5t-14 -40.5q0 -51 50 -51z" />
    <glyph glyph-name="sevenninths" unicode="&#xf510;" horiz-adv-x="885" 
d="M110 0l441 720h103l-439 -720h-105zM815 207q0 -97 -45 -155.5t-133 -58.5q-61 0 -111 26l23 67q40 -20 78 -20q46 0 66 27.5t24 81.5q-41 -39 -96 -39q-54 0 -83.5 32t-29.5 81q0 65 43 98.5t108 33.5q156 0 156 -174zM655 207q35 0 60 25q0 81 -56 81q-26 0 -40 -14.5
t-14 -40.5q0 -51 50 -51zM316 666l-138 -316h-106v9l130 281h-176v84h290v-58z" />
    <glyph glyph-name="eightninths" unicode="&#xf511;" horiz-adv-x="885" 
d="M168 0l441 720h103l-439 -720h-105zM830 207q0 -97 -45 -155.5t-133 -58.5q-61 0 -111 26l23 67q40 -20 78 -20q46 0 66 27.5t24 81.5q-40 -39 -96 -39q-54 0 -83.5 32t-29.5 81q0 65 43 98.5t108 33.5q156 0 156 -174zM670 207q35 0 60 25q0 81 -56 81q-26 0 -40 -14.5
t-14 -40.5q0 -51 50 -51zM139 454q0 -23 18 -35t47 -12q59 0 59 47q0 22 -20 35t-55 23q-15 -8 -24 -14.5t-17 -18t-8 -25.5zM163 633q0 -30 56 -51q40 25 40 54q0 35 -49 35q-47 0 -47 -38zM51 447q0 65 80 100q-64 26 -64 84q0 45 38 72.5t101 27.5q67 0 104 -24t37 -67
q0 -56 -62 -86q77 -34 77 -98q0 -54 -43.5 -83.5t-114.5 -29.5t-112 27.5t-41 76.5z" />
    <glyph glyph-name="zero.tosf" unicode="&#xf81e;" 
d="M178 305q0 -105 29 -155t92 -50t93 50t30 157q0 102 -30 147.5t-91 45.5q-123 0 -123 -195zM49 303q0 147 65.5 228t185.5 81q250 0 250 -305q0 -155 -63 -237.5t-188 -82.5t-187.5 81t-62.5 235z" />
    <glyph glyph-name="one.tosf" unicode="&#xf81f;" 
d="M272 100v339q-74 -40 -157 -50l-17 88q54 14 110 47.5t93 76.5h100v-501h131v-100h-407v100h147z" />
    <glyph glyph-name="two.tosf" unicode="&#xf820;" 
d="M82 0v77l219 218q46 45 64 71.5t18 60.5t-24 53.5t-63 19.5q-68 0 -168 -75l-61 79q114 108 247 108q88 0 148 -44.5t60 -129.5q0 -53 -21 -91t-75 -91l-151 -150h257v-106h-450z" />
    <glyph glyph-name="three.tosf" unicode="&#xf821;" 
d="M48 27l58 78q85 -70 172 -70q53 0 87 27t34 75q0 45 -31 67t-101 23q-40 0 -60 -4l-4 106q73 2 118.5 25.5t45.5 72.5q0 78 -97 78q-75 0 -147 -46l-49 81q103 72 221 72q90 0 143.5 -42t53.5 -122q0 -55 -35.5 -94t-97.5 -60v-3q80 -10 122.5 -52.5t42.5 -112.5
q0 -95 -69 -146t-170 -51q-143 0 -237 98z" />
    <glyph glyph-name="four.tosf" unicode="&#xf822;" 
d="M165 197h189v291zM354 -62v153h-311v101l269 409h167v-404h80v-106h-80v-153h-125z" />
    <glyph glyph-name="five.tosf" unicode="&#xf823;" 
d="M94 183l31 418h369l-8 -112h-260l-13 -157q53 44 130 44q89 0 140.5 -54.5t51.5 -153.5q0 -114 -69.5 -176.5t-176.5 -62.5q-129 0 -221 76l43 86q94 -51 164 -51q60 0 98 32.5t38 96.5q0 51 -26 80.5t-74 29.5q-65 0 -105 -42l-5 -54h-107z" />
    <glyph glyph-name="six.tosf" unicode="&#xf824;" 
d="M64 310q0 198 70 304t200 106q88 0 175 -52l-39 -87q-63 36 -123 36q-41 0 -72 -19.5t-49.5 -54.5t-28.5 -77t-12 -93q76 74 163 74q88 0 139.5 -58t51.5 -156q0 -123 -63.5 -184.5t-167.5 -61.5q-244 0 -244 323zM307 89q49 0 79 33t30 100q0 121 -103 121
q-36 0 -69.5 -18.5t-55.5 -41.5q3 -102 32 -148t87 -46z" />
    <glyph glyph-name="seven.tosf" unicode="&#xf825;" 
d="M523 545l-240 -605h-138v13l223 537h-308v111h463v-56z" />
    <glyph glyph-name="eight.tosf" unicode="&#xf826;" 
d="M185 189q0 -47 30 -73.5t85 -26.5q52 0 83.5 29.5t31.5 76.5q0 26 -11.5 47.5t-33.5 38t-40 26t-44 20.5q-101 -52 -101 -138zM219 539q0 -64 99 -108q33 18 57.5 48.5t24.5 64.5q0 81 -92 81q-42 0 -65.5 -23.5t-23.5 -62.5zM63 179q0 128 138 197q-49 21 -79.5 62.5
t-30.5 98.5q0 82 59.5 132.5t159.5 50.5q94 0 152 -47t58 -123q0 -54 -31.5 -96.5t-79.5 -69.5q138 -67 138 -188q0 -98 -68 -153.5t-182 -55.5q-111 0 -172.5 50.5t-61.5 141.5z" />
    <glyph glyph-name="nine.tosf" unicode="&#xf827;" 
d="M539 300q0 -200 -66.5 -286t-194.5 -86q-112 0 -190 56l38 85q67 -40 138 -40q76 0 108 49.5t44 148.5q-74 -69 -160 -69q-91 0 -142 58t-51 154q0 114 65 178t166 64q121 0 183 -82t62 -230zM294 507q-48 0 -79 -32.5t-31 -96.5q0 -116 106 -116q72 0 124 60
q-2 88 -32 136.5t-88 48.5z" />
    <glyph glyph-name="ampersand.alt" horiz-adv-x="739" 
d="M601 -10l-83 91q-51 -51 -103 -73.5t-122 -22.5q-101 0 -164 58.5t-63 153.5q0 143 155 221q-66 71 -66 148q0 69 53 115.5t144 46.5q77 0 126.5 -38.5t49.5 -123.5v-22h-110v21q0 36 -19 54.5t-53 18.5q-33 0 -51 -17t-18 -43q0 -25 15 -50.5t52 -66.5l132 -146l107 98
l78 -79l-112 -101l145 -165zM312 92q78 0 137 71l-163 184q-95 -45 -95 -138q0 -50 33 -83.5t88 -33.5z" />
    <glyph glyph-name="J.alt" horiz-adv-x="427" 
d="M357 720v-499q0 -108 -58 -164.5t-199 -56.5h-68v119h42q91 0 117.5 22.5t26.5 93.5v485h139z" />
    <glyph glyph-name="Q.alt" horiz-adv-x="786" 
d="M50 364q0 172 93.5 270t249.5 98q157 0 250 -98t93 -270q0 -161 -74 -257t-203 -115v-131h-137v132q-127 21 -199.5 116.5t-72.5 254.5zM195 364q0 -120 52 -185.5t146 -65.5q95 0 146.5 65t51.5 186q0 112 -52.5 177t-144.5 65q-94 0 -146.5 -65.5t-52.5 -176.5z" />
    <glyph glyph-name="j.alt" horiz-adv-x="278" 
d="M205 528v-575q0 -78 -37.5 -117.5t-127.5 -39.5h-69v106h45q34 0 45.5 12t11.5 48v566h132zM60 663q0 33 22.5 51t57.5 18q36 0 58 -18t22 -51q0 -32 -22 -49.5t-58 -17.5q-34 0 -57 18t-23 49z" />
    <glyph glyph-name="m.alt" horiz-adv-x="855" 
d="M67 528h253q103 0 133 -71q86 83 192 83q147 0 147 -174v-366h-133v340q0 43 -14.5 64.5t-50.5 21.5q-47 0 -98 -54v-372h-132v336q0 42 -15.5 61t-56.5 19h-92v-416h-133v528z" />
    <glyph glyph-name="y.alt" horiz-adv-x="531" 
d="M382 528h133l-189 -522v-64q0 -78 -30.5 -110t-116.5 -32h-73v103h47q28 0 36 10t8 41v48l-181 526h139l110 -374z" />
    <glyph glyph-name="hyphen.case" horiz-adv-x="328" 
d="M30 291v105h268v-105h-268z" />
    <glyph glyph-name="Jcircumflex.alt" horiz-adv-x="427" 
d="M357 720v-499q0 -108 -58 -164.5t-199 -56.5h-68v119h42q91 0 117.5 22.5t26.5 93.5v485h139zM239 923h79l109 -113l-58 -49l-88 66l-87 -66l-60 50z" />
    <glyph glyph-name="jcircumflex.alt" horiz-adv-x="278" 
d="M205 528v-575q0 -78 -37.5 -117.5t-127.5 -39.5h-69v106h45q34 0 45.5 12t11.5 48v566h132zM100 761h79l111 -144l-58 -41l-91 89l-91 -89l-61 40z" />
    <glyph glyph-name="ygrave.alt" horiz-adv-x="531" 
d="M382 528h133l-189 -522v-64q0 -78 -30.5 -110t-116.5 -32h-73v103h47q28 0 36 10t8 41v48l-181 526h139l110 -374zM193 788l156 -143l-59 -66l-166 126z" />
    <glyph glyph-name="ycircumflex.alt" horiz-adv-x="531" 
d="M382 528h133l-189 -522v-64q0 -78 -30.5 -110t-116.5 -32h-73v103h47q28 0 36 10t8 41v48l-181 526h139l110 -374zM232 761h79l111 -144l-58 -41l-91 89l-91 -89l-61 40z" />
    <glyph glyph-name="ydieresis.alt" horiz-adv-x="531" 
d="M382 528h133l-189 -522v-64q0 -78 -30.5 -110t-116.5 -32h-73v103h47q28 0 36 10t8 41v48l-181 526h139l110 -374zM97 656q0 27 18.5 44.5t50.5 17.5q34 0 52 -17.5t18 -44.5t-19.5 -44t-50.5 -17q-33 0 -51 16.5t-18 44.5zM301 656q0 27 18.5 44.5t50.5 17.5
q34 0 52 -17.5t18 -44.5t-19.5 -44t-50.5 -17q-33 0 -51 16.5t-18 44.5z" />
    <glyph glyph-name="yacute.alt" horiz-adv-x="531" 
d="M382 528h133l-189 -522v-64q0 -78 -30.5 -110t-116.5 -32h-73v103h47q28 0 36 10t8 41v48l-181 526h139l110 -374zM179 635l156 143l69 -83l-166 -126z" />
    <glyph glyph-name="agrave.alt" horiz-adv-x="620" 
d="M437 0l-7 68q-59 -81 -164 -81q-108 0 -162.5 72.5t-54.5 202.5q0 131 61.5 204.5t160.5 73.5q103 0 165 -79l9 67h110v-528h-118zM422 158v209q-50 60 -116 60q-55 0 -86 -41t-31 -122q0 -165 120 -165q63 0 113 59zM262 788l156 -143l-59 -66l-166 126z" />
    <glyph glyph-name="a.alt" horiz-adv-x="620" 
d="M437 0l-7 68q-59 -81 -164 -81q-108 0 -162.5 72.5t-54.5 202.5q0 131 61.5 204.5t160.5 73.5q103 0 165 -79l9 67h110v-528h-118zM422 158v209q-50 60 -116 60q-55 0 -86 -41t-31 -122q0 -165 120 -165q63 0 113 59z" />
    <glyph glyph-name="aacute.alt" horiz-adv-x="620" 
d="M437 0l-7 68q-59 -81 -164 -81q-108 0 -162.5 72.5t-54.5 202.5q0 131 61.5 204.5t160.5 73.5q103 0 165 -79l9 67h110v-528h-118zM422 158v209q-50 60 -116 60q-55 0 -86 -41t-31 -122q0 -165 120 -165q63 0 113 59zM210 645l156 143l69 -83l-166 -126z" />
    <glyph glyph-name="acircumflex.alt" horiz-adv-x="620" 
d="M437 0l-7 68q-59 -81 -164 -81q-108 0 -162.5 72.5t-54.5 202.5q0 131 61.5 204.5t160.5 73.5q103 0 165 -79l9 67h110v-528h-118zM422 158v209q-50 60 -116 60q-55 0 -86 -41t-31 -122q0 -165 120 -165q63 0 113 59zM268 761h79l111 -144l-58 -41l-91 89l-91 -89l-61 40
z" />
    <glyph glyph-name="atilde.alt" horiz-adv-x="620" 
d="M437 0l-7 68q-59 -81 -164 -81q-108 0 -162.5 72.5t-54.5 202.5q0 131 61.5 204.5t160.5 73.5q103 0 165 -79l9 67h110v-528h-118zM422 158v209q-50 60 -116 60q-55 0 -86 -41t-31 -122q0 -165 120 -165q63 0 113 59zM398 715l62 -23q-21 -100 -94 -100q-25 0 -70 16.5
t-56 16.5q-13 0 -22 -8t-19 -29l-63 24q32 100 93 100q26 0 69.5 -17t59.5 -17q14 0 22 7t18 30z" />
    <glyph glyph-name="adieresis.alt" horiz-adv-x="620" 
d="M437 0l-7 68q-59 -81 -164 -81q-108 0 -162.5 72.5t-54.5 202.5q0 131 61.5 204.5t160.5 73.5q103 0 165 -79l9 67h110v-528h-118zM422 158v209q-50 60 -116 60q-55 0 -86 -41t-31 -122q0 -165 120 -165q63 0 113 59zM142 656q0 27 18.5 44.5t50.5 17.5q34 0 52 -17.5
t18 -44.5t-19.5 -44t-50.5 -17q-33 0 -51 16.5t-18 44.5zM346 656q0 27 18.5 44.5t50.5 17.5q34 0 52 -17.5t18 -44.5t-19.5 -44t-50.5 -17q-33 0 -51 16.5t-18 44.5z" />
    <glyph glyph-name="aring.alt" horiz-adv-x="620" 
d="M437 0l-7 68q-59 -81 -164 -81q-108 0 -162.5 72.5t-54.5 202.5q0 131 61.5 204.5t160.5 73.5q103 0 165 -79l9 67h110v-528h-118zM422 158v209q-50 60 -116 60q-55 0 -86 -41t-31 -122q0 -165 120 -165q63 0 113 59zM263 668q0 -39 42 -39q40 0 40 41q0 39 -40 39
q-42 0 -42 -41zM203 666q0 44 29 70.5t73 26.5q43 0 71.5 -25.5t28.5 -67.5q0 -43 -28.5 -69t-71.5 -26q-46 0 -74 24t-28 67z" />
    <glyph glyph-name="amacron.alt" horiz-adv-x="620" 
d="M437 0l-7 68q-59 -81 -164 -81q-108 0 -162.5 72.5t-54.5 202.5q0 131 61.5 204.5t160.5 73.5q103 0 165 -79l9 67h110v-528h-118zM422 158v209q-50 60 -116 60q-55 0 -86 -41t-31 -122q0 -165 120 -165q63 0 113 59zM175 608v89h283v-89h-283z" />
    <glyph glyph-name="abreve.alt" horiz-adv-x="620" 
d="M437 0l-7 68q-59 -81 -164 -81q-108 0 -162.5 72.5t-54.5 202.5q0 131 61.5 204.5t160.5 73.5q103 0 165 -79l9 67h110v-528h-118zM422 158v209q-50 60 -116 60q-55 0 -86 -41t-31 -122q0 -165 120 -165q63 0 113 59zM314 668q67 0 77 70l80 -13q-12 -134 -157 -134
q-74 0 -111.5 32t-47.5 102l81 14q9 -37 25.5 -54t52.5 -17z" />
    <glyph glyph-name="aogonek.alt" horiz-adv-x="620" 
d="M442 0l-9 68q-24 -33 -67 -57t-100 -24q-108 0 -162.5 72.5t-54.5 202.5q0 131 61.5 204.5t160.5 73.5q103 0 165 -79l9 67h110v-528q-36 -27 -63 -60.5t-27 -56.5q0 -32 29 -32q23 0 51 12l19 -64q-51 -30 -110 -30q-50 0 -75 22.5t-25 60.5q0 67 88 148zM422 158v209
q-50 60 -116 60q-55 0 -86 -41t-31 -122q0 -165 120 -165q63 0 113 59z" />
    <glyph glyph-name="gcircumflex.alt" horiz-adv-x="625" 
d="M555 528v-499q0 -129 -66 -179t-202 -50h-162v106h152q80 0 115 26.5t35 97.5v49q-61 -76 -162 -76q-104 0 -160 66.5t-56 191.5q0 128 58 203.5t167 75.5q93 0 162 -80l9 68h110zM422 170v195q-17 23 -49 42.5t-68 19.5q-116 0 -116 -158q0 -156 118 -156q63 0 115 57z
M257 761h79l111 -144l-58 -41l-91 89l-91 -89l-61 40z" />
    <glyph glyph-name="g.alt" horiz-adv-x="625" 
d="M555 528v-499q0 -129 -66 -179t-202 -50h-162v106h152q80 0 115 26.5t35 97.5v49q-61 -76 -162 -76q-104 0 -160 66.5t-56 191.5q0 128 58 203.5t167 75.5q93 0 162 -80l9 68h110zM422 170v195q-17 23 -49 42.5t-68 19.5q-116 0 -116 -158q0 -156 118 -156q63 0 115 57z
" />
    <glyph glyph-name="gbreve.alt" horiz-adv-x="625" 
d="M555 528v-499q0 -129 -66 -179t-202 -50h-162v106h152q80 0 115 26.5t35 97.5v49q-61 -76 -162 -76q-104 0 -160 66.5t-56 191.5q0 128 58 203.5t167 75.5q93 0 162 -80l9 68h110zM422 170v195q-17 23 -49 42.5t-68 19.5q-116 0 -116 -158q0 -156 118 -156q63 0 115 57z
M294 668q67 0 77 70l80 -13q-12 -134 -157 -134q-74 0 -111.5 32t-47.5 102l81 14q9 -37 25.5 -54t52.5 -17z" />
    <glyph glyph-name="gdotaccent.alt" horiz-adv-x="625" 
d="M555 528v-499q0 -129 -66 -179t-202 -50h-162v106h152q80 0 115 26.5t35 97.5v49q-61 -76 -162 -76q-104 0 -160 66.5t-56 191.5q0 128 58 203.5t167 75.5q93 0 162 -80l9 68h110zM422 170v195q-17 23 -49 42.5t-68 19.5q-116 0 -116 -158q0 -156 118 -156q63 0 115 57z
M213 663q0 32 22.5 50t57.5 18t57 -18t22 -50q0 -31 -22 -48.5t-57 -17.5q-34 0 -57 17.5t-23 48.5z" />
    <glyph glyph-name="gcommaaccent.alt" horiz-adv-x="625" 
d="M555 528v-499q0 -129 -66 -179t-202 -50h-162v106h152q80 0 115 26.5t35 97.5v49q-61 -76 -162 -76q-104 0 -160 66.5t-56 191.5q0 128 58 203.5t167 75.5q93 0 162 -80l9 68h110zM422 170v195q-17 23 -49 42.5t-68 19.5q-116 0 -116 -158q0 -156 118 -156q63 0 115 57z
M385 756l-40 -176l-110 27l62 173z" />
    <glyph glyph-name="zero.num" horiz-adv-x="386" 
d="M24 537q0 89 45 141.5t125 52.5q79 0 123.5 -52t44.5 -140q0 -91 -45.5 -143.5t-126.5 -52.5q-78 0 -122 50.5t-44 143.5zM131 537q0 -108 61 -108q62 0 62 107q0 109 -60 109q-63 0 -63 -108z" />
    <glyph glyph-name="one.num" horiz-adv-x="289" 
d="M232 350h-107v250q-47 -9 -91 -3l-8 64q79 18 123 63h83v-374z" />
    <glyph glyph-name="two.num" horiz-adv-x="338" 
d="M27 350v62l125 122q20 19 27 27t15 21.5t8 26.5q0 36 -51 36q-43 0 -98 -39l-39 58q74 67 168 67q57 0 92.5 -28.5t35.5 -77.5q0 -58 -62 -113l-91 -81h154v-81h-284z" />
    <glyph glyph-name="three.num" horiz-adv-x="342" 
d="M7 394l36 60q57 -35 105 -35q65 0 65 44q0 41 -72 41q-18 0 -39 -3v75q92 2 92 47q0 34 -53 34q-39 0 -89 -24l-25 58q65 40 144 40q61 0 94 -24t33 -70q0 -32 -20.5 -56t-55.5 -34q95 -9 95 -91q0 -55 -42.5 -84t-112.5 -29q-96 0 -155 51z" />
    <glyph glyph-name="four.num" horiz-adv-x="381" 
d="M219 652l-106 -159h106v159zM219 350v64h-192v78l159 232h131v-231h40v-79h-40v-64h-98z" />
    <glyph glyph-name="five.num" horiz-adv-x="344" 
d="M38 483l18 241h233l-5 -80h-151l-7 -76q34 21 78 21q57 0 85 -30t28 -83q0 -63 -43 -98t-112 -35q-88 0 -148 47l32 58q53 -29 103 -29q70 0 70 55q0 46 -51 46q-27 0 -49 -16l-2 -21h-79z" />
    <glyph glyph-name="six.num" horiz-adv-x="365" 
d="M34 517q0 97 44.5 155.5t132.5 58.5q62 0 112 -26l-25 -64q-37 19 -76 19q-47 0 -67 -28.5t-22 -80.5q40 35 94 35q55 0 84 -31t29 -80q0 -65 -43 -98.5t-108 -33.5q-155 0 -155 174zM196 516q-30 0 -60 -26q2 -78 55 -78q52 0 52 54q0 50 -47 50z" />
    <glyph glyph-name="seven.num" horiz-adv-x="326" 
d="M310 666l-138 -316h-106v9l130 281h-176v84h290v-58z" />
    <glyph glyph-name="eight.num" horiz-adv-x="360" 
d="M112 454q0 -23 18 -35t47 -12q59 0 59 47q0 22 -20 35t-55 23q-15 -8 -24 -14.5t-17 -18t-8 -25.5zM136 633q0 -30 56 -51q40 25 40 54q0 35 -49 35q-47 0 -47 -38zM24 447q0 65 80 100q-64 26 -64 84q0 45 38 72.5t101 27.5q67 0 104 -24t37 -67q0 -56 -62 -86
q77 -34 77 -98q0 -54 -43.5 -83.5t-114.5 -29.5t-112 27.5t-41 76.5z" />
    <glyph glyph-name="nine.num" horiz-adv-x="362" 
d="M332 557q0 -97 -45 -155.5t-133 -58.5q-61 0 -111 26l23 67q40 -20 78 -20q46 0 66 27.5t24 81.5q-40 -39 -96 -39q-54 0 -83.5 32t-29.5 81q0 65 43 98.5t108 33.5q156 0 156 -174zM172 557q35 0 60 25q0 81 -56 81q-26 0 -40 -14.5t-14 -40.5q0 -51 50 -51z" />
    <glyph glyph-name="zero.denom" horiz-adv-x="386" 
d="M24 187q0 89 45 141.5t125 52.5q79 0 123.5 -52t44.5 -140q0 -91 -45.5 -143.5t-126.5 -52.5q-78 0 -122 50.5t-44 143.5zM131 187q0 -108 61 -108q62 0 62 107q0 109 -60 109q-63 0 -63 -108z" />
    <glyph glyph-name="one.denom" horiz-adv-x="289" 
d="M232 0h-107v250q-47 -9 -91 -3l-8 64q79 18 123 63h83v-374z" />
    <glyph glyph-name="two.denom" horiz-adv-x="338" 
d="M27 0v62l125 122q20 19 27 27t15 21.5t8 26.5q0 36 -51 36q-43 0 -98 -39l-39 58q74 67 168 67q57 0 92.5 -28.5t35.5 -77.5q0 -58 -62 -113l-91 -81h154v-81h-284z" />
    <glyph glyph-name="three.denom" horiz-adv-x="342" 
d="M7 44l36 60q57 -35 105 -35q65 0 65 44q0 41 -72 41q-18 0 -39 -3v75q92 2 92 47q0 34 -53 34q-39 0 -89 -24l-25 58q65 40 144 40q61 0 94 -24t33 -70q0 -32 -20.5 -56t-55.5 -34q95 -9 95 -91q0 -55 -42.5 -84t-112.5 -29q-96 0 -155 51z" />
    <glyph glyph-name="four.denom" horiz-adv-x="381" 
d="M219 302l-106 -159h106v159zM219 0v64h-192v78l159 232h131v-231h40v-79h-40v-64h-98z" />
    <glyph glyph-name="five.denom" horiz-adv-x="344" 
d="M38 133l18 241h233l-5 -80h-151l-7 -76q34 21 78 21q57 0 85 -30t28 -83q0 -63 -43 -98t-112 -35q-88 0 -148 47l32 58q53 -29 103 -29q70 0 70 55q0 46 -51 46q-27 0 -49 -16l-2 -21h-79z" />
    <glyph glyph-name="six.denom" horiz-adv-x="365" 
d="M34 167q0 97 44.5 155.5t132.5 58.5q62 0 112 -26l-25 -64q-37 19 -76 19q-47 0 -67 -28.5t-22 -80.5q40 35 94 35q55 0 84 -31t29 -80q0 -65 -43 -98.5t-108 -33.5q-155 0 -155 174zM196 166q-30 0 -60 -26q2 -78 55 -78q52 0 52 54q0 50 -47 50z" />
    <glyph glyph-name="seven.denom" horiz-adv-x="326" 
d="M310 316l-138 -316h-106v9l130 281h-176v84h290v-58z" />
    <glyph glyph-name="eight.denom" horiz-adv-x="360" 
d="M112 104q0 -23 18 -35t47 -12q59 0 59 47q0 22 -20 35t-55 23q-15 -8 -24 -14.5t-17 -18t-8 -25.5zM136 283q0 -30 56 -51q40 25 40 54q0 35 -49 35q-47 0 -47 -38zM24 97q0 65 80 100q-64 26 -64 84q0 45 38 72.5t101 27.5q67 0 104 -24t37 -67q0 -56 -62 -86
q77 -34 77 -98q0 -54 -43.5 -83.5t-114.5 -29.5t-112 27.5t-41 76.5z" />
    <glyph glyph-name="nine.denom" horiz-adv-x="362" 
d="M332 207q0 -97 -45 -155.5t-133 -58.5q-61 0 -111 26l23 67q40 -20 78 -20q46 0 66 27.5t24 81.5q-40 -39 -96 -39q-54 0 -83.5 32t-29.5 81q0 65 43 98.5t108 33.5q156 0 156 -174zM172 207q35 0 60 25q0 81 -56 81q-26 0 -40 -14.5t-14 -40.5q0 -51 50 -51z" />
    <glyph glyph-name="zero.tf" 
d="M178 352q0 -127 29.5 -190t92.5 -63q121 0 121 255q0 127 -28.5 191t-92.5 64q-122 0 -122 -257zM47 352q0 181 65.5 274.5t189.5 93.5q123 0 186.5 -92t63.5 -269q0 -372 -255 -372q-250 0 -250 365z" />
    <glyph glyph-name="one.tf" 
d="M267 100v448q-74 -40 -157 -50l-17 88q54 14 110 47.5t93 76.5h101v-610h133v-100h-410v100h147z" />
    <glyph glyph-name="two.tf" 
d="M78 0v80l245 296q35 43 50 73.5t15 64.5q0 42 -28.5 68t-72.5 26q-65 0 -168 -76l-57 81q116 107 247 107q88 0 148.5 -50t60.5 -139q0 -57 -18.5 -100.5t-63.5 -98.5l-185 -226h277v-106h-450z" />
    <glyph glyph-name="three.tf" 
d="M38 84l59 78q83 -68 171 -68q55 0 88.5 27.5t33.5 79.5q0 110 -131 111q-43 0 -63 -4v105q69 2 115 33.5t46 83.5q0 42 -26 62.5t-69 20.5q-71 0 -147 -46l-49 81q103 72 218 72q89 0 144 -46t55 -126q0 -60 -34.5 -105t-97.5 -64v-3q80 -8 121.5 -54.5t41.5 -121.5
q0 -99 -68 -156t-170 -57q-142 0 -238 97z" />
    <glyph glyph-name="four.tf" 
d="M168 260h184v332zM352 0v153h-306v102l264 455h167v-450h80v-107h-80v-153h-125z" />
    <glyph glyph-name="five.tf" 
d="M89 260l35 450h369l-7 -112h-261l-18 -189q49 44 130 44q91 0 142 -57t51 -164q0 -118 -69.5 -181.5t-177.5 -63.5q-129 0 -221 76l43 84q94 -51 164 -51q60 0 98 34t38 100q0 124 -106 124q-59 0 -99 -42l-5 -52h-106z" />
    <glyph glyph-name="six.tf" 
d="M66 310q0 198 70 304t200 106q88 0 175 -52l-39 -87q-63 36 -123 36q-41 0 -72 -19.5t-49.5 -54.5t-28.5 -77t-12 -93q76 74 163 74q88 0 139.5 -58t51.5 -156q0 -123 -63.5 -184.5t-167.5 -61.5q-244 0 -244 323zM309 89q49 0 79 33t30 100q0 121 -103 121
q-67 0 -125 -60q3 -102 32 -148t87 -46z" />
    <glyph glyph-name="seven.tf" 
d="M523 654l-250 -654h-138v13l233 586h-311v111h466v-56z" />
    <glyph glyph-name="eight.tf" 
d="M178 189q0 -47 30 -73.5t85 -26.5q52 0 83.5 29.5t31.5 76.5q0 26 -11.5 47.5t-33.5 38t-40 26t-44 20.5q-101 -52 -101 -138zM212 539q0 -64 99 -108q33 18 57.5 48.5t24.5 64.5q0 81 -92 81q-42 0 -65.5 -23.5t-23.5 -62.5zM56 179q0 128 138 197q-49 21 -79.5 62.5
t-30.5 98.5q0 82 59.5 132.5t159.5 50.5q94 0 152 -47t58 -123q0 -54 -31.5 -96.5t-79.5 -69.5q138 -67 138 -188q0 -98 -68 -153.5t-182 -55.5q-111 0 -172.5 50.5t-61.5 141.5z" />
    <glyph glyph-name="nine.tf" 
d="M537 408q0 -205 -69 -313t-192 -108q-112 0 -190 56l42 86q69 -40 135 -40q133 0 151 234q-70 -65 -160 -65t-141.5 61.5t-51.5 158.5q0 114 65 178t166 64q121 0 183 -82t62 -230zM292 615q-48 0 -79 -32.5t-31 -96.5q0 -63 29 -93.5t77 -30.5q72 0 124 60q0 91 -31 142
t-89 51z" />
    <glyph glyph-name="dollar.tf" 
d="M244 -88v91q-60 9 -113 36.5t-87 62.5l62 79q92 -78 185 -78q48 0 77 20.5t29 59.5q0 43 -28 67.5t-113 45.5q-95 24 -141 71t-46 127q0 75 49 124t127 61v84h106v-85q104 -19 168 -88l-58 -71q-72 64 -159 64q-48 0 -77 -19t-29 -57q0 -40 32.5 -64t116.5 -49
q97 -29 140.5 -74t43.5 -125q0 -77 -48.5 -127.5t-129.5 -64.5v-91h-107z" />
    <glyph glyph-name="Euro.tf" 
d="M-2 386l6 77h69q25 112 100.5 184.5t187.5 72.5q144 0 231 -109l-64 -67q-31 34 -75 54.5t-89 20.5q-63 0 -105 -42t-60 -114h289l-6 -77h-294q-1 -13 -1 -33q0 -10 2 -36h287l-7 -77h-267q16 -68 59.5 -105.5t104.5 -37.5q92 0 170 68l58 -75q-110 -103 -247 -103
q-108 0 -180.5 70.5t-92.5 182.5h-88l7 77h71q-2 26 -2 35q0 21 1 34h-65z" />
    <glyph glyph-name="cent.tf" 
d="M495 235l38 -82q-69 -56 -152 -70v-101h-109v99q-95 15 -150.5 85.5t-55.5 185.5q0 111 56 182.5t151 86.5v98h108v-100q74 -14 115.5 -66t44.5 -137h-111q-9 101 -102 101q-58 0 -90 -40.5t-32 -120.5q0 -78 35 -125t99 -47q73 0 155 51z" />
    <glyph glyph-name="sterling.tf" 
d="M323 228q0 -62 -53 -123h267v-105h-452v95l54 7q59 63 59 126q0 36 -22 88h-90v86h58q-38 74 -38 130q0 82 63 135t158 53q133 0 213 -89l-54 -74q-69 59 -141 59q-48 0 -76.5 -25.5t-28.5 -68.5t37 -120h155v-86h-129q20 -51 20 -88z" />
    <glyph glyph-name="yen.tf" 
d="M577 710l-184 -329h147v-85h-181v-66h181v-85h-181v-145h-123v145h-180v85h180v66h-180v85h146l-179 329h139l138 -276l143 276h134z" />
    <glyph glyph-name="florin.tf" 
d="M38 -105h39q28 0 42.5 14t23.5 55l76 358h-80v89h99l24 124q19 93 51.5 134t115.5 41h79v-98h-56q-33 0 -46 -19t-23 -69l-22 -113h91v-89h-108l-66 -310q-11 -52 -18 -79.5t-20.5 -58t-30 -43.5t-43 -22t-64.5 -9h-64v95z" />
    <glyph glyph-name="zero.osf" horiz-adv-x="626" 
d="M180 302q0 -204 133 -204t133 208q0 102 -33 147.5t-100 45.5q-133 0 -133 -197zM48 303q0 147 70.5 228t197.5 81q262 0 262 -305q0 -154 -68 -237t-198 -83q-132 0 -198 81t-66 235z" />
    <glyph glyph-name="one.osf" horiz-adv-x="487" 
d="M217 100v339q-74 -40 -157 -50l-17 88q54 14 110 47.5t93 76.5h100v-501h131v-100h-407v100h147z" />
    <glyph glyph-name="two.osf" horiz-adv-x="540" 
d="M43 0v77l219 218q46 45 64 71.5t18 60.5t-24 53.5t-63 19.5q-68 0 -168 -75l-61 79q114 108 247 108q88 0 148 -44.5t60 -129.5q0 -53 -21 -91t-75 -91l-151 -150h257v-106h-450z" />
    <glyph glyph-name="three.osf" horiz-adv-x="534" 
d="M12 27l58 78q85 -70 172 -70q53 0 87 27t34 75q0 45 -31 67t-101 23q-40 0 -60 -4l-4 106q73 2 118.5 25.5t45.5 72.5q0 78 -97 78q-75 0 -147 -46l-49 81q103 72 221 72q90 0 143.5 -42t53.5 -122q0 -55 -35.5 -94t-97.5 -60v-3q80 -10 122.5 -52.5t42.5 -112.5
q0 -95 -69 -146t-170 -51q-143 0 -237 98z" />
    <glyph glyph-name="four.osf" horiz-adv-x="593" 
d="M165 198h199v290zM364 -62v153h-321v102l279 408h167v-403h80v-107h-80v-153h-125z" />
    <glyph glyph-name="five.osf" horiz-adv-x="542" 
d="M58 183l31 418h369l-8 -112h-260l-13 -157q53 44 130 44q89 0 140.5 -54.5t51.5 -153.5q0 -114 -69.5 -176.5t-176.5 -62.5q-129 0 -221 76l43 86q94 -51 164 -51q60 0 98 32.5t38 96.5q0 51 -26 80.5t-74 29.5q-65 0 -105 -42l-5 -54h-107z" />
    <glyph glyph-name="six.osf" horiz-adv-x="568" 
d="M54 310q0 198 70 304t200 106q88 0 175 -52l-39 -87q-63 36 -123 36q-41 0 -72 -19.5t-49.5 -54.5t-28.5 -77t-12 -93q76 74 163 74q88 0 139.5 -58t51.5 -156q0 -123 -63.5 -184.5t-167.5 -61.5q-244 0 -244 323zM297 89q49 0 79 33t30 100q0 121 -103 121
q-67 0 -125 -60q3 -102 32 -148t87 -46z" />
    <glyph glyph-name="seven.osf" horiz-adv-x="485" 
d="M464 545l-240 -605h-138v13l223 537h-291v111h446v-56z" />
    <glyph glyph-name="eight.osf" horiz-adv-x="536" 
d="M148 189q0 -47 30 -73.5t85 -26.5q52 0 83.5 29.5t31.5 76.5q0 26 -11.5 47.5t-33.5 38t-40 26t-44 20.5q-101 -52 -101 -138zM182 539q0 -64 99 -108q33 18 57.5 48.5t24.5 64.5q0 81 -92 81q-42 0 -65.5 -23.5t-23.5 -62.5zM26 179q0 128 138 197q-49 21 -79.5 62.5
t-30.5 98.5q0 82 59.5 132.5t159.5 50.5q95 0 152.5 -47t57.5 -123q0 -54 -31.5 -96.5t-79.5 -69.5q138 -67 138 -188q0 -98 -68 -153.5t-182 -55.5q-111 0 -172.5 50.5t-61.5 141.5z" />
    <glyph glyph-name="nine.osf" horiz-adv-x="560" 
d="M516 300q0 -200 -66.5 -286t-194.5 -86q-112 0 -190 56l38 85q67 -40 138 -40q76 0 108 49.5t44 148.5q-74 -69 -160 -69q-91 0 -142 58t-51 154q0 114 65 178t166 64q121 0 183 -82t62 -230zM271 507q-48 0 -79 -32.5t-31 -96.5q0 -116 106 -116q72 0 124 60
q-2 88 -32 136.5t-88 48.5z" />
    <glyph glyph-name="dollar.osf" horiz-adv-x="548" 
d="M220 -88v91q-60 9 -113 36.5t-87 62.5l62 79q92 -78 185 -78q48 0 77 20.5t29 59.5q0 43 -28 67.5t-113 45.5q-95 24 -141 71t-46 127q0 75 49 124t127 61v84h106v-85q104 -19 168 -88l-58 -71q-72 64 -159 64q-48 0 -77 -19t-29 -57q0 -40 32.5 -64t116.5 -49
q97 -29 140.5 -74t43.5 -125q0 -77 -48.5 -127.5t-129.5 -64.5v-91h-107z" />
    <glyph glyph-name="Euro.osf" horiz-adv-x="617" 
d="M0 386l6 77h69q25 112 100.5 184.5t187.5 72.5q144 0 231 -109l-64 -67q-31 34 -75 54.5t-89 20.5q-63 0 -105 -42t-60 -114h289l-6 -77h-294q-1 -13 -1 -33q0 -10 2 -36h287l-7 -77h-267q16 -68 59.5 -105.5t104.5 -37.5q92 0 170 68l58 -75q-110 -103 -247 -103
q-108 0 -180.5 70.5t-92.5 182.5h-88l7 77h71q-2 26 -2 35q0 21 1 34h-65z" />
    <glyph glyph-name="cent.osf" horiz-adv-x="562" 
d="M480 157l38 -82q-69 -56 -152 -70v-101h-109v99q-95 15 -150.5 85.5t-55.5 185.5q0 111 56 182.5t151 86.5v98h108v-100q74 -14 115.5 -66t44.5 -137h-111q-9 101 -102 101q-58 0 -90 -40.5t-32 -120.5q0 -78 35 -125t99 -47q73 0 155 51z" />
    <glyph glyph-name="sterling.osf" horiz-adv-x="516" 
d="M276 228q0 -62 -53 -123h267v-105h-452v95l54 7q59 63 59 126q0 36 -22 88h-90v86h58q-38 74 -38 130q0 82 63 135t158 53q133 0 213 -89l-54 -74q-69 59 -141 59q-48 0 -76.5 -25.5t-28.5 -68.5t37 -120h155v-86h-129q20 -51 20 -88z" />
    <glyph glyph-name="yen.osf" horiz-adv-x="595" 
d="M574 710l-184 -329h147v-85h-181v-66h181v-85h-181v-145h-123v145h-180v85h180v66h-180v85h146l-179 329h139l138 -276l143 276h134z" />
    <glyph glyph-name="florin.osf" horiz-adv-x="470" 
d="M-16 -105h39q28 0 42.5 14t23.5 55l76 358h-80v89h99l24 124q19 93 51.5 134t115.5 41h79v-98h-56q-33 0 -46 -19t-23 -69l-22 -113h91v-89h-108l-66 -310q-11 -52 -18 -79.5t-20.5 -58t-30 -43.5t-43 -22t-64.5 -9h-64v95z" />
    <glyph glyph-name="dollar.tosf" 
d="M245 -88v91q-60 9 -113 36.5t-87 62.5l62 79q92 -78 185 -78q48 0 77 20.5t29 59.5q0 43 -28 67.5t-113 45.5q-95 24 -141 71t-46 127q0 75 49 124t127 61v84h106v-85q104 -19 168 -88l-58 -71q-72 64 -159 64q-49 0 -77.5 -19t-28.5 -57q0 -40 32.5 -64t116.5 -49
q97 -29 140.5 -74t43.5 -125q0 -77 -48.5 -127.5t-129.5 -64.5v-91h-107z" />
    <glyph glyph-name="Euro.tosf" 
d="M7 386l6 77h69q25 112 100.5 184.5t187.5 72.5q144 0 231 -109l-64 -67q-31 34 -75 54.5t-89 20.5q-63 0 -105 -42t-60 -114h289l-6 -77h-294q-1 -13 -1 -33q0 -10 2 -36h287l-7 -77h-267q16 -68 59.5 -105.5t104.5 -37.5q92 0 170 68l58 -75q-110 -103 -247 -103
q-108 0 -180.5 70.5t-92.5 182.5h-88l7 77h71q-2 26 -2 35q0 21 1 34h-65z" />
    <glyph glyph-name="cent.tosf" 
d="M496 156l38 -82q-69 -56 -152 -70v-101h-109v99q-95 15 -150.5 85.5t-55.5 185.5q0 111 56 182.5t151 86.5v98h108v-100q74 -14 115.5 -66t44.5 -137h-111q-9 101 -102 101q-58 0 -90 -40.5t-32 -120.5q0 -78 35 -125t99 -47q73 0 155 51z" />
    <glyph glyph-name="sterling.tosf" 
d="M317 228q0 -62 -53 -123h267v-105h-452v95l54 7q59 63 59 126q0 36 -22 88h-90v86h58q-38 74 -38 130q0 82 63 135t158 53q133 0 213 -89l-54 -74q-69 59 -141 59q-48 0 -76.5 -25.5t-28.5 -68.5t37 -120h155v-86h-129q20 -51 20 -88z" />
    <glyph glyph-name="yen.tosf" 
d="M577 710l-184 -329h147v-85h-181v-66h181v-85h-181v-145h-123v145h-180v85h180v66h-180v85h146l-179 329h139l138 -276l143 276h134z" />
    <glyph glyph-name="florin.tosf" 
d="M36 -105h39q28 0 42.5 14t23.5 55l76 358h-80v89h99l24 124q19 93 51.5 134t115.5 41h79v-98h-56q-33 0 -46 -19t-23 -69l-22 -113h91v-89h-108l-66 -310q-11 -52 -18 -79.5t-20.5 -58t-30 -43.5t-43 -22t-64.5 -9h-64v95z" />
    <glyph glyph-name="apple" horiz-adv-x="2406" 
d="M1677 -97l-17 -8q9 -20 9 -37q0 -47 -66.5 -79.5t-175.5 -32.5q-120 0 -190 57q-84 -43 -159 -43q-97 0 -148 43q-60 -85 -250 -85q-54 0 -108.5 18t-94.5 59t-38 95q-43 22 -55 56q-54 -22 -118 -22q-82 0 -119.5 60.5t-18.5 144.5q12 57 59.5 108t112.5 81
q-36 51 -19 122q17 76 63 119.5t93 43.5q8 0 12 -1q28 28 82 42t105 14q87 0 155 -26q37 51 97.5 81t129.5 30q7 0 19 -2q36 49 113 76t176 27q81 0 147 -36.5t100 -97.5q72 23 168 23q75 0 163.5 -28t110.5 -87q27 15 54 15q58 0 92.5 -37t22.5 -88q-5 -27 -20 -49
q43 -26 62.5 -75.5t5.5 -113.5q-13 -48 -34 -80q47 -32 61.5 -86t2.5 -110q-10 -46 -45 -75t-75 -39t-86 -10q-32 0 -66 8q-15 -19 -49.5 -32.5t-77.5 -13.5q-47 0 -90 23t-58 65l-28 -12q9 -58 63 -90.5t124 -32.5q76 0 159 40l1 -2q-79 -42 -159 -42q-76 0 -130.5 29.5
t-67.5 92.5zM692 505q26 0 50 -7q3 36 17 74q-45 13 -94 13q-76 0 -149 -29q9 -16 9 -39q0 -53 -27 -86t-61 -33q-22 0 -33.5 18.5t-5.5 44.5q5 28 38 54q-15 22 -8 50q5 21 19 35q-3 1 -10 1q-46 0 -87 -42t-58 -119q-17 -67 13 -120q64 27 115 27q23 0 39 -13t12 -30
q-6 -35 -74 -35q-62 0 -95 44q-57 -29 -97.5 -79t-52.5 -102q-21 -90 9.5 -148t104.5 -58q63 0 117 22q-16 37 -3 83q6 28 26.5 45t40.5 17q18 0 24 -16t2 -35q-4 -26 -25.5 -51.5t-58.5 -42.5q10 -32 51 -53q0 10 3 19q10 48 48.5 81.5t88.5 39.5q0 -1 1 -1
q-45 -6 -78.5 -39t-44.5 -81q-2 -10 -4 -26q44 -17 90 -4v-1q-44 -15 -90 0q0 -73 70.5 -118t155.5 -45t153 20.5t96 63.5q-37 34 -26 80q3 17 16 34q-10 10 -26 18q-121 -95 -200 -95q-39 0 -64.5 19.5t-17.5 55.5q12 51 137 51q70 0 122 -19l33.5 25.5t37 27.5l33 22.5
t39 23.5l36 16t42.5 14t41 5q-12 30 -16 59q-29 -23 -62 -23q-24 0 -32 22t-3 49l35 158h-80l-43 -213q-12 -59 -56 -93.5t-90 -34.5q-65 0 -102 44l2 2q35 -30 68 -30q77 0 104 114q15 58 50 211h-45q0 5 1 8h46l17 68q12 58 52 92.5t88 34.5q99 0 116 -64q52 26 99 26
q32 0 43.5 -13t3.5 -53l-21 -89q108 16 143 120q-25 6 -43 25t-18 46q0 46 43 87q-21 27 -51.5 43t-59.5 16q-40 0 -63 -20t-23 -49q0 -33 27 -50l-3 -2q-14 8 -25.5 23t-11.5 29q0 33 26.5 53t72.5 20q30 0 60.5 -16.5t52.5 -43.5q50 47 137 72q-33 58 -97 93.5t-148 35.5
q-92 0 -166 -26t-110 -75q26 -8 41.5 -26.5t7.5 -44.5q-8 -31 -47 -31q-19 0 -30 18t-5 44q7 24 18 42q-5 1 -17 1q-135 0 -218 -113q76 -33 89 -99q5 -21 -4 -35l-2 2q7 16 3 33q-12 62 -88 96q-18 -23 -30 -53q104 -34 91 -95q-7 -28 -99 -66q-87 -35 -112 -87
q-13 -22 -9.5 -54.5t27.5 -42.5q5 59 42.5 94t72.5 35t48.5 -23.5t-2.5 -50.5q-28 -45 -98 -59q-1 -32 8.5 -53.5t26.5 -21.5q26 0 46 25q-13 18 -10 27q3 12 19 12q8 0 10 -7q1 -7 -3 -16q-8 -13 -9 -14l4 -5q4 -5 5 -6t4 -6t4 -7t3 -7t2.5 -8.5t0.5 -8t-1 -9.5
q-5 -24 -32.5 -39.5t-65.5 -15.5q-56 0 -212 73q-31 -18 -70 -18q-28 0 -50.5 17t-22.5 45q0 12 7.5 20.5t13.5 8.5t15 -5t25.5 -15.5t30.5 -18.5q2 6 6.5 15l5.5 11l88 224q18 45 50.5 65t63.5 20zM1421 148q55 0 78 92q9 39 -6 77l2 1q19 -40 10 -82q-12 -51 -39 -76.5
t-77 -25.5q-35 0 -52.5 39t-6.5 87q11 45 44 70.5t64 25.5q30 0 41 -15q22 14 49 14h27l15 68q12 58 52 92.5t88 34.5q39 0 72 -14l10 -6q16 11 42 18q-4 10 -2 26q3 26 34 51l3 -1q-19 -21 -24 -50q-2 -9 0 -24q18 2 26 2q56 0 84 -52q46 15 57 61q6 27 0 48
q-11 -8 -21.5 -19t-14.5 -18l-5 -7q0 25 39 50q-11 31 -44 55t-75.5 36.5t-81 18.5t-68.5 6q-90 0 -165 -24q33 -63 17 -130q-12 -42 -49.5 -72t-78.5 -30q-8 0 -11 1q-16 -49 -52.5 -84t-95.5 -43l-15.5 -62.5l-15.5 -65l-9 -37.5q-15 -79 35 -79q20 0 50 16l3 -3
q-50 -34 -109 -34q-33 0 -48 23t-5 66q1 3 47 174h-118l-36 -160q-3 -14 1 -26t14 -12q7 0 14 5q0 4 -0.5 13t-0.5 14q0 32 9.5 48.5t24.5 16.5q22 0 14 -34q-2 -9 -4.5 -16t-7 -14.5t-5.5 -9.5t-8.5 -10.5t-8.5 -9.5q3 -31 15 -70q54 -1 51 -26q-2 -13 -13 -14q7 1 9 14
q3 22 -46 24q13 -37 33 -38q-30 1 -43 38q-40 -2 -75 -21.5t-86 -61.5t-77 -60q18 -9 26 -17q45 52 147 52q47 0 105 -22q0 1 2 12t4 16q9 43 56 73.5t79 30.5q6 0 8 -4.5t3.5 -12t4.5 -12.5q27 -31 69 -31q76 0 106 114l48 211h-25q-24 0 -43 -13q6 -10 6 -20
q0 -18 -18 -18q-16 0 -16 16q0 15 16 26q-8 8 -21 8q-38 0 -61 -97q-9 -41 0.5 -71t29.5 -30zM2149 211l3 1q12 -4 32 -14q17 31 28 78q13 60 -1 106.5t-49 72.5q-30 -49 -80 -49q-16 0 -31 9.5t-15 24.5q0 17 15 29.5t35 12.5q38 0 68 -17q12 21 19 50q11 49 -20 83t-84 34
q-26 0 -52 -19q7 -23 1 -53q-11 -46 -61 -63q17 -34 8 -71q-21 -79 -130 -79h-72q-8 -30 -20.5 -85t-17.5 -75q-5 -38 17 -38q9 0 22 13q-11 30 -2 63q3 19 13.5 32t19.5 13q19 0 10 -38q-12 -45 -31 -71q11 -43 47 -61q10 59 63 59q15 0 24.5 -10.5t5.5 -24.5
q-2 -16 -16.5 -25.5t-34.5 -9.5q-13 0 -27 3q0 -57 60 -74q11 23 35.5 37.5t54.5 14.5q17 0 28 -5l-1 -2q-13 5 -27 5q-27 0 -50 -14.5t-33 -37.5q13 -3 29 -3q108 0 153 98q-23 -6 -51 -6q-53 0 -76.5 32t-15.5 71q9 39 37.5 60.5t63.5 21.5q39 0 61 -34.5t12 -92.5
q-5 -27 -15 -43q51 19 81 75q-12 7 -33 16zM1745 68l2 -2q-35 -36 -50.5 -68.5t-11.5 -79.5l28 9q-10 36 1.5 70t44.5 59l3 -3q-33 -23 -43.5 -58.5t-1.5 -64.5q87 29 154 29h21q-4 17 -1 40q2 12 4 16q-34 8 -54.5 29.5t-19.5 52.5q-36 14 -54 55q-30 -34 -73 -34
q-23 0 -31 21.5t-3 49.5l34 158h-74l-46 -212q-13 -60 -56 -94.5t-89 -34.5q-69 0 -102 44q-4 5 -5 11t-1 10t-1.5 6.5t-5.5 2.5q-35 0 -79 -39.5t-46 -97.5q23 -10 66 -32t61 -30q48 30 106 50.5t99 20.5q94 0 132 -48q12 7 23 11q-8 83 69 153zM1998 -101q0 -9 -8 -20
q34 -8 66 -8q39 0 75.5 11t69.5 41.5t44 76.5q29 126 -50 186q-36 -53 -96 -71q-24 -50 -67.5 -77t-99.5 -27q-12 0 -30 2q-2 -4 -4 -14q-3 -24 1 -41q99 -8 99 -59zM755 495q22 -10 16 -26q-5 -11 -18 -10q-5 1 -8.5 8.5t-2.5 15.5v10q-14 4 -22 4q-24 0 -44 -23.5
t-32 -57.5l-70 -220q-10 -32 -39 -55q148 -73 204 -72q51 1 73.5 28t15.5 53q-1 7 -14 20q-26 -36 -82 -36q-29 0 -48.5 26.5t-17.5 64.5q-27 9 -35 41.5t5 58.5q28 56 122 88q29 10 56.5 29t31.5 36q15 63 -79 91q-16 -36 -20 -71zM948 -159q-4 -16 -14 -32l10 -10
q43 -36 134 -36q70 0 144 51q-53 57 -49 134q-58 22 -105 22q-44 0 -80.5 -15.5t-54.5 -45.5q17 -20 17 -48q0 -12 -2 -20zM1918 492q-27 0 -51 15t-32 37q-20 -5 -36 -19q15 -11 15 -26q0 -19 -22 -19q-23 0 -23 18q0 9 6 15l13 13q-29 15 -63 15q-27 0 -50.5 -26.5
t-32.5 -68.5l-20 -91h17q45 0 85.5 24.5t45.5 51.5q-3 22 9 22q5 0 8 -5t1 -10q-4 -20 -8 -28q-14 -46 -16 -55h67q39 0 72.5 16.5t45.5 55.5q9 32 -4 67q-16 -2 -27 -2zM1134 531q-30 10 -51 10q-28 0 -53 -26.5t-35 -68.5l-19 -91h19q45 0 87 23.5t59 67.5h2l-21 -91h119
q16 56 22 79q8 29 -5.5 45t-36.5 16q-16 0 -34 -12l-4 -1q2 -6 2 -11q0 -20 -14 -20q-6 0 -9.5 5t-0.5 12q4 10 18 16q-10 31 -45 47zM1656 -142q0 15 -7 33q-110 -51 -186 -51q-55 0 -121 28q-53 -37 -100 -62q68 -58 185 -58q106 0 167.5 31.5t61.5 78.5zM1589 577
q15 68 -16 129q-86 -29 -131 -78q24 -37 24 -79q0 -35 -11 -71q3 -1 9 -1q39 0 77 29.5t48 70.5zM2100 160q14 60 -5.5 94t-51.5 34q-35 0 -56.5 -28t-23.5 -67q-4 -63 39 -81q15 -5 32 -5q31 0 53 7q10 20 13 46zM1871 -42q-67 0 -152 -37q14 -41 56 -64.5t88 -23.5
q39 0 70 14.5t42 34.5q-70 21 -82 76h-22zM1521 -50q-34 0 -75 -18q-34 -16 -102 -62q69 -29 119 -29q28 0 57.5 8t46 15t51.5 24l25 12q-31 50 -122 50zM693 -157q9 0 17.5 1.5t19 6l18 7.5t19.5 11l18.5 12.5t20.5 15.5t19.5 15t21.5 17.5l21 17.5q-53 18 -120 18
q-44 0 -81 -12t-45 -39q-9 -32 13 -51.5t58 -19.5zM640 655q-52 0 -102 -14t-76 -41q37 -10 53 -41q72 27 150 27q53 0 95 -12q10 28 29 55q-63 26 -149 26zM521 517q0 20 -8 38l-7 -3q-39 -17 -62 -37q10 -19 36 -18l1 -2q-25 -3 -42 16q-26 -24 -31 -50t2.5 -43.5
t26.5 -17.5q30 0 57 34t27 83zM420 345q-54 0 -113 -28q30 -47 90 -47q62 0 70 34q3 17 -11 29t-36 12zM389 29q-8 -47 -1 -77q69 35 80 90q7 49 -21 49q-15 0 -33.5 -17t-24.5 -45zM1229 -180q12 7 40.5 28.5t44.5 30.5l-54 27q-52 27 -71 35q-6 -69 40 -121zM795 346
q-31 0 -54 -68q-9 -31 -11 -47q71 16 92 58q6 11 6 21q0 15 -9 25.5t-24 10.5zM1462 549q0 41 -23 76q-32 -37 -32 -77q0 -26 12.5 -45t31.5 -24q11 36 11 70zM2082 408q12 0 32.5 13t36.5 41q-27 18 -65 18q-18 0 -31.5 -12t-13.5 -28q0 -15 13.5 -23.5t27.5 -8.5z
M1095 668q8 24 -7 42t-40 26q-15 -21 -20 -42q-6 -26 2.5 -40t21.5 -14q35 0 43 28zM1863 91q34 0 43 33q3 10 -3 21t-19 11q-42 0 -48 -62q12 -3 27 -3zM392 177q0 -16 11 -32t27 -16q23 0 43 34l-54 29q-10 6 -16 6q-11 0 -11 -21zM1918 494q14 0 26 3q-22 52 -73 52
q-9 0 -25 -2q6 -23 26.5 -38t45.5 -15zM443 565q-7 -26 -1 -45q24 18 62 34l8 3q-16 33 -51 41q-13 -13 -18 -33zM1980 -101q0 49 -80 58q12 -51 76 -73q4 7 4 15zM1771 170q5 7 8 14q6 10 11 22.5t7 19.5l2 6q12 37 -4 37q-12 0 -24 -44q-6 -27 0 -55zM921 -121
q-11 -40 12 -68q13 23 13 50q0 23 -15 45q-7 -11 -10 -27zM1126 164q24 25 28 48q6 32 -7 32q-22 0 -22 -63q0 -12 1 -17zM1782 498q0 -16 10 -16q18 0 18 17t-15 23q-13 -13 -13 -24zM752 491q-3 0 -6 1v-9q-2 -21 8 -23q8 0 12 9q5 10 -14 22zM1480 332q-13 -6 -13 -21
q0 -11 8 -11q11 0 11 14q0 10 -6 18zM823 191q2 6 2 9q2 11 -6 11t-11 -13q-1 -10 6 -19zM1180 471v9q-10 -4 -15 -13q-5 -14 6 -14q9 0 9 18z" />
    <glyph glyph-name="arroewup" horiz-adv-x="500" 
d="M299 11h-98v335l-93 -91l-60 58l203 198l200 -199l-60 -58l-92 93v-336z" />
    <glyph glyph-name="arrowNW" horiz-adv-x="500" 
d="M448 123l-67 -69l-235 237v-122h-90v268h282v-81h-125z" />
    <glyph glyph-name="arrowNE" horiz-adv-x="500" 
d="M119 54l-67 69l235 233h-125v81h282v-268h-90v122z" />
    <glyph glyph-name="arrowSE" horiz-adv-x="500" 
d="M54 363l67 69l235 -237v122h90v-268h-282v81h125z" />
    <glyph glyph-name="arrowSW" horiz-adv-x="500" 
d="M379 432l67 -69l-235 -233h125v-81h-282v268h90v-122z" />
    <glyph glyph-name="arrowLeftRight" horiz-adv-x="1000" 
d="M173 212l92 -92l-66 -60l-199 202l197 201l66 -60l-92 -92h655l-92 92l69 63l194 -204l-199 -202l-66 60l93 92h-652z" />
    <glyph glyph-name="arrowUpDown" horiz-adv-x="750" 
d="M426 -106l92 93l60 -67l-202 -198l-201 196l60 67l92 -92v655l-92 -93l-63 69l205 195l201 -199l-60 -67l-92 93v-652z" />
    <glyph glyph-name="arrowright.750" horiz-adv-x="750" 
d="M1 211v100h578l-93 92l67 59l197 -200l-199 -202l-64 60l92 91h-578z" />
    <glyph glyph-name="arrowup.750" horiz-adv-x="750" 
d="M424 -107h-98v584l-93 -91l-60 58l203 198l200 -199l-60 -58l-92 93v-585z" />
    <glyph glyph-name="arrowleft.750" horiz-adv-x="750" 
d="M749 311v-100h-578l92 -91l-64 -60l-199 202l197 200l67 -59l-93 -92h578z" />
    <glyph glyph-name="arrowdown.750" horiz-adv-x="750" 
d="M326 629h98v-585l92 93l60 -58l-200 -199l-203 198l60 58l93 -91v584z" />
    <glyph glyph-name="arrowNW.750" horiz-adv-x="750" 
d="M663 30l-69 -70l-405 403v-129h-92v289h285v-83h-131z" />
    <glyph glyph-name="arrowNE.750" horiz-adv-x="750" 
d="M155 -45l-69 70l412 410h-131v83h285v-289h-92v129z" />
    <glyph glyph-name="arrowSE.750" horiz-adv-x="750" 
d="M86 493l69 70l405 -403v129h92v-289h-285v83h131z" />
    <glyph glyph-name="arrowSW.750" horiz-adv-x="750" 
d="M594 563l69 -70l-412 -410h131v-83h-285v289h92v-129z" />
    <glyph glyph-name="arrowCircleLeft" horiz-adv-x="750" 
d="M214 306q0 100 62 159t175 59q110 0 170.5 -59t60.5 -165h-97q-3 145 -134 145q-139 0 -139 -145v-113l92 93l60 -58l-201 -199l-202 197l60 60l93 -92v118z" />
    <glyph glyph-name="arrowCircleRight" horiz-adv-x="750" 
d="M535 310v-122l93 92l60 -60l-202 -197l-201 199l60 58l92 -93v113q0 145 -139 145q-131 0 -134 -145h-97q0 106 62 165t180 59q114 0 170 -56t56 -158z" />
    <glyph glyph-name="arrowDubLeft" horiz-adv-x="750" 
d="M318 412l-53 -53h410v-69h-477l-26 -26l25 -25h478v-69h-411l51 -52l-67 -62l-201 205l204 210z" />
    <glyph glyph-name="arrowDubTop" horiz-adv-x="750" 
d="M543 357l-53 53v-410h-69v478l-26 25l-26 -26v-477h-68v410l-51 -50l-63 67l207 201l209 -204z" />
    <glyph glyph-name="arrowDubRight" horiz-adv-x="750" 
d="M485 359l-53 53l67 59l204 -210l-201 -205l-67 62l51 52h-411v69h478l25 25l-26 26h-477v69h410z" />
    <glyph glyph-name="arrowDubDown" horiz-adv-x="750" 
d="M490 205l53 53l60 -67l-209 -204l-207 201l63 67l51 -50v410h68v-477l26 -26l26 25v478h69v-410z" />
    <glyph glyph-name="triangleBlackLeft" horiz-adv-x="610" 
d="M548 22l-486 236l486 232v-468z" />
    <glyph glyph-name="triangleBlackRight" horiz-adv-x="610" 
d="M548 258l-486 -236v468z" />
    <glyph glyph-name="triangleWhiteLeft" horiz-adv-x="610" 
d="M487 117l1 280l-285 -137zM548 490v-465l-486 234v2z" />
    <glyph glyph-name="triangleWhiteRight" horiz-adv-x="610" 
d="M122 397l1 -280l284 143zM62 25v465l486 -229v-2z" />
    <glyph glyph-name="square" horiz-adv-x="610" 
d="M479 151h-349v349h349v-349z" />
    <glyph glyph-name="square.open" horiz-adv-x="610" 
d="M434 196v259h-259v-259h259zM479 151h-349v349h349v-349z" />
    <glyph glyph-name="circle.open" horiz-adv-x="610" 
d="M305 119q-85 0 -145 60t-60 145t60 145t145 60t145 -60t60 -145t-60 -145t-145 -60zM305 167q63 0 107 47.5t44 112.5q0 64 -43.5 108.5t-107.5 44.5t-107 -45.5t-43 -110.5t43 -111t107 -46z" />
    <glyph glyph-name="triangle.left" horiz-adv-x="425" 
d="M275 203l-185 117l185 114v-231z" />
    <glyph glyph-name="raute" horiz-adv-x="610" 
d="M514 325l-210 -209l-209 210l210 209z" />
    <glyph glyph-name="commaaccent" horiz-adv-x="500" 
d="M178 -233l40 176l110 -27l-62 -173z" />
    <glyph glyph-name="revcommaaccent" horiz-adv-x="500" 
d="M309 756l-40 -176l-110 27l62 173z" />
    <glyph glyph-name="tilde.cap" horiz-adv-x="500" 
d="M352 900l62 -23q-21 -100 -94 -100q-25 0 -70 16.5t-56 16.5q-13 0 -22 -8t-19 -29l-63 24q32 100 93 100q26 0 69.5 -17t59.5 -17q14 0 22 7t18 30z" />
    <glyph glyph-name="ring.cap" horiz-adv-x="500" 
d="M209 835q0 -39 42 -39q40 0 40 41q0 39 -40 39q-42 0 -42 -41zM149 833q0 44 29 70.5t73 26.5q43 0 71.5 -25.5t28.5 -67.5q0 -43 -28.5 -69t-71.5 -26q-46 0 -74 24t-28 67z" />
    <glyph glyph-name="circumflex.cap" horiz-adv-x="500" 
d="M211 923h79l109 -113l-58 -49l-88 66l-87 -66l-60 50z" />
    <glyph glyph-name="acute.cap" horiz-adv-x="500" 
d="M129 827l178 107l54 -97l-187 -87z" />
    <glyph glyph-name="grave.cap" horiz-adv-x="500" 
d="M191 934l178 -107l-45 -77l-187 87z" />
    <glyph glyph-name="dieresis.cap" horiz-adv-x="500" 
d="M81 833q0 27 18.5 44.5t50.5 17.5q34 0 52 -17.5t18 -44.5t-19.5 -44t-50.5 -17q-33 0 -51 16.5t-18 44.5zM285 833q0 27 18.5 44.5t50.5 17.5q34 0 52 -17.5t18 -44.5t-19.5 -44t-50.5 -17q-33 0 -51 16.5t-18 44.5z" />
    <glyph glyph-name="caron.cap" horiz-adv-x="500" 
d="M290 761h-79l-105 112l60 50l87 -66l88 66l58 -49z" />
    <glyph glyph-name="macron.cap" horiz-adv-x="500" 
d="M109 784v89h283v-89h-283z" />
    <glyph glyph-name="dotaccent.cap" horiz-adv-x="500" 
d="M170 837q0 32 22.5 50t57.5 18t57 -18t22 -50t-22 -49.5t-57 -17.5q-34 0 -57 18t-23 49z" />
    <glyph glyph-name="cedilla.cap" horiz-adv-x="500" 
d="M156 -205l15 57q28 -10 57 -10q41 0 41 30q0 31 -59 31h-18l23 105h64l-12 -60q18 -2 30.5 -5.5t27 -11.5t22 -23t7.5 -37q0 -45 -30.5 -68.5t-80.5 -23.5q-52 0 -87 16z" />
    <glyph glyph-name="hungarumlaut.cap" horiz-adv-x="500" 
d="M189 960l81 -63l-132 -146l-65 51zM357 945l76 -68l-132 -127l-61 56z" />
    <glyph glyph-name="commaaccent.cap" horiz-adv-x="500" 
d="M178 -233l40 176l110 -27l-62 -173z" />
    <glyph glyph-name="breve.cap" horiz-adv-x="500" 
d="M250 843q39 0 56 16.5t21 46.5l80 -13q-7 -64 -45 -95.5t-112 -31.5q-75 0 -112 30t-47 97l83 14q6 -32 22.5 -48t53.5 -16z" />
    <glyph glyph-name="caron.alt" horiz-adv-x="500" 
d="M177 522l31 198h121l-54 -198h-98z" />
    <glyph glyph-name="ogonek.cap" horiz-adv-x="500" 
d="M250 15l77 -6v-9q-79 -75 -79 -117q0 -32 29 -32q27 0 55 12l19 -64q-51 -30 -110 -30q-97 0 -97 79q0 83 106 167z" />
    <glyph glyph-name="CR" horiz-adv-x="0" 
 />
    </font>
</defs>
</svg>
